{"glyphs":{"0":{"ha":795,"x_min":47,"x_max":748,"o":"m 397 -17 q 213 42 292 -17 q 90 215 133 102 q 47 485 47 328 q 90 759 47 645 q 212 931 133 872 q 397 990 291 990 q 583 931 503 990 q 705 759 662 873 q 748 485 748 646 q 705 215 748 328 q 582 42 661 101 q 397 -17 503 -17 m 397 85 q 557 187 500 85 q 613 485 613 289 q 588 706 613 616 q 513 841 562 796 q 397 887 465 887 q 237 785 293 887 q 181 485 181 683 q 207 265 181 355 q 282 131 233 176 q 397 85 330 85 z "},"1":{"ha":483,"x_min":34,"x_max":375,"o":"m 254 0 q 241 14 241 0 l 246 478 l 243 828 q 49 719 168 759 q 44 718 47 718 q 34 730 34 718 l 34 804 q 44 819 34 816 q 157 881 106 843 q 242 963 208 918 q 259 972 249 972 l 362 972 q 375 958 375 972 l 369 456 l 375 14 q 362 0 375 0 l 254 0 z "},"2":{"ha":710,"x_min":47,"x_max":669,"o":"m 62 0 q 52 4 56 0 q 49 14 49 8 l 49 126 q 89 289 49 223 q 186 394 129 354 q 336 481 244 433 q 451 546 409 519 q 520 612 492 573 q 548 703 548 651 q 502 839 549 788 q 363 891 455 891 q 221 831 272 891 q 165 656 169 771 q 161 645 165 649 q 151 642 157 642 l 60 642 q 47 656 47 642 q 131 902 50 817 q 363 988 212 988 q 528 955 460 988 q 632 858 597 921 q 669 707 668 794 q 631 560 669 620 q 538 463 592 500 q 393 378 483 425 q 274 311 318 340 q 200 241 230 283 q 171 144 171 200 l 171 100 l 649 100 q 659 96 656 100 q 663 86 663 92 l 663 14 q 659 4 663 8 q 649 0 656 0 l 62 0 z "},"3":{"ha":751,"x_min":41,"x_max":706,"o":"m 365 -14 q 133 64 215 -14 q 41 292 51 141 l 41 293 q 45 302 41 299 q 54 306 49 306 l 154 306 q 168 292 167 306 q 222 133 173 188 q 366 78 270 78 q 520 136 467 78 q 573 291 573 193 q 515 428 573 382 q 342 474 457 474 l 298 474 q 284 488 284 474 l 284 549 q 298 563 284 563 l 342 563 q 500 606 447 563 q 553 726 553 649 q 530 815 553 777 q 468 874 508 853 q 378 894 428 894 q 180 694 194 894 q 166 680 178 680 l 69 680 q 59 684 63 680 q 56 694 56 688 q 103 853 61 788 q 216 952 144 919 q 383 986 288 986 q 536 956 469 986 q 643 869 604 926 q 682 736 682 813 q 637 601 682 653 q 515 524 592 549 q 656 443 606 505 q 706 290 706 382 q 662 130 706 199 q 541 24 619 61 q 365 -14 464 -14 z "},"4":{"ha":751,"x_min":33,"x_max":718,"o":"m 705 364 q 718 351 718 364 l 718 278 q 715 268 718 272 q 705 264 711 264 l 614 264 l 614 13 q 601 0 614 0 l 499 0 q 485 13 485 0 l 485 264 l 47 264 q 37 268 41 264 q 33 278 33 272 l 33 364 q 38 381 33 373 l 428 963 q 444 972 434 972 l 601 972 q 610 968 607 972 q 614 958 614 965 l 614 364 l 705 364 m 485 364 l 485 716 l 488 878 l 145 364 l 485 364 z "},"5":{"ha":749,"x_min":49,"x_max":707,"o":"m 367 -18 q 143 55 224 -18 q 49 255 63 127 l 49 258 q 62 269 49 269 l 165 269 q 178 256 177 269 q 233 124 185 173 q 366 76 281 76 q 474 108 428 76 q 545 200 520 140 q 569 345 569 261 q 519 535 569 469 q 374 600 469 600 q 253 563 301 600 q 188 456 206 526 q 174 444 185 444 l 85 444 q 72 458 70 444 l 104 959 q 118 972 105 972 l 630 972 q 640 968 636 972 q 643 958 643 965 l 643 886 q 640 876 643 880 q 630 872 636 872 l 217 872 l 196 603 q 287 672 235 649 q 408 695 339 695 q 562 653 494 695 q 668 534 630 612 q 707 353 707 457 q 664 157 707 241 q 544 27 622 73 q 367 -18 467 -18 z "},"6":{"ha":769,"x_min":51,"x_max":724,"o":"m 397 -17 q 141 108 231 -17 q 51 481 51 233 q 94 756 51 641 q 218 930 138 870 q 409 990 299 990 q 602 930 532 990 q 689 755 673 870 l 689 753 q 676 740 689 740 l 574 740 q 560 753 561 740 q 511 857 551 819 q 400 895 472 895 q 284 851 333 895 q 210 724 236 806 q 185 528 185 641 q 279 618 218 587 q 422 649 340 649 q 580 611 512 649 q 686 503 648 574 q 724 336 724 432 q 681 156 724 237 q 564 29 639 75 q 397 -17 490 -17 m 390 80 q 497 109 453 80 q 565 193 542 138 q 589 322 589 247 q 538 492 588 430 q 397 553 489 553 q 288 527 333 553 q 218 449 242 500 q 194 328 194 398 q 217 201 194 257 q 285 112 241 144 q 390 80 330 80 z "},"7":{"ha":638,"x_min":26,"x_max":612,"o":"m 203 0 q 190 15 188 0 q 301 469 231 251 q 473 872 372 688 l 40 872 q 30 876 33 872 q 26 886 26 880 l 26 958 q 30 968 26 965 q 40 972 33 972 l 598 972 q 608 968 605 972 q 612 958 612 965 l 612 881 q 608 864 612 872 q 433 447 505 658 q 328 13 362 235 q 314 0 326 0 l 203 0 z "},"8":{"ha":776,"x_min":49,"x_max":731,"o":"m 389 -15 q 214 20 292 -15 q 93 119 137 55 q 49 269 49 183 q 100 425 49 358 q 242 517 151 491 q 124 601 165 546 q 83 728 83 656 q 121 867 83 808 q 227 957 158 926 q 389 989 297 989 q 551 957 482 989 q 658 867 621 926 q 696 729 696 808 q 653 604 696 661 q 533 517 610 547 q 678 425 626 491 q 731 269 731 358 q 686 119 731 183 q 564 20 642 55 q 389 -15 486 -15 m 389 556 q 484 579 443 556 q 547 640 525 602 q 569 722 569 678 q 546 816 569 776 q 483 877 524 856 q 389 898 442 898 q 295 877 335 898 q 232 815 254 856 q 210 719 210 775 q 232 636 210 673 q 294 577 253 599 q 389 556 335 556 m 389 76 q 500 101 451 76 q 574 169 548 126 q 601 269 601 213 q 575 374 601 329 q 502 445 550 419 q 389 471 454 470 q 276 445 324 470 q 203 374 228 419 q 178 269 178 328 q 204 169 178 213 q 278 101 231 126 q 389 76 326 76 z "},"9":{"ha":769,"x_min":48,"x_max":720,"o":"m 363 -17 q 169 42 240 -17 q 83 217 99 102 l 83 220 q 95 232 83 232 l 197 232 q 211 219 209 232 q 260 114 219 151 q 372 77 301 77 q 488 120 440 77 q 561 246 536 164 q 586 443 586 328 q 492 354 553 385 q 350 323 432 323 q 192 361 260 323 q 86 469 124 399 q 48 636 48 540 q 90 817 48 737 q 206 944 131 898 q 375 990 280 990 q 630 865 540 990 q 720 492 720 740 q 677 217 720 331 q 553 42 633 102 q 363 -17 472 -17 m 375 419 q 524 478 470 419 q 577 644 577 538 q 554 772 577 715 q 486 860 531 828 q 381 892 442 892 q 274 863 319 892 q 206 780 230 834 q 183 650 183 725 q 233 481 184 542 q 375 419 282 419 z "}," ":{"ha":258,"x_min":0,"x_max":0,"o":""},"A":{"ha":874,"x_min":9,"x_max":865,"o":"m 863 16 q 865 10 865 12 q 853 0 865 0 l 745 0 q 730 11 734 0 l 633 294 l 236 294 l 140 11 q 125 0 138 0 l 22 0 q 9 10 9 0 q 10 16 9 12 l 350 961 q 365 972 353 972 l 513 972 q 528 961 524 972 l 863 16 m 599 398 l 433 881 l 269 398 l 599 398 z "},"Á":{"ha":874,"x_min":9,"x_max":865,"o":"m 863 16 q 865 10 865 12 q 853 0 865 0 l 745 0 q 730 11 734 0 l 633 294 l 236 294 l 140 11 q 125 0 138 0 l 22 0 q 9 10 9 0 q 10 16 9 12 l 350 961 q 365 972 353 972 l 513 972 q 528 961 524 972 l 863 16 m 599 398 l 433 881 l 269 398 l 599 398 m 323 1049 q 318 1049 321 1049 q 306 1058 310 1049 l 292 1096 q 290 1102 290 1100 q 299 1114 290 1110 l 597 1253 q 604 1255 601 1255 q 615 1246 611 1255 l 639 1175 q 640 1169 640 1171 q 631 1158 640 1161 l 323 1049 z "},"Ă":{"ha":874,"x_min":9,"x_max":865,"o":"m 863 16 q 865 10 865 12 q 853 0 865 0 l 745 0 q 730 11 734 0 l 633 294 l 236 294 l 140 11 q 125 0 138 0 l 22 0 q 9 10 9 0 q 10 16 9 12 l 350 961 q 365 972 353 972 l 513 972 q 528 961 524 972 l 863 16 m 599 398 l 433 881 l 269 398 l 599 398 m 440 1056 q 341 1078 384 1056 q 273 1141 297 1101 q 244 1231 248 1181 l 244 1233 q 248 1242 244 1238 q 258 1245 251 1245 l 317 1245 q 332 1231 330 1245 q 364 1166 335 1190 q 440 1142 392 1142 q 515 1166 486 1142 q 548 1231 544 1191 q 563 1245 550 1245 l 623 1245 q 633 1242 629 1245 q 635 1233 636 1238 q 608 1142 633 1182 q 540 1078 583 1101 q 440 1056 497 1056 z "},"Ắ":{"ha":874,"x_min":9,"x_max":865,"o":"m 863 16 q 865 10 865 12 q 853 0 865 0 l 745 0 q 730 11 734 0 l 633 294 l 236 294 l 140 11 q 125 0 138 0 l 22 0 q 9 10 9 0 q 10 16 9 12 l 350 961 q 365 972 353 972 l 513 972 q 528 961 524 972 l 863 16 m 599 398 l 433 881 l 269 398 l 599 398 m 448 1204 q 438 1199 443 1199 q 428 1203 434 1199 l 395 1231 q 390 1241 390 1235 q 393 1250 390 1245 l 543 1442 q 553 1447 547 1447 q 563 1443 557 1447 l 613 1398 q 618 1388 618 1392 q 613 1379 618 1384 l 448 1204 m 440 1039 q 341 1062 384 1039 q 273 1125 297 1085 q 244 1215 248 1165 l 244 1216 q 258 1228 244 1228 l 317 1228 q 332 1215 330 1228 q 364 1150 335 1174 q 440 1125 392 1125 q 515 1150 486 1125 q 548 1215 544 1175 q 563 1228 550 1228 l 623 1228 q 633 1225 629 1228 q 635 1216 636 1222 q 608 1125 633 1165 q 540 1062 583 1085 q 440 1039 497 1039 z "},"Ặ":{"ha":874,"x_min":9,"x_max":865,"o":"m 863 16 q 865 10 865 12 q 853 0 865 0 l 745 0 q 730 11 734 0 l 633 294 l 236 294 l 140 11 q 125 0 138 0 l 22 0 q 9 10 9 0 q 10 16 9 12 l 350 961 q 365 972 353 972 l 513 972 q 528 961 524 972 l 863 16 m 599 398 l 433 881 l 269 398 l 599 398 m 440 1056 q 341 1078 384 1056 q 273 1141 297 1101 q 244 1231 248 1181 l 244 1233 q 248 1242 244 1238 q 258 1245 251 1245 l 317 1245 q 332 1231 330 1245 q 364 1166 335 1190 q 440 1142 392 1142 q 515 1166 486 1142 q 548 1231 544 1191 q 563 1245 550 1245 l 623 1245 q 633 1242 629 1245 q 635 1233 636 1238 q 608 1142 633 1182 q 540 1078 583 1101 q 440 1056 497 1056 z "},"Ằ":{"ha":874,"x_min":9,"x_max":865,"o":"m 863 16 q 865 10 865 12 q 853 0 865 0 l 745 0 q 730 11 734 0 l 633 294 l 236 294 l 140 11 q 125 0 138 0 l 22 0 q 9 10 9 0 q 10 16 9 12 l 350 961 q 365 972 353 972 l 513 972 q 528 961 524 972 l 863 16 m 599 398 l 433 881 l 269 398 l 599 398 m 451 1203 q 442 1199 447 1199 q 432 1204 437 1199 l 267 1379 q 263 1388 263 1383 q 267 1398 263 1393 l 318 1443 q 328 1447 324 1447 q 337 1442 333 1447 l 488 1250 q 491 1241 491 1245 q 485 1231 491 1235 l 451 1203 m 440 1039 q 340 1062 383 1039 q 272 1125 297 1085 q 244 1215 247 1165 l 244 1216 q 257 1228 244 1228 l 317 1228 q 331 1215 329 1228 q 363 1150 335 1174 q 440 1125 392 1125 q 515 1150 485 1125 q 548 1215 544 1175 q 562 1228 549 1228 l 622 1228 q 632 1225 628 1228 q 635 1216 635 1222 q 608 1125 633 1165 q 539 1062 583 1085 q 440 1039 496 1039 z "},"Ẳ":{"ha":874,"x_min":9,"x_max":865,"o":"m 863 16 q 865 10 865 12 q 853 0 865 0 l 745 0 q 730 11 734 0 l 633 294 l 236 294 l 140 11 q 125 0 138 0 l 22 0 q 9 10 9 0 q 10 16 9 12 l 350 961 q 365 972 353 972 l 513 972 q 528 961 524 972 l 863 16 m 599 398 l 433 881 l 269 398 l 599 398 z "},"Ẵ":{"ha":874,"x_min":9,"x_max":865,"o":"m 863 16 q 865 10 865 12 q 853 0 865 0 l 745 0 q 730 11 734 0 l 633 294 l 236 294 l 140 11 q 125 0 138 0 l 22 0 q 9 10 9 0 q 10 16 9 12 l 350 961 q 365 972 353 972 l 513 972 q 528 961 524 972 l 863 16 m 599 398 l 433 881 l 269 398 l 599 398 m 513 1258 q 463 1272 483 1258 q 421 1309 443 1285 q 394 1335 405 1326 q 369 1343 383 1343 q 326 1277 329 1343 q 312 1264 326 1264 l 268 1264 q 255 1278 253 1264 q 285 1381 257 1342 q 367 1419 314 1419 q 416 1406 397 1419 q 458 1369 436 1393 q 484 1343 474 1351 q 508 1335 495 1335 q 553 1400 551 1335 q 567 1413 554 1413 l 611 1413 q 621 1409 617 1413 q 624 1397 624 1404 q 592 1295 620 1332 q 513 1258 565 1258 m 440 1039 q 341 1062 384 1039 q 273 1125 297 1085 q 244 1215 248 1165 l 244 1216 q 258 1228 244 1228 l 317 1228 q 332 1215 330 1228 q 364 1150 335 1174 q 440 1125 392 1125 q 515 1150 486 1125 q 548 1215 544 1175 q 563 1228 550 1228 l 623 1228 q 633 1225 629 1228 q 635 1216 636 1222 q 608 1125 633 1165 q 540 1062 583 1085 q 440 1039 497 1039 z "},"Â":{"ha":874,"x_min":9,"x_max":865,"o":"m 863 16 q 865 10 865 12 q 853 0 865 0 l 745 0 q 730 11 734 0 l 633 294 l 236 294 l 140 11 q 125 0 138 0 l 22 0 q 9 10 9 0 q 10 16 9 12 l 350 961 q 365 972 353 972 l 513 972 q 528 961 524 972 l 863 16 m 599 398 l 433 881 l 269 398 l 599 398 m 215 1099 q 214 1106 214 1102 q 221 1118 214 1114 l 403 1229 q 420 1233 410 1233 l 458 1233 q 475 1229 468 1233 l 658 1118 q 665 1106 665 1114 q 663 1099 665 1102 l 646 1060 q 635 1051 643 1051 q 628 1053 631 1051 l 438 1140 l 249 1053 q 242 1051 247 1051 q 232 1060 235 1051 l 215 1099 z "},"Ấ":{"ha":874,"x_min":9,"x_max":865,"o":"m 863 16 q 865 10 865 12 q 853 0 865 0 l 745 0 q 730 11 734 0 l 633 294 l 236 294 l 140 11 q 125 0 138 0 l 22 0 q 9 10 9 0 q 10 16 9 12 l 350 961 q 365 972 353 972 l 513 972 q 528 961 524 972 l 863 16 m 599 398 l 433 881 l 269 398 l 599 398 m 617 1186 q 608 1181 613 1181 q 598 1185 603 1181 l 567 1213 q 561 1224 561 1219 q 565 1233 561 1228 l 715 1422 q 724 1428 719 1428 q 734 1423 729 1428 l 783 1378 q 788 1368 788 1374 q 783 1359 788 1363 l 617 1186 m 215 1073 q 214 1080 214 1076 q 221 1091 214 1087 l 403 1202 q 420 1207 411 1207 l 458 1207 q 475 1202 467 1207 l 658 1091 q 665 1080 665 1087 q 663 1073 665 1076 l 646 1033 q 635 1024 642 1024 q 628 1026 631 1024 l 438 1113 l 249 1026 q 243 1024 247 1024 q 232 1033 236 1024 l 215 1073 z "},"Ậ":{"ha":874,"x_min":9,"x_max":865,"o":"m 863 16 q 865 10 865 12 q 853 0 865 0 l 745 0 q 730 11 734 0 l 633 294 l 236 294 l 140 11 q 125 0 138 0 l 22 0 q 9 10 9 0 q 10 16 9 12 l 350 961 q 365 972 353 972 l 513 972 q 528 961 524 972 l 863 16 m 599 398 l 433 881 l 269 398 l 599 398 m 215 1099 q 214 1106 214 1102 q 221 1118 214 1114 l 403 1229 q 420 1233 410 1233 l 458 1233 q 475 1229 468 1233 l 658 1118 q 665 1106 665 1114 q 663 1099 665 1102 l 646 1060 q 635 1051 643 1051 q 628 1053 631 1051 l 438 1140 l 249 1053 q 242 1051 247 1051 q 232 1060 235 1051 l 215 1099 z "},"Ầ":{"ha":874,"x_min":9,"x_max":865,"o":"m 863 16 q 865 10 865 12 q 853 0 865 0 l 745 0 q 730 11 734 0 l 633 294 l 236 294 l 140 11 q 125 0 138 0 l 22 0 q 9 10 9 0 q 10 16 9 12 l 350 961 q 365 972 353 972 l 513 972 q 528 961 524 972 l 863 16 m 599 398 l 433 881 l 269 398 l 599 398 m 627 1185 q 618 1181 623 1181 q 608 1185 614 1181 l 442 1358 q 438 1368 438 1363 q 442 1378 438 1373 l 491 1422 q 501 1427 497 1427 q 510 1421 506 1427 l 660 1232 q 664 1223 664 1228 q 659 1213 664 1217 l 627 1185 m 215 1073 q 214 1080 214 1076 q 221 1091 214 1087 l 403 1202 q 420 1207 411 1207 l 458 1207 q 475 1202 467 1207 l 658 1091 q 665 1080 665 1087 q 663 1073 665 1076 l 646 1033 q 635 1024 643 1024 q 628 1026 631 1024 l 438 1113 l 249 1026 q 243 1024 246 1024 q 232 1033 236 1024 l 215 1073 z "},"Ẩ":{"ha":874,"x_min":9,"x_max":865,"o":"m 863 16 q 865 10 865 12 q 853 0 865 0 l 745 0 q 730 11 734 0 l 633 294 l 236 294 l 140 11 q 125 0 138 0 l 22 0 q 9 10 9 0 q 10 16 9 12 l 350 961 q 365 972 353 972 l 513 972 q 528 961 524 972 l 863 16 m 599 398 l 433 881 l 269 398 l 599 398 z "},"Ẫ":{"ha":874,"x_min":9,"x_max":865,"o":"m 863 16 q 865 10 865 12 q 853 0 865 0 l 745 0 q 730 11 734 0 l 633 294 l 236 294 l 140 11 q 125 0 138 0 l 22 0 q 9 10 9 0 q 10 16 9 12 l 350 961 q 365 972 353 972 l 513 972 q 528 961 524 972 l 863 16 m 599 398 l 433 881 l 269 398 l 599 398 z "},"Ä":{"ha":874,"x_min":9,"x_max":865,"o":"m 863 16 q 865 10 865 12 q 853 0 865 0 l 745 0 q 730 11 734 0 l 633 294 l 236 294 l 140 11 q 125 0 138 0 l 22 0 q 9 10 9 0 q 10 16 9 12 l 350 961 q 365 972 353 972 l 513 972 q 528 961 524 972 l 863 16 m 599 398 l 433 881 l 269 398 l 599 398 m 286 1059 q 276 1063 280 1059 q 272 1072 272 1066 l 272 1179 q 276 1189 272 1185 q 286 1192 280 1192 l 372 1192 q 386 1179 386 1192 l 386 1072 q 382 1063 386 1066 q 372 1059 378 1059 l 286 1059 m 506 1059 q 493 1072 493 1059 l 493 1179 q 506 1192 493 1192 l 593 1192 q 603 1189 599 1192 q 607 1179 607 1185 l 607 1072 q 603 1063 607 1066 q 593 1059 599 1059 l 506 1059 z "},"Ạ":{"ha":874,"x_min":9,"x_max":865,"o":"m 863 16 q 865 10 865 12 q 853 0 865 0 l 745 0 q 730 11 734 0 l 633 294 l 236 294 l 140 11 q 125 0 138 0 l 22 0 q 9 10 9 0 q 10 16 9 12 l 350 961 q 365 972 353 972 l 513 972 q 528 961 524 972 l 863 16 m 599 398 l 433 881 l 269 398 l 599 398 z "},"À":{"ha":874,"x_min":9,"x_max":865,"o":"m 863 16 q 865 10 865 12 q 853 0 865 0 l 745 0 q 730 11 734 0 l 633 294 l 236 294 l 140 11 q 125 0 138 0 l 22 0 q 9 10 9 0 q 10 16 9 12 l 350 961 q 365 972 353 972 l 513 972 q 528 961 524 972 l 863 16 m 599 398 l 433 881 l 269 398 l 599 398 m 563 1058 q 551 1049 560 1049 q 546 1049 548 1049 l 238 1158 q 230 1164 233 1160 q 230 1175 228 1169 l 255 1247 q 265 1256 258 1256 q 272 1253 268 1256 l 570 1115 q 579 1103 579 1110 q 578 1097 579 1101 l 563 1058 z "},"Ả":{"ha":874,"x_min":9,"x_max":865,"o":"m 863 16 q 865 10 865 12 q 853 0 865 0 l 745 0 q 730 11 734 0 l 633 294 l 236 294 l 140 11 q 125 0 138 0 l 22 0 q 9 10 9 0 q 10 16 9 12 l 350 961 q 365 972 353 972 l 513 972 q 528 961 524 972 l 863 16 m 599 398 l 433 881 l 269 398 l 599 398 m 407 1057 q 397 1061 401 1057 q 394 1072 393 1065 q 414 1115 398 1099 q 460 1149 431 1131 q 494 1172 483 1162 q 505 1199 505 1183 q 489 1229 505 1217 q 445 1241 474 1241 q 401 1230 417 1241 q 379 1198 384 1218 q 365 1185 376 1185 l 304 1185 q 294 1189 298 1185 q 292 1199 291 1192 q 339 1280 299 1251 q 447 1308 379 1308 q 555 1279 515 1308 q 596 1201 596 1250 q 579 1150 596 1169 q 532 1113 563 1132 q 501 1090 512 1099 q 487 1069 490 1081 q 473 1057 483 1057 l 407 1057 z "},"Ā":{"ha":874,"x_min":9,"x_max":865,"o":"m 863 16 q 865 10 865 12 q 853 0 865 0 l 745 0 q 730 11 734 0 l 633 294 l 236 294 l 140 11 q 125 0 138 0 l 22 0 q 9 10 9 0 q 10 16 9 12 l 350 961 q 365 972 353 972 l 513 972 q 528 961 524 972 l 863 16 m 599 398 l 433 881 l 269 398 l 599 398 m 249 1083 q 235 1097 235 1083 l 235 1160 q 239 1169 235 1166 q 249 1173 243 1173 l 628 1173 q 638 1169 634 1173 q 642 1160 642 1166 l 642 1097 q 638 1087 642 1090 q 628 1083 634 1083 l 249 1083 z "},"Ą":{"ha":874,"x_min":9,"x_max":901,"o":"m 887 -176 q 897 -180 893 -176 q 901 -190 901 -183 l 901 -251 q 897 -260 901 -257 q 887 -264 893 -264 l 819 -264 q 730 -248 769 -264 q 669 -202 690 -231 q 647 -133 647 -172 q 670 -55 647 -90 q 733 6 693 -19 l 730 11 l 633 294 l 236 294 l 140 11 q 125 0 138 0 l 22 0 q 9 10 9 0 q 10 16 9 12 l 350 961 q 365 972 353 972 l 513 972 q 528 961 524 972 l 863 16 q 865 10 865 12 q 853 0 865 0 l 814 0 q 768 -46 788 -17 q 748 -110 748 -76 q 770 -160 748 -143 q 830 -176 792 -176 l 887 -176 m 433 881 l 269 398 l 599 398 l 433 881 z "},"Å":{"ha":874,"x_min":9,"x_max":865,"o":"m 863 16 q 865 10 865 12 q 853 0 865 0 l 745 0 q 730 11 734 0 l 633 294 l 236 294 l 140 11 q 125 0 138 0 l 22 0 q 9 10 9 0 q 10 16 9 12 l 350 961 q 365 972 353 972 l 513 972 q 528 961 524 972 l 863 16 m 599 398 l 433 881 l 269 398 l 599 398 m 438 1053 q 362 1072 396 1053 q 308 1123 328 1091 q 289 1196 289 1156 q 308 1269 289 1236 q 362 1320 328 1301 q 438 1339 396 1339 q 515 1320 481 1339 q 569 1269 549 1301 q 588 1196 588 1236 q 569 1123 588 1156 q 515 1072 549 1091 q 438 1053 481 1053 m 438 1106 q 495 1130 473 1106 q 517 1196 517 1155 q 495 1262 517 1238 q 438 1286 473 1286 q 382 1262 403 1286 q 360 1196 360 1238 q 382 1130 360 1154 q 438 1106 403 1106 z "},"Ã":{"ha":874,"x_min":9,"x_max":865,"o":"m 863 16 q 865 10 865 12 q 853 0 865 0 l 745 0 q 730 11 734 0 l 633 294 l 236 294 l 140 11 q 125 0 138 0 l 22 0 q 9 10 9 0 q 10 16 9 12 l 350 961 q 365 972 353 972 l 513 972 q 528 961 524 972 l 863 16 m 599 398 l 433 881 l 269 398 l 599 398 m 517 1065 q 465 1079 485 1065 q 419 1120 444 1093 q 390 1149 401 1140 q 363 1158 378 1158 q 316 1084 319 1158 q 302 1071 315 1071 l 258 1071 q 244 1085 244 1071 q 277 1193 247 1152 q 362 1234 307 1234 q 415 1219 394 1234 q 460 1177 436 1205 q 487 1150 476 1159 q 512 1141 499 1141 q 563 1215 559 1141 q 576 1228 563 1228 l 620 1228 q 633 1211 634 1228 q 601 1104 630 1143 q 517 1065 572 1065 z "},"Æ":{"ha":1206,"x_min":8,"x_max":1160,"o":"m 1147 99 q 1157 95 1153 99 q 1160 85 1160 91 l 1160 14 q 1157 4 1160 8 q 1147 0 1153 0 l 619 0 q 606 14 606 0 l 609 294 l 281 294 l 140 10 q 123 0 135 0 l 20 0 q 8 9 8 0 q 10 16 8 12 l 492 963 q 508 972 497 972 l 1135 972 q 1145 968 1142 972 q 1149 958 1149 965 l 1149 888 q 1145 877 1149 881 q 1135 874 1142 874 l 740 874 l 734 568 l 1102 568 q 1115 555 1115 568 l 1115 483 q 1102 470 1115 470 l 734 470 l 740 99 l 1147 99 m 607 881 l 571 881 l 331 398 l 610 398 l 612 503 l 607 881 z "},"B":{"ha":866,"x_min":74,"x_max":818,"o":"m 88 0 q 74 14 74 0 l 81 502 l 74 958 q 88 972 74 972 l 456 972 q 630 945 555 972 q 747 866 705 919 q 789 739 789 814 q 744 597 789 649 q 610 520 699 544 q 766 435 715 495 q 818 288 817 376 q 770 125 818 189 q 640 30 722 60 q 458 0 559 0 l 88 0 m 208 878 l 203 561 l 455 561 q 658 717 658 561 q 603 838 658 797 q 455 878 549 878 l 208 878 m 203 467 l 208 95 l 455 95 q 686 287 686 95 q 621 423 686 378 q 455 467 556 467 l 203 467 z "},"C":{"ha":948,"x_min":44,"x_max":911,"o":"m 498 -17 q 254 43 356 -17 q 98 217 152 103 q 44 488 44 331 q 99 753 44 640 q 257 928 154 867 q 498 990 359 990 q 762 910 654 990 q 903 653 869 830 l 903 649 q 900 641 903 644 q 891 638 897 638 l 790 638 q 775 651 777 638 q 680 829 753 770 q 496 888 607 888 q 324 839 395 888 q 215 700 252 790 q 178 488 178 610 q 216 265 178 356 q 325 130 253 175 q 495 84 396 84 q 691 150 617 84 q 781 342 766 217 q 795 356 783 356 l 898 356 q 908 351 905 356 q 910 339 911 347 q 775 72 883 161 q 498 -17 668 -17 z "},"Ć":{"ha":948,"x_min":44,"x_max":911,"o":"m 498 -17 q 254 43 356 -17 q 98 217 152 103 q 44 488 44 331 q 99 753 44 640 q 257 928 154 867 q 498 990 359 990 q 762 910 654 990 q 903 653 869 830 l 903 649 q 900 641 903 644 q 891 638 897 638 l 790 638 q 775 651 777 638 q 680 829 753 770 q 496 888 607 888 q 324 839 395 888 q 215 700 252 790 q 178 488 178 610 q 216 265 178 356 q 325 130 253 175 q 495 84 396 84 q 691 150 617 84 q 781 342 766 217 q 795 356 783 356 l 898 356 q 908 351 905 356 q 910 339 911 347 q 775 72 883 161 q 498 -17 668 -17 m 376 1049 q 372 1049 374 1049 q 359 1058 363 1049 l 345 1096 q 344 1102 344 1100 q 352 1114 344 1110 l 651 1253 q 658 1255 655 1255 q 668 1246 665 1255 l 692 1175 q 694 1169 694 1171 q 684 1158 694 1161 l 376 1049 z "},"Č":{"ha":948,"x_min":44,"x_max":911,"o":"m 498 -17 q 254 43 356 -17 q 98 217 152 103 q 44 488 44 331 q 99 753 44 640 q 257 928 154 867 q 498 990 359 990 q 762 910 654 990 q 903 653 869 830 l 903 649 q 900 641 903 644 q 891 638 897 638 l 790 638 q 775 651 777 638 q 680 829 753 770 q 496 888 607 888 q 324 839 395 888 q 215 700 252 790 q 178 488 178 610 q 216 265 178 356 q 325 130 253 175 q 495 84 396 84 q 691 150 617 84 q 781 342 766 217 q 795 356 783 356 l 898 356 q 908 351 905 356 q 910 339 911 347 q 775 72 883 161 q 498 -17 668 -17 m 275 1167 q 267 1177 267 1171 q 269 1185 267 1181 l 286 1224 q 297 1233 289 1233 q 303 1231 300 1233 l 492 1145 l 681 1231 q 688 1233 685 1233 q 699 1225 696 1233 l 716 1185 q 717 1178 717 1182 q 710 1167 717 1171 l 528 1057 q 510 1052 522 1052 l 474 1052 q 458 1057 464 1052 l 275 1167 z "},"Ç":{"ha":948,"x_min":44,"x_max":911,"o":"m 898 356 q 908 351 905 356 q 910 339 911 347 q 785 80 884 169 q 528 -17 686 -8 l 476 -226 q 471 -234 476 -232 q 460 -235 467 -237 l 369 -217 q 359 -206 359 -215 q 360 -200 359 -204 l 433 -14 q 224 63 311 -1 q 90 235 136 127 q 44 488 44 343 q 99 753 44 640 q 257 928 154 867 q 498 990 359 990 q 762 910 654 990 q 903 653 869 830 l 903 649 q 900 641 903 644 q 891 638 897 638 l 790 638 q 775 651 777 638 q 680 829 753 770 q 496 888 607 888 q 324 839 395 888 q 215 700 252 790 q 178 488 178 610 q 216 265 178 356 q 325 130 253 175 q 495 84 396 84 q 691 150 617 84 q 781 342 766 217 q 795 356 783 356 l 898 356 z "},"Ĉ":{"ha":948,"x_min":44,"x_max":911,"o":"m 498 -17 q 254 43 356 -17 q 98 217 152 103 q 44 488 44 331 q 99 753 44 640 q 257 928 154 867 q 498 990 359 990 q 762 910 654 990 q 903 653 869 830 l 903 649 q 900 641 903 644 q 891 638 897 638 l 790 638 q 775 651 777 638 q 680 829 753 770 q 496 888 607 888 q 324 839 395 888 q 215 700 252 790 q 178 488 178 610 q 216 265 178 356 q 325 130 253 175 q 495 84 396 84 q 691 150 617 84 q 781 342 766 217 q 795 356 783 356 l 898 356 q 908 351 905 356 q 910 339 911 347 q 775 72 883 161 q 498 -17 668 -17 m 269 1099 q 267 1106 267 1102 q 274 1118 267 1114 l 457 1229 q 474 1233 464 1233 l 511 1233 q 528 1229 522 1233 l 711 1118 q 718 1106 718 1114 q 717 1099 718 1102 l 699 1060 q 689 1051 697 1051 q 682 1053 684 1051 l 492 1140 l 303 1053 q 296 1051 300 1051 q 285 1060 289 1051 l 269 1099 z "},"Ċ":{"ha":948,"x_min":44,"x_max":911,"o":"m 498 -17 q 254 43 356 -17 q 98 217 152 103 q 44 488 44 331 q 99 753 44 640 q 257 928 154 867 q 498 990 359 990 q 762 910 654 990 q 903 653 869 830 l 903 649 q 900 641 903 644 q 891 638 897 638 l 790 638 q 775 651 777 638 q 680 829 753 770 q 496 888 607 888 q 324 839 395 888 q 215 700 252 790 q 178 488 178 610 q 216 265 178 356 q 325 130 253 175 q 495 84 396 84 q 691 150 617 84 q 781 342 766 217 q 795 356 783 356 l 898 356 q 908 351 905 356 q 910 339 911 347 q 775 72 883 161 q 498 -17 668 -17 m 442 1059 q 428 1072 428 1059 l 428 1179 q 432 1189 428 1185 q 442 1192 436 1192 l 544 1192 q 554 1189 550 1192 q 558 1179 558 1185 l 558 1072 q 554 1063 558 1066 q 544 1059 550 1059 l 442 1059 z "},"D":{"ha":931,"x_min":74,"x_max":888,"o":"m 88 0 q 74 14 74 0 l 81 501 l 74 958 q 88 972 74 972 l 396 972 q 648 916 537 972 q 824 750 760 859 q 888 487 888 640 q 822 218 888 328 q 644 54 756 108 q 399 0 533 0 l 88 0 m 204 503 l 210 99 l 410 99 q 578 140 500 99 q 705 269 656 182 q 753 487 753 356 q 707 700 753 613 q 582 830 661 787 q 404 874 503 874 l 210 874 l 204 503 z "},"Ð":{"ha":947,"x_min":-8,"x_max":903,"o":"m 410 972 q 664 916 552 972 q 839 749 775 859 q 903 487 903 640 q 836 218 903 328 q 659 54 770 108 q 413 0 548 0 l 103 0 q 90 14 90 0 l 95 473 l 6 473 q -8 486 -8 473 l -8 558 q 6 571 -8 571 l 95 571 l 90 958 q 103 972 90 972 l 410 972 m 424 99 q 593 140 515 99 q 720 269 672 182 q 769 487 769 356 q 723 700 769 613 q 597 830 676 787 q 419 874 517 874 l 225 874 l 221 571 l 479 571 q 493 558 493 571 l 493 486 q 489 476 493 480 q 479 473 485 473 l 219 473 l 225 99 l 424 99 z "},"Ď":{"ha":931,"x_min":74,"x_max":888,"o":"m 88 0 q 74 14 74 0 l 81 501 l 74 958 q 88 972 74 972 l 396 972 q 648 916 537 972 q 824 750 760 859 q 888 487 888 640 q 822 218 888 328 q 644 54 756 108 q 399 0 533 0 l 88 0 m 204 503 l 210 99 l 410 99 q 578 140 500 99 q 705 269 656 182 q 753 487 753 356 q 707 700 753 613 q 582 830 661 787 q 404 874 503 874 l 210 874 l 204 503 m 232 1167 q 224 1177 224 1171 q 226 1185 224 1181 l 243 1224 q 253 1233 246 1233 q 260 1231 257 1233 l 449 1145 l 638 1231 q 645 1233 642 1233 q 656 1225 653 1233 l 673 1185 q 674 1178 674 1182 q 667 1167 674 1171 l 485 1057 q 467 1052 478 1052 l 431 1052 q 415 1057 421 1052 l 232 1167 z "},"Đ":{"ha":947,"x_min":-8,"x_max":903,"o":"m 410 972 q 664 916 552 972 q 839 749 775 859 q 903 487 903 640 q 836 218 903 328 q 659 54 770 108 q 413 0 548 0 l 103 0 q 90 14 90 0 l 95 473 l 6 473 q -8 486 -8 473 l -8 558 q 6 571 -8 571 l 95 571 l 90 958 q 103 972 90 972 l 410 972 m 424 99 q 593 140 515 99 q 720 269 672 182 q 769 487 769 356 q 723 700 769 613 q 597 830 676 787 q 419 874 517 874 l 225 874 l 221 571 l 479 571 q 493 558 493 571 l 493 486 q 489 476 493 480 q 479 473 485 473 l 219 473 l 225 99 l 424 99 z "},"E":{"ha":744,"x_min":74,"x_max":699,"o":"m 88 0 q 74 14 74 0 l 81 503 l 74 958 q 88 972 74 972 l 674 972 q 684 968 680 972 q 688 958 688 965 l 688 888 q 684 877 688 881 q 674 874 680 874 l 208 874 l 203 568 l 640 568 q 650 565 647 568 q 654 555 654 561 l 654 483 q 650 474 654 477 q 640 470 647 470 l 203 470 l 208 99 l 685 99 q 695 95 692 99 q 699 85 699 91 l 699 14 q 695 4 699 8 q 685 0 691 0 l 88 0 z "},"É":{"ha":744,"x_min":74,"x_max":699,"o":"m 88 0 q 74 14 74 0 l 81 503 l 74 958 q 88 972 74 972 l 674 972 q 684 968 680 972 q 688 958 688 965 l 688 888 q 684 877 688 881 q 674 874 680 874 l 208 874 l 203 568 l 640 568 q 650 565 647 568 q 654 555 654 561 l 654 483 q 650 474 654 477 q 640 470 647 470 l 203 470 l 208 99 l 685 99 q 695 95 692 99 q 699 85 699 91 l 699 14 q 695 4 699 8 q 685 0 691 0 l 88 0 m 276 1049 q 272 1049 274 1049 q 259 1058 263 1049 l 245 1096 q 244 1102 244 1100 q 252 1114 244 1110 l 551 1253 q 558 1255 555 1255 q 568 1246 565 1255 l 592 1175 q 594 1169 594 1171 q 584 1158 594 1161 l 276 1049 z "},"Ĕ":{"ha":744,"x_min":74,"x_max":699,"o":"m 88 0 q 74 14 74 0 l 81 503 l 74 958 q 88 972 74 972 l 674 972 q 684 968 680 972 q 688 958 688 965 l 688 888 q 684 877 688 881 q 674 874 680 874 l 208 874 l 203 568 l 640 568 q 650 565 647 568 q 654 555 654 561 l 654 483 q 650 474 654 477 q 640 470 647 470 l 203 470 l 208 99 l 685 99 q 695 95 692 99 q 699 85 699 91 l 699 14 q 695 4 699 8 q 685 0 691 0 l 88 0 m 394 1056 q 294 1078 338 1056 q 226 1141 251 1101 q 198 1231 201 1181 l 198 1233 q 201 1242 198 1238 q 211 1245 205 1245 l 271 1245 q 285 1231 283 1245 q 317 1166 289 1190 q 394 1142 346 1142 q 468 1166 440 1142 q 501 1231 497 1191 q 516 1245 503 1245 l 576 1245 q 586 1242 583 1245 q 589 1233 590 1238 q 561 1142 586 1182 q 493 1078 537 1101 q 394 1056 450 1056 z "},"Ě":{"ha":744,"x_min":74,"x_max":699,"o":"m 88 0 q 74 14 74 0 l 81 503 l 74 958 q 88 972 74 972 l 674 972 q 684 968 680 972 q 688 958 688 965 l 688 888 q 684 877 688 881 q 674 874 680 874 l 208 874 l 203 568 l 640 568 q 650 565 647 568 q 654 555 654 561 l 654 483 q 650 474 654 477 q 640 470 647 470 l 203 470 l 208 99 l 685 99 q 695 95 692 99 q 699 85 699 91 l 699 14 q 695 4 699 8 q 685 0 691 0 l 88 0 m 175 1167 q 167 1177 167 1171 q 169 1185 167 1181 l 186 1224 q 197 1233 189 1233 q 203 1231 200 1233 l 392 1145 l 581 1231 q 588 1233 585 1233 q 599 1225 596 1233 l 616 1185 q 617 1178 617 1182 q 610 1167 617 1171 l 428 1057 q 410 1052 422 1052 l 374 1052 q 358 1057 364 1052 l 175 1167 z "},"Ê":{"ha":744,"x_min":74,"x_max":699,"o":"m 88 0 q 74 14 74 0 l 81 503 l 74 958 q 88 972 74 972 l 674 972 q 684 968 680 972 q 688 958 688 965 l 688 888 q 684 877 688 881 q 674 874 680 874 l 208 874 l 203 568 l 640 568 q 650 565 647 568 q 654 555 654 561 l 654 483 q 650 474 654 477 q 640 470 647 470 l 203 470 l 208 99 l 685 99 q 695 95 692 99 q 699 85 699 91 l 699 14 q 695 4 699 8 q 685 0 691 0 l 88 0 m 169 1099 q 167 1106 167 1102 q 174 1118 167 1114 l 357 1229 q 374 1233 364 1233 l 411 1233 q 428 1229 422 1233 l 611 1118 q 618 1106 618 1114 q 617 1099 618 1102 l 599 1060 q 589 1051 597 1051 q 582 1053 584 1051 l 392 1140 l 203 1053 q 196 1051 200 1051 q 185 1060 189 1051 l 169 1099 z "},"Ế":{"ha":744,"x_min":74,"x_max":741,"o":"m 88 0 q 74 14 74 0 l 81 503 l 74 958 q 88 972 74 972 l 674 972 q 684 968 680 972 q 688 958 688 965 l 688 888 q 684 877 688 881 q 674 874 680 874 l 208 874 l 203 568 l 640 568 q 650 565 647 568 q 654 555 654 561 l 654 483 q 650 474 654 477 q 640 470 647 470 l 203 470 l 208 99 l 685 99 q 695 95 692 99 q 699 85 699 91 l 699 14 q 695 4 699 8 q 685 0 691 0 l 88 0 m 571 1186 q 561 1181 566 1181 q 551 1185 557 1181 l 520 1213 q 515 1224 515 1219 q 518 1233 515 1228 l 668 1422 q 678 1428 672 1428 q 688 1423 683 1428 l 736 1378 q 741 1368 741 1374 q 737 1359 741 1363 l 571 1186 m 169 1073 q 167 1080 167 1076 q 174 1091 167 1087 l 357 1202 q 374 1207 365 1207 l 411 1207 q 428 1202 421 1207 l 611 1091 q 618 1080 618 1087 q 617 1073 618 1076 l 599 1033 q 589 1024 596 1024 q 582 1026 584 1024 l 392 1113 l 203 1026 q 197 1024 200 1024 q 185 1033 190 1024 l 169 1073 z "},"Ệ":{"ha":744,"x_min":74,"x_max":699,"o":"m 88 0 q 74 14 74 0 l 81 503 l 74 958 q 88 972 74 972 l 674 972 q 684 968 680 972 q 688 958 688 965 l 688 888 q 684 877 688 881 q 674 874 680 874 l 208 874 l 203 568 l 640 568 q 650 565 647 568 q 654 555 654 561 l 654 483 q 650 474 654 477 q 640 470 647 470 l 203 470 l 208 99 l 685 99 q 695 95 692 99 q 699 85 699 91 l 699 14 q 695 4 699 8 q 685 0 691 0 l 88 0 m 169 1099 q 167 1106 167 1102 q 174 1118 167 1114 l 357 1229 q 374 1233 364 1233 l 411 1233 q 428 1229 422 1233 l 611 1118 q 618 1106 618 1114 q 617 1099 618 1102 l 599 1060 q 589 1051 597 1051 q 582 1053 584 1051 l 392 1140 l 203 1053 q 196 1051 200 1051 q 185 1060 189 1051 l 169 1099 z "},"Ề":{"ha":744,"x_min":74,"x_max":699,"o":"m 88 0 q 74 14 74 0 l 81 503 l 74 958 q 88 972 74 972 l 674 972 q 684 968 680 972 q 688 958 688 965 l 688 888 q 684 877 688 881 q 674 874 680 874 l 208 874 l 203 568 l 640 568 q 650 565 647 568 q 654 555 654 561 l 654 483 q 650 474 654 477 q 640 470 647 470 l 203 470 l 208 99 l 685 99 q 695 95 692 99 q 699 85 699 91 l 699 14 q 695 4 699 8 q 685 0 691 0 l 88 0 m 581 1185 q 572 1181 576 1181 q 561 1185 567 1181 l 395 1358 q 391 1368 391 1363 q 396 1378 391 1373 l 444 1422 q 454 1427 451 1427 q 464 1421 460 1427 l 614 1232 q 617 1223 617 1228 q 613 1213 617 1217 l 581 1185 m 169 1073 q 167 1080 167 1076 q 174 1091 167 1087 l 357 1202 q 374 1207 365 1207 l 411 1207 q 428 1202 421 1207 l 611 1091 q 618 1080 618 1087 q 617 1073 618 1076 l 599 1033 q 589 1024 597 1024 q 582 1026 584 1024 l 392 1113 l 203 1026 q 197 1024 199 1024 q 185 1033 190 1024 l 169 1073 z "},"Ể":{"ha":744,"x_min":74,"x_max":719,"o":"m 88 0 q 74 14 74 0 l 81 503 l 74 958 q 88 972 74 972 l 674 972 q 684 968 680 972 q 688 958 688 965 l 688 888 q 684 877 688 881 q 674 874 680 874 l 208 874 l 203 568 l 640 568 q 650 565 647 568 q 654 555 654 561 l 654 483 q 650 474 654 477 q 640 470 647 470 l 203 470 l 208 99 l 685 99 q 695 95 692 99 q 699 85 699 91 l 699 14 q 695 4 699 8 q 685 0 691 0 l 88 0 z "},"Ễ":{"ha":744,"x_min":74,"x_max":699,"o":"m 88 0 q 74 14 74 0 l 81 503 l 74 958 q 88 972 74 972 l 674 972 q 684 968 680 972 q 688 958 688 965 l 688 888 q 684 877 688 881 q 674 874 680 874 l 208 874 l 203 568 l 640 568 q 650 565 647 568 q 654 555 654 561 l 654 483 q 650 474 654 477 q 640 470 647 470 l 203 470 l 208 99 l 685 99 q 695 95 692 99 q 699 85 699 91 l 699 14 q 695 4 699 8 q 685 0 691 0 l 88 0 z "},"Ë":{"ha":744,"x_min":74,"x_max":699,"o":"m 88 0 q 74 14 74 0 l 81 503 l 74 958 q 88 972 74 972 l 674 972 q 684 968 680 972 q 688 958 688 965 l 688 888 q 684 877 688 881 q 674 874 680 874 l 208 874 l 203 568 l 640 568 q 650 565 647 568 q 654 555 654 561 l 654 483 q 650 474 654 477 q 640 470 647 470 l 203 470 l 208 99 l 685 99 q 695 95 692 99 q 699 85 699 91 l 699 14 q 695 4 699 8 q 685 0 691 0 l 88 0 m 240 1059 q 230 1063 233 1059 q 226 1072 226 1066 l 226 1179 q 230 1189 226 1185 q 240 1192 233 1192 l 326 1192 q 340 1179 340 1192 l 340 1072 q 336 1063 340 1066 q 326 1059 332 1059 l 240 1059 m 460 1059 q 447 1072 447 1059 l 447 1179 q 460 1192 447 1192 l 547 1192 q 557 1189 553 1192 q 560 1179 560 1185 l 560 1072 q 557 1063 560 1066 q 547 1059 553 1059 l 460 1059 z "},"Ė":{"ha":744,"x_min":74,"x_max":699,"o":"m 88 0 q 74 14 74 0 l 81 503 l 74 958 q 88 972 74 972 l 674 972 q 684 968 680 972 q 688 958 688 965 l 688 888 q 684 877 688 881 q 674 874 680 874 l 208 874 l 203 568 l 640 568 q 650 565 647 568 q 654 555 654 561 l 654 483 q 650 474 654 477 q 640 470 647 470 l 203 470 l 208 99 l 685 99 q 695 95 692 99 q 699 85 699 91 l 699 14 q 695 4 699 8 q 685 0 691 0 l 88 0 m 342 1059 q 328 1072 328 1059 l 328 1179 q 332 1189 328 1185 q 342 1192 336 1192 l 444 1192 q 454 1189 450 1192 q 458 1179 458 1185 l 458 1072 q 454 1063 458 1066 q 444 1059 450 1059 l 342 1059 z "},"Ẹ":{"ha":744,"x_min":74,"x_max":699,"o":"m 88 0 q 74 14 74 0 l 81 503 l 74 958 q 88 972 74 972 l 674 972 q 684 968 680 972 q 688 958 688 965 l 688 888 q 684 877 688 881 q 674 874 680 874 l 208 874 l 203 568 l 640 568 q 650 565 647 568 q 654 555 654 561 l 654 483 q 650 474 654 477 q 640 470 647 470 l 203 470 l 208 99 l 685 99 q 695 95 692 99 q 699 85 699 91 l 699 14 q 695 4 699 8 q 685 0 691 0 l 88 0 z "},"È":{"ha":744,"x_min":74,"x_max":699,"o":"m 88 0 q 74 14 74 0 l 81 503 l 74 958 q 88 972 74 972 l 674 972 q 684 968 680 972 q 688 958 688 965 l 688 888 q 684 877 688 881 q 674 874 680 874 l 208 874 l 203 568 l 640 568 q 650 565 647 568 q 654 555 654 561 l 654 483 q 650 474 654 477 q 640 470 647 470 l 203 470 l 208 99 l 685 99 q 695 95 692 99 q 699 85 699 91 l 699 14 q 695 4 699 8 q 685 0 691 0 l 88 0 m 517 1058 q 505 1049 514 1049 q 499 1049 501 1049 l 192 1158 q 184 1164 186 1160 q 183 1175 181 1169 l 208 1247 q 219 1256 212 1256 q 226 1253 222 1256 l 524 1115 q 533 1103 533 1110 q 531 1097 533 1101 l 517 1058 z "},"Ẻ":{"ha":744,"x_min":74,"x_max":699,"o":"m 88 0 q 74 14 74 0 l 81 503 l 74 958 q 88 972 74 972 l 674 972 q 684 968 680 972 q 688 958 688 965 l 688 888 q 684 877 688 881 q 674 874 680 874 l 208 874 l 203 568 l 640 568 q 650 565 647 568 q 654 555 654 561 l 654 483 q 650 474 654 477 q 640 470 647 470 l 203 470 l 208 99 l 685 99 q 695 95 692 99 q 699 85 699 91 l 699 14 q 695 4 699 8 q 685 0 691 0 l 88 0 m 360 1057 q 350 1061 354 1057 q 348 1072 347 1065 q 368 1115 351 1099 q 413 1149 384 1131 q 448 1172 437 1162 q 458 1199 458 1183 q 443 1229 458 1217 q 399 1241 427 1241 q 354 1230 371 1241 q 333 1198 338 1218 q 318 1185 329 1185 l 258 1185 q 248 1189 251 1185 q 245 1199 244 1192 q 292 1280 252 1251 q 400 1308 333 1308 q 509 1279 468 1308 q 549 1201 549 1250 q 533 1150 549 1169 q 485 1113 516 1132 q 455 1090 465 1099 q 440 1069 444 1081 q 426 1057 437 1057 l 360 1057 z "},"Ē":{"ha":744,"x_min":74,"x_max":699,"o":"m 88 0 q 74 14 74 0 l 81 503 l 74 958 q 88 972 74 972 l 674 972 q 684 968 680 972 q 688 958 688 965 l 688 888 q 684 877 688 881 q 674 874 680 874 l 208 874 l 203 568 l 640 568 q 650 565 647 568 q 654 555 654 561 l 654 483 q 650 474 654 477 q 640 470 647 470 l 203 470 l 208 99 l 685 99 q 695 95 692 99 q 699 85 699 91 l 699 14 q 695 4 699 8 q 685 0 691 0 l 88 0 m 203 1083 q 189 1097 189 1083 l 189 1160 q 193 1169 189 1166 q 203 1173 197 1173 l 581 1173 q 591 1169 588 1173 q 595 1160 595 1166 l 595 1097 q 591 1087 595 1090 q 581 1083 588 1083 l 203 1083 z "},"Ę":{"ha":744,"x_min":74,"x_max":708,"o":"m 694 -176 q 705 -180 701 -176 q 708 -190 708 -183 l 708 -251 q 705 -260 708 -257 q 694 -264 701 -264 l 627 -264 q 537 -248 576 -264 q 476 -202 498 -231 q 455 -133 455 -172 q 532 0 455 -54 l 88 0 q 74 14 74 0 l 81 503 l 74 958 q 88 972 74 972 l 674 972 q 684 968 680 972 q 688 958 688 965 l 688 888 q 684 877 688 881 q 674 874 680 874 l 208 874 l 203 568 l 640 568 q 650 565 647 568 q 654 555 654 561 l 654 483 q 650 474 654 477 q 640 470 647 470 l 203 470 l 208 99 l 685 99 q 695 95 692 99 q 699 85 699 91 l 699 14 q 695 4 699 8 q 685 0 691 0 l 622 0 q 576 -46 596 -17 q 556 -110 556 -76 q 578 -160 556 -143 q 638 -176 600 -176 l 694 -176 z "},"Ẽ":{"ha":744,"x_min":74,"x_max":699,"o":"m 88 0 q 74 14 74 0 l 81 503 l 74 958 q 88 972 74 972 l 674 972 q 684 968 680 972 q 688 958 688 965 l 688 888 q 684 877 688 881 q 674 874 680 874 l 208 874 l 203 568 l 640 568 q 650 565 647 568 q 654 555 654 561 l 654 483 q 650 474 654 477 q 640 470 647 470 l 203 470 l 208 99 l 685 99 q 695 95 692 99 q 699 85 699 91 l 699 14 q 695 4 699 8 q 685 0 691 0 l 88 0 m 470 1065 q 418 1079 439 1065 q 372 1120 397 1093 q 343 1149 355 1140 q 317 1158 331 1158 q 269 1084 273 1158 q 256 1071 268 1071 l 212 1071 q 198 1085 198 1071 q 231 1193 201 1152 q 315 1234 260 1234 q 368 1219 347 1234 q 414 1177 390 1205 q 441 1150 429 1159 q 465 1141 452 1141 q 516 1215 513 1141 q 530 1228 516 1228 l 574 1228 q 587 1211 588 1228 q 554 1104 583 1143 q 470 1065 525 1065 z "},"F":{"ha":706,"x_min":74,"x_max":670,"o":"m 88 0 q 74 14 74 0 l 81 485 l 74 958 q 88 972 74 972 l 656 972 q 666 968 663 972 q 670 958 670 965 l 670 888 q 666 877 670 881 q 656 874 663 874 l 208 874 l 203 525 l 633 525 q 647 512 647 525 l 647 440 q 643 431 647 434 q 633 427 640 427 l 203 427 l 208 14 q 195 0 208 0 l 88 0 z "},"G":{"ha":964,"x_min":44,"x_max":921,"o":"m 490 -17 q 258 45 360 -17 q 100 222 157 108 q 44 487 44 336 q 100 753 44 639 q 257 928 156 867 q 488 990 358 990 q 756 909 650 990 q 896 678 861 829 q 897 673 897 676 q 884 663 897 663 l 778 663 q 763 674 766 663 q 668 835 740 780 q 488 890 597 890 q 324 841 394 890 q 216 702 254 793 q 178 485 178 610 q 217 271 178 362 q 327 132 256 181 q 493 83 399 83 q 650 122 585 83 q 748 234 715 161 q 783 406 782 307 l 493 406 q 483 410 487 406 q 480 420 480 414 l 480 490 q 483 500 480 496 q 493 503 487 503 l 906 503 q 919 487 919 503 q 872 211 921 324 q 726 41 822 99 q 490 -17 629 -17 z "},"Ğ":{"ha":964,"x_min":44,"x_max":921,"o":"m 490 -17 q 258 45 360 -17 q 100 222 157 108 q 44 487 44 336 q 100 753 44 639 q 257 928 156 867 q 488 990 358 990 q 756 909 650 990 q 896 678 861 829 q 897 673 897 676 q 884 663 897 663 l 778 663 q 763 674 766 663 q 668 835 740 780 q 488 890 597 890 q 324 841 394 890 q 216 702 254 793 q 178 485 178 610 q 217 271 178 362 q 327 132 256 181 q 493 83 399 83 q 650 122 585 83 q 748 234 715 161 q 783 406 782 307 l 493 406 q 483 410 487 406 q 480 420 480 414 l 480 490 q 483 500 480 496 q 493 503 487 503 l 906 503 q 919 487 919 503 q 872 211 921 324 q 726 41 822 99 q 490 -17 629 -17 m 483 1056 q 383 1078 426 1056 q 315 1141 340 1101 q 287 1231 290 1181 l 287 1233 q 290 1242 287 1238 q 300 1245 294 1245 l 360 1245 q 374 1231 372 1245 q 406 1166 378 1190 q 483 1142 435 1142 q 557 1166 528 1142 q 590 1231 586 1191 q 605 1245 592 1245 l 665 1245 q 675 1242 672 1245 q 678 1233 678 1238 q 650 1142 675 1182 q 582 1078 626 1101 q 483 1056 539 1056 z "},"Ĝ":{"ha":964,"x_min":44,"x_max":921,"o":"m 490 -17 q 258 45 360 -17 q 100 222 157 108 q 44 487 44 336 q 100 753 44 639 q 257 928 156 867 q 488 990 358 990 q 756 909 650 990 q 896 678 861 829 q 897 673 897 676 q 884 663 897 663 l 778 663 q 763 674 766 663 q 668 835 740 780 q 488 890 597 890 q 324 841 394 890 q 216 702 254 793 q 178 485 178 610 q 217 271 178 362 q 327 132 256 181 q 493 83 399 83 q 650 122 585 83 q 748 234 715 161 q 783 406 782 307 l 493 406 q 483 410 487 406 q 480 420 480 414 l 480 490 q 483 500 480 496 q 493 503 487 503 l 906 503 q 919 487 919 503 q 872 211 921 324 q 726 41 822 99 q 490 -17 629 -17 m 258 1099 q 256 1106 256 1102 q 263 1118 256 1114 l 446 1229 q 463 1233 453 1233 l 500 1233 q 517 1229 510 1233 l 700 1118 q 707 1106 707 1114 q 706 1099 707 1102 l 688 1060 q 678 1051 685 1051 q 671 1053 673 1051 l 481 1140 l 292 1053 q 285 1051 289 1051 q 274 1060 278 1051 l 258 1099 z "},"Ģ":{"ha":964,"x_min":44,"x_max":921,"o":"m 490 -17 q 258 45 360 -17 q 100 222 157 108 q 44 487 44 336 q 100 753 44 639 q 257 928 156 867 q 488 990 358 990 q 756 909 650 990 q 896 678 861 829 q 897 673 897 676 q 884 663 897 663 l 778 663 q 763 674 766 663 q 668 835 740 780 q 488 890 597 890 q 324 841 394 890 q 216 702 254 793 q 178 485 178 610 q 217 271 178 362 q 327 132 256 181 q 493 83 399 83 q 650 122 585 83 q 748 234 715 161 q 783 406 782 307 l 493 406 q 483 410 487 406 q 480 420 480 414 l 480 490 q 483 500 480 496 q 493 503 487 503 l 906 503 q 919 487 919 503 q 872 211 921 324 q 726 41 822 99 q 490 -17 629 -17 m 419 -312 q 410 -308 413 -312 q 409 -297 408 -304 l 436 -192 l 436 -87 q 440 -77 436 -81 q 450 -74 444 -74 l 528 -74 q 542 -87 542 -74 l 542 -182 q 538 -199 542 -191 l 474 -303 q 458 -312 469 -312 l 419 -312 z "},"Ġ":{"ha":964,"x_min":44,"x_max":921,"o":"m 490 -17 q 258 45 360 -17 q 100 222 157 108 q 44 487 44 336 q 100 753 44 639 q 257 928 156 867 q 488 990 358 990 q 756 909 650 990 q 896 678 861 829 q 897 673 897 676 q 884 663 897 663 l 778 663 q 763 674 766 663 q 668 835 740 780 q 488 890 597 890 q 324 841 394 890 q 216 702 254 793 q 178 485 178 610 q 217 271 178 362 q 327 132 256 181 q 493 83 399 83 q 650 122 585 83 q 748 234 715 161 q 783 406 782 307 l 493 406 q 483 410 487 406 q 480 420 480 414 l 480 490 q 483 500 480 496 q 493 503 487 503 l 906 503 q 919 487 919 503 q 872 211 921 324 q 726 41 822 99 q 490 -17 629 -17 m 431 1059 q 417 1072 417 1059 l 417 1179 q 421 1189 417 1185 q 431 1192 425 1192 l 533 1192 q 543 1189 539 1192 q 547 1179 547 1185 l 547 1072 q 543 1063 547 1066 q 533 1059 539 1059 l 431 1059 z "},"H":{"ha":926,"x_min":74,"x_max":852,"o":"m 845 481 l 852 14 q 838 0 852 0 l 731 0 q 717 14 717 0 l 722 458 l 722 473 l 203 473 l 203 458 l 209 14 q 196 0 209 0 l 88 0 q 74 14 74 0 l 81 481 l 74 958 q 88 972 74 972 l 196 972 q 209 958 209 972 l 204 571 l 722 571 l 717 958 q 731 972 717 972 l 838 972 q 852 958 852 972 l 845 481 z "},"Ħ":{"ha":935,"x_min":-3,"x_max":939,"o":"m 926 783 q 939 770 939 783 l 939 699 q 926 685 939 685 l 853 685 l 852 481 l 856 14 q 842 0 856 0 l 737 0 q 724 14 724 0 l 726 408 l 726 424 l 210 424 l 210 408 l 213 14 q 199 0 213 0 l 94 0 q 81 14 81 0 l 84 481 l 83 685 l 10 685 q 0 689 4 685 q -3 699 -3 692 l -3 770 q 0 780 -3 776 q 10 783 4 783 l 82 783 l 81 958 q 94 972 81 972 l 199 972 q 213 958 213 972 l 211 783 l 724 783 l 724 958 q 737 972 724 972 l 842 972 q 856 958 856 972 l 854 783 l 926 783 m 210 685 l 210 522 l 726 522 l 725 685 l 210 685 z "},"Ĥ":{"ha":926,"x_min":74,"x_max":852,"o":"m 845 481 l 852 14 q 838 0 852 0 l 731 0 q 717 14 717 0 l 722 458 l 722 473 l 203 473 l 203 458 l 209 14 q 196 0 209 0 l 88 0 q 74 14 74 0 l 81 481 l 74 958 q 88 972 74 972 l 196 972 q 209 958 209 972 l 204 571 l 722 571 l 717 958 q 731 972 717 972 l 838 972 q 852 958 852 972 l 845 481 m 240 1099 q 238 1106 238 1102 q 245 1118 238 1114 l 428 1229 q 444 1233 435 1233 l 482 1233 q 499 1229 492 1233 l 682 1118 q 689 1106 689 1114 q 688 1099 689 1102 l 670 1060 q 660 1051 667 1051 q 653 1053 655 1051 l 463 1140 l 274 1053 q 267 1051 271 1051 q 256 1060 260 1051 l 240 1099 z "},"I":{"ha":296,"x_min":81,"x_max":215,"o":"m 94 0 q 81 14 81 0 l 88 496 l 81 958 q 94 972 81 972 l 201 972 q 215 958 215 972 l 208 496 l 215 14 q 201 0 215 0 l 94 0 z "},"Ĳ":{"ha":981,"x_min":81,"x_max":919,"o":"m 94 0 q 81 14 81 0 l 88 496 l 81 958 q 94 972 81 972 l 201 972 q 215 958 215 972 l 208 496 l 215 14 q 201 0 215 0 l 94 0 m 618 -19 q 399 72 472 -19 q 323 334 326 164 q 337 348 323 348 l 436 348 q 449 334 449 348 q 489 146 451 209 q 619 83 527 83 q 719 114 683 83 q 771 201 756 144 q 786 345 785 258 l 788 622 l 783 958 q 796 972 783 972 l 906 972 q 919 958 919 972 l 915 622 l 916 344 q 618 -19 919 -19 z "},"Í":{"ha":296,"x_min":-1,"x_max":349,"o":"m 94 0 q 81 14 81 0 l 88 496 l 81 958 q 94 972 81 972 l 201 972 q 215 958 215 972 l 208 496 l 215 14 q 201 0 215 0 l 94 0 m 32 1049 q 27 1049 30 1049 q 15 1058 19 1049 l 1 1096 q -1 1102 -1 1100 q 8 1114 -1 1110 l 306 1253 q 313 1255 310 1255 q 324 1246 320 1255 l 348 1175 q 349 1169 349 1171 q 340 1158 349 1161 l 32 1049 z "},"Ĭ":{"ha":296,"x_min":-47,"x_max":345,"o":"m 94 0 q 81 14 81 0 l 88 496 l 81 958 q 94 972 81 972 l 201 972 q 215 958 215 972 l 208 496 l 215 14 q 201 0 215 0 l 94 0 m 149 1056 q 50 1078 93 1056 q -18 1141 6 1101 q -47 1231 -43 1181 l -47 1233 q -43 1242 -47 1238 q -33 1245 -40 1245 l 26 1245 q 41 1231 39 1245 q 73 1166 44 1190 q 149 1142 101 1142 q 224 1166 195 1142 q 257 1231 253 1191 q 272 1245 259 1245 l 332 1245 q 342 1242 338 1245 q 344 1233 345 1238 q 317 1142 342 1182 q 249 1078 292 1101 q 149 1056 206 1056 z "},"Î":{"ha":296,"x_min":-77,"x_max":374,"o":"m 94 0 q 81 14 81 0 l 88 496 l 81 958 q 94 972 81 972 l 201 972 q 215 958 215 972 l 208 496 l 215 14 q 201 0 215 0 l 94 0 m -76 1099 q -77 1106 -77 1102 q -70 1118 -77 1114 l 113 1229 q 129 1233 119 1233 l 167 1233 q 184 1229 177 1233 l 367 1118 q 374 1106 374 1114 q 372 1099 374 1102 l 355 1060 q 344 1051 352 1051 q 338 1053 340 1051 l 147 1140 l -42 1053 q -49 1051 -44 1051 q -59 1060 -56 1051 l -76 1099 z "},"Ï":{"ha":296,"x_min":-19,"x_max":316,"o":"m 94 0 q 81 14 81 0 l 88 496 l 81 958 q 94 972 81 972 l 201 972 q 215 958 215 972 l 208 496 l 215 14 q 201 0 215 0 l 94 0 m -5 1059 q -15 1063 -11 1059 q -19 1072 -19 1066 l -19 1179 q -15 1189 -19 1185 q -5 1192 -11 1192 l 81 1192 q 95 1179 95 1192 l 95 1072 q 91 1063 95 1066 q 81 1059 88 1059 l -5 1059 m 215 1059 q 202 1072 202 1059 l 202 1179 q 215 1192 202 1192 l 302 1192 q 312 1189 308 1192 q 316 1179 316 1185 l 316 1072 q 312 1063 316 1066 q 302 1059 308 1059 l 215 1059 z "},"İ":{"ha":296,"x_min":81,"x_max":215,"o":"m 94 0 q 81 14 81 0 l 88 496 l 81 958 q 94 972 81 972 l 201 972 q 215 958 215 972 l 208 496 l 215 14 q 201 0 215 0 l 94 0 m 98 1059 q 84 1072 84 1059 l 84 1179 q 88 1189 84 1185 q 98 1192 92 1192 l 199 1192 q 209 1189 206 1192 q 213 1179 213 1185 l 213 1072 q 209 1063 213 1066 q 199 1059 206 1059 l 98 1059 z "},"Ị":{"ha":296,"x_min":81,"x_max":215,"o":"m 94 0 q 81 14 81 0 l 88 496 l 81 958 q 94 972 81 972 l 201 972 q 215 958 215 972 l 208 496 l 215 14 q 201 0 215 0 l 94 0 z "},"Ì":{"ha":296,"x_min":-63,"x_max":288,"o":"m 94 0 q 81 14 81 0 l 88 496 l 81 958 q 94 972 81 972 l 201 972 q 215 958 215 972 l 208 496 l 215 14 q 201 0 215 0 l 94 0 m 272 1058 q 260 1049 269 1049 q 255 1049 257 1049 l -53 1158 q -61 1164 -58 1160 q -61 1175 -63 1169 l -36 1247 q -26 1256 -33 1256 q -19 1253 -23 1256 l 279 1115 q 288 1103 288 1110 q 287 1097 288 1101 l 272 1058 z "},"Ỉ":{"ha":296,"x_min":0,"x_max":305,"o":"m 94 0 q 81 14 81 0 l 88 496 l 81 958 q 94 972 81 972 l 201 972 q 215 958 215 972 l 208 496 l 215 14 q 201 0 215 0 l 94 0 m 116 1057 q 106 1061 110 1057 q 103 1072 102 1065 q 123 1115 107 1099 q 169 1149 140 1131 q 203 1172 192 1162 q 214 1199 214 1183 q 198 1229 214 1217 q 154 1241 183 1241 q 110 1230 126 1241 q 88 1198 93 1218 q 74 1185 85 1185 l 13 1185 q 3 1189 7 1185 q 1 1199 0 1192 q 48 1280 8 1251 q 156 1308 88 1308 q 264 1279 224 1308 q 305 1201 305 1250 q 288 1150 305 1169 q 241 1113 272 1132 q 210 1090 221 1099 q 196 1069 199 1081 q 182 1057 192 1057 l 116 1057 z "},"Ī":{"ha":296,"x_min":-56,"x_max":351,"o":"m 94 0 q 81 14 81 0 l 88 496 l 81 958 q 94 972 81 972 l 201 972 q 215 958 215 972 l 208 496 l 215 14 q 201 0 215 0 l 94 0 m -42 1083 q -56 1097 -56 1083 l -56 1160 q -52 1169 -56 1166 q -42 1173 -48 1173 l 337 1173 q 347 1169 343 1173 q 351 1160 351 1166 l 351 1097 q 347 1087 351 1090 q 337 1083 343 1083 l -42 1083 z "},"Į":{"ha":296,"x_min":-3,"x_max":251,"o":"m 237 -176 q 247 -180 243 -176 q 251 -190 251 -183 l 251 -251 q 247 -260 251 -257 q 237 -264 243 -264 l 169 -264 q 80 -248 119 -264 q 19 -202 40 -231 q -3 -133 -3 -172 q 20 -55 -3 -90 q 83 6 44 -19 q 81 14 81 9 l 88 496 l 81 958 q 94 972 81 972 l 201 972 q 215 958 215 972 l 208 496 l 215 14 q 201 0 215 0 l 164 0 q 118 -46 138 -17 q 98 -110 98 -76 q 120 -160 98 -143 q 180 -176 142 -176 l 237 -176 z "},"Ĩ":{"ha":296,"x_min":-47,"x_max":343,"o":"m 94 0 q 81 14 81 0 l 88 496 l 81 958 q 94 972 81 972 l 201 972 q 215 958 215 972 l 208 496 l 215 14 q 201 0 215 0 l 94 0 m 226 1065 q 174 1079 194 1065 q 128 1120 153 1093 q 99 1149 110 1140 q 72 1158 87 1158 q 25 1084 28 1158 q 11 1071 24 1071 l -33 1071 q -47 1085 -47 1071 q -14 1193 -44 1152 q 71 1234 16 1234 q 124 1219 103 1234 q 169 1177 145 1205 q 196 1150 185 1159 q 221 1141 208 1141 q 272 1215 268 1141 q 285 1228 272 1228 l 329 1228 q 342 1211 343 1228 q 310 1104 339 1143 q 226 1065 281 1065 z "},"J":{"ha":685,"x_min":27,"x_max":624,"o":"m 322 -19 q 103 72 176 -19 q 27 334 31 164 q 41 348 27 348 l 140 348 q 153 334 153 348 q 193 146 156 209 q 323 83 231 83 q 424 114 387 83 q 475 201 460 144 q 490 345 490 258 l 492 622 l 487 958 q 500 972 487 972 l 610 972 q 624 958 624 972 l 619 622 l 620 344 q 322 -19 624 -19 z "},"Ĵ":{"ha":685,"x_min":27,"x_max":781,"o":"m 322 -19 q 103 72 176 -19 q 27 334 31 164 q 41 348 27 348 l 140 348 q 153 334 153 348 q 193 146 156 209 q 323 83 231 83 q 424 114 387 83 q 475 201 460 144 q 490 345 490 258 l 492 622 l 487 958 q 500 972 487 972 l 610 972 q 624 958 624 972 l 619 622 l 620 344 q 322 -19 624 -19 m 332 1099 q 331 1106 331 1102 q 338 1118 331 1114 l 520 1229 q 537 1233 527 1233 l 574 1233 q 592 1229 585 1233 l 774 1118 q 781 1106 781 1114 q 780 1099 781 1102 l 763 1060 q 752 1051 760 1051 q 745 1053 747 1051 l 555 1140 l 366 1053 q 359 1051 363 1051 q 349 1060 352 1051 l 332 1099 z "},"K":{"ha":790,"x_min":74,"x_max":780,"o":"m 777 17 q 780 9 780 13 q 768 0 780 0 l 639 0 q 622 9 628 0 l 313 483 l 205 355 l 208 14 q 194 0 208 0 l 88 0 q 74 14 74 0 l 81 501 l 74 958 q 88 972 74 972 l 194 972 q 208 958 208 972 l 203 541 l 203 513 l 563 964 q 580 972 569 972 l 703 972 q 711 970 708 972 q 714 965 714 968 q 710 956 714 961 l 397 585 l 777 17 z "},"Ķ":{"ha":790,"x_min":74,"x_max":780,"o":"m 777 17 q 780 9 780 13 q 768 0 780 0 l 639 0 q 622 9 628 0 l 313 483 l 205 355 l 208 14 q 194 0 208 0 l 88 0 q 74 14 74 0 l 81 501 l 74 958 q 88 972 74 972 l 194 972 q 208 958 208 972 l 203 541 l 203 513 l 563 964 q 580 972 569 972 l 703 972 q 711 970 708 972 q 714 965 714 968 q 710 956 714 961 l 397 585 l 777 17 m 335 -312 q 326 -308 328 -312 q 324 -297 323 -304 l 351 -192 l 351 -87 q 355 -77 351 -81 q 365 -74 359 -74 l 444 -74 q 458 -87 458 -74 l 458 -182 q 453 -199 458 -191 l 390 -303 q 374 -312 385 -312 l 335 -312 z "},"L":{"ha":663,"x_min":74,"x_max":650,"o":"m 88 0 q 74 14 74 0 l 81 511 l 74 958 q 88 972 74 972 l 195 972 q 208 958 208 972 l 203 517 l 208 99 l 636 99 q 647 95 643 99 q 650 85 650 91 l 650 14 q 646 4 650 8 q 636 0 642 0 l 88 0 z "},"Ĺ":{"ha":663,"x_min":13,"x_max":650,"o":"m 88 0 q 74 14 74 0 l 81 511 l 74 958 q 88 972 74 972 l 195 972 q 208 958 208 972 l 203 517 l 208 99 l 636 99 q 647 95 643 99 q 650 85 650 91 l 650 14 q 646 4 650 8 q 636 0 642 0 l 88 0 m 45 1049 q 40 1049 43 1049 q 28 1058 32 1049 l 14 1096 q 13 1102 13 1100 q 21 1114 13 1110 l 319 1253 q 326 1255 324 1255 q 337 1246 333 1255 l 361 1175 q 363 1169 363 1171 q 353 1158 363 1161 l 45 1049 z "},"Ľ":{"ha":663,"x_min":74,"x_max":650,"o":"m 88 0 q 74 14 74 0 l 81 511 l 74 958 q 88 972 74 972 l 195 972 q 208 958 208 972 l 203 517 l 208 99 l 636 99 q 647 95 643 99 q 650 85 650 91 l 650 14 q 646 4 650 8 q 636 0 642 0 l 88 0 m 374 699 q 359 687 371 687 l 302 687 q 292 691 295 687 q 290 702 288 695 l 339 960 q 353 972 341 972 l 434 972 q 444 968 441 972 q 445 957 447 964 l 374 699 z "},"Ļ":{"ha":663,"x_min":74,"x_max":650,"o":"m 88 0 q 74 14 74 0 l 81 511 l 74 958 q 88 972 74 972 l 195 972 q 208 958 208 972 l 203 517 l 208 99 l 636 99 q 647 95 643 99 q 650 85 650 91 l 650 14 q 646 4 650 8 q 636 0 642 0 l 88 0 m 308 -312 q 299 -308 301 -312 q 297 -297 296 -304 l 324 -192 l 324 -87 q 328 -77 324 -81 q 338 -74 332 -74 l 417 -74 q 431 -87 431 -74 l 431 -182 q 426 -199 431 -191 l 363 -303 q 347 -312 358 -312 l 308 -312 z "},"Ŀ":{"ha":663,"x_min":74,"x_max":650,"o":"m 88 0 q 74 14 74 0 l 81 511 l 74 958 q 88 972 74 972 l 195 972 q 208 958 208 972 l 203 517 l 208 99 l 636 99 q 647 95 643 99 q 650 85 650 91 l 650 14 q 646 4 650 8 q 636 0 642 0 l 88 0 m 426 484 q 413 497 413 484 l 413 604 q 416 614 413 610 q 426 617 420 617 l 528 617 q 538 614 534 617 q 542 604 542 610 l 542 497 q 538 488 542 491 q 528 484 534 484 l 426 484 z "},"Ł":{"ha":671,"x_min":-3,"x_max":667,"o":"m 439 600 l 444 601 q 452 598 449 601 q 455 589 455 594 l 455 517 q 444 501 455 505 l 220 431 l 225 99 l 653 99 q 663 95 659 99 q 667 85 667 91 l 667 14 q 663 4 667 8 q 653 0 659 0 l 104 0 q 91 14 91 0 l 96 390 l 13 364 l 8 363 q 0 366 3 363 q -3 375 -3 369 l -3 448 q 8 463 -3 459 l 97 491 l 91 958 q 104 972 91 972 l 212 972 q 225 958 225 972 l 220 531 l 439 600 z "},"M":{"ha":1111,"x_min":74,"x_max":1037,"o":"m 88 0 q 74 14 74 0 l 80 476 l 75 958 q 88 972 75 972 l 240 972 q 256 961 251 972 l 565 164 l 865 961 q 881 972 869 972 l 1023 972 q 1036 958 1036 972 l 1031 476 l 1037 14 q 1024 0 1037 0 l 919 0 q 909 3 913 0 q 905 14 905 7 l 906 403 l 911 799 l 613 11 q 597 0 608 0 l 515 0 q 499 11 503 0 l 189 812 l 194 403 l 196 14 q 192 3 196 7 q 182 0 188 0 l 88 0 z "},"N":{"ha":935,"x_min":74,"x_max":860,"o":"m 88 0 q 74 14 74 0 l 80 494 l 75 958 q 88 972 75 972 l 217 972 q 233 963 228 972 l 741 173 l 738 534 l 736 958 q 749 972 736 972 l 847 972 q 860 958 860 972 l 855 494 l 860 14 q 847 0 860 0 l 712 0 q 695 9 700 0 l 194 790 l 198 431 l 199 14 q 195 3 199 7 q 185 0 192 0 l 88 0 z "},"Ń":{"ha":935,"x_min":74,"x_max":860,"o":"m 88 0 q 74 14 74 0 l 80 494 l 75 958 q 88 972 75 972 l 217 972 q 233 963 228 972 l 741 173 l 738 534 l 736 958 q 749 972 736 972 l 847 972 q 860 958 860 972 l 855 494 l 860 14 q 847 0 860 0 l 712 0 q 695 9 700 0 l 194 790 l 198 431 l 199 14 q 195 3 199 7 q 185 0 192 0 l 88 0 m 357 1049 q 352 1049 355 1049 q 340 1058 344 1049 l 326 1096 q 324 1102 324 1100 q 333 1114 324 1110 l 631 1253 q 638 1255 635 1255 q 649 1246 645 1255 l 673 1175 q 674 1169 674 1171 q 665 1158 674 1161 l 357 1049 z "},"Ň":{"ha":935,"x_min":74,"x_max":860,"o":"m 88 0 q 74 14 74 0 l 80 494 l 75 958 q 88 972 75 972 l 217 972 q 233 963 228 972 l 741 173 l 738 534 l 736 958 q 749 972 736 972 l 847 972 q 860 958 860 972 l 855 494 l 860 14 q 847 0 860 0 l 712 0 q 695 9 700 0 l 194 790 l 198 431 l 199 14 q 195 3 199 7 q 185 0 192 0 l 88 0 m 256 1167 q 248 1177 248 1171 q 250 1185 248 1181 l 267 1224 q 277 1233 269 1233 q 284 1231 281 1233 l 473 1145 l 662 1231 q 669 1233 665 1233 q 679 1225 676 1233 l 697 1185 q 698 1178 698 1182 q 691 1167 698 1171 l 508 1057 q 491 1052 502 1052 l 455 1052 q 438 1057 444 1052 l 256 1167 z "},"Ņ":{"ha":935,"x_min":74,"x_max":860,"o":"m 88 0 q 74 14 74 0 l 80 494 l 75 958 q 88 972 75 972 l 217 972 q 233 963 228 972 l 741 173 l 738 534 l 736 958 q 749 972 736 972 l 847 972 q 860 958 860 972 l 855 494 l 860 14 q 847 0 860 0 l 712 0 q 695 9 700 0 l 194 790 l 198 431 l 199 14 q 195 3 199 7 q 185 0 192 0 l 88 0 m 399 -312 q 390 -308 393 -312 q 389 -297 388 -304 l 416 -192 l 416 -87 q 420 -77 416 -81 q 430 -74 424 -74 l 508 -74 q 522 -87 522 -74 l 522 -182 q 517 -199 522 -191 l 454 -303 q 438 -312 449 -312 l 399 -312 z "},"Ŋ":{"ha":933,"x_min":74,"x_max":858,"o":"m 88 0 q 74 14 74 0 l 77 494 l 75 958 q 88 972 75 972 l 215 972 q 232 963 226 972 l 738 218 l 736 482 l 735 958 q 748 972 735 972 l 844 972 q 858 958 858 972 l 856 537 l 858 -40 q 831 -160 858 -113 q 762 -229 804 -208 q 672 -251 720 -250 q 578 -240 627 -251 q 567 -226 567 -237 l 567 -160 q 570 -150 567 -153 q 581 -149 574 -147 q 644 -155 606 -155 q 713 -125 689 -155 q 736 -30 736 -96 l 736 -2 l 194 798 l 197 483 l 198 14 q 194 3 198 7 q 184 0 190 0 l 88 0 z "},"Ñ":{"ha":935,"x_min":74,"x_max":860,"o":"m 88 0 q 74 14 74 0 l 80 494 l 75 958 q 88 972 75 972 l 217 972 q 233 963 228 972 l 741 173 l 738 534 l 736 958 q 749 972 736 972 l 847 972 q 860 958 860 972 l 855 494 l 860 14 q 847 0 860 0 l 712 0 q 695 9 700 0 l 194 790 l 198 431 l 199 14 q 195 3 199 7 q 185 0 192 0 l 88 0 m 551 1065 q 499 1079 519 1065 q 453 1120 478 1093 q 424 1149 435 1140 q 397 1158 412 1158 q 350 1084 353 1158 q 336 1071 349 1071 l 292 1071 q 278 1085 278 1071 q 311 1193 281 1152 q 396 1234 341 1234 q 449 1219 428 1234 q 494 1177 470 1205 q 521 1150 510 1159 q 546 1141 533 1141 q 597 1215 593 1141 q 610 1228 597 1228 l 654 1228 q 667 1211 668 1228 q 635 1104 664 1143 q 551 1065 606 1065 z "},"O":{"ha":1017,"x_min":44,"x_max":974,"o":"m 508 -17 q 264 45 369 -17 q 101 221 159 107 q 44 485 44 335 q 101 753 44 639 q 264 928 158 867 q 509 990 369 990 q 753 928 649 990 q 916 753 858 867 q 974 485 974 640 q 916 220 974 334 q 752 44 858 106 q 508 -17 647 -17 m 509 84 q 686 132 611 84 q 800 270 760 180 q 840 485 840 360 q 800 700 840 609 q 686 840 760 791 q 508 888 611 888 q 331 840 406 888 q 217 701 256 792 q 178 485 178 610 q 218 271 178 361 q 332 132 258 181 q 509 84 407 84 z "},"Ó":{"ha":1017,"x_min":44,"x_max":974,"o":"m 508 -17 q 264 45 369 -17 q 101 221 159 107 q 44 485 44 335 q 101 753 44 639 q 264 928 158 867 q 509 990 369 990 q 753 928 649 990 q 916 753 858 867 q 974 485 974 640 q 916 220 974 334 q 752 44 858 106 q 508 -17 647 -17 m 509 84 q 686 132 611 84 q 800 270 760 180 q 840 485 840 360 q 800 700 840 609 q 686 840 760 791 q 508 888 611 888 q 331 840 406 888 q 217 701 256 792 q 178 485 178 610 q 218 271 178 361 q 332 132 258 181 q 509 84 407 84 m 393 1049 q 388 1049 391 1049 q 376 1058 380 1049 l 362 1096 q 360 1102 360 1100 q 369 1114 360 1110 l 667 1253 q 674 1255 672 1255 q 685 1246 681 1255 l 709 1175 q 710 1169 710 1171 q 701 1158 710 1161 l 393 1049 z "},"Ŏ":{"ha":1017,"x_min":44,"x_max":974,"o":"m 508 -17 q 264 45 369 -17 q 101 221 159 107 q 44 485 44 335 q 101 753 44 639 q 264 928 158 867 q 509 990 369 990 q 753 928 649 990 q 916 753 858 867 q 974 485 974 640 q 916 220 974 334 q 752 44 858 106 q 508 -17 647 -17 m 509 84 q 686 132 611 84 q 800 270 760 180 q 840 485 840 360 q 800 700 840 609 q 686 840 760 791 q 508 888 611 888 q 331 840 406 888 q 217 701 256 792 q 178 485 178 610 q 218 271 178 361 q 332 132 258 181 q 509 84 407 84 m 510 1056 q 411 1078 454 1056 q 343 1141 367 1101 q 315 1231 318 1181 l 315 1233 q 318 1242 315 1238 q 328 1245 322 1245 l 388 1245 q 402 1231 400 1245 q 434 1166 406 1190 q 510 1142 463 1142 q 585 1166 556 1142 q 618 1231 614 1191 q 633 1245 620 1245 l 693 1245 q 703 1242 699 1245 q 706 1233 706 1238 q 678 1142 703 1182 q 610 1078 653 1101 q 510 1056 567 1056 z "},"Ô":{"ha":1017,"x_min":44,"x_max":974,"o":"m 508 -17 q 264 45 369 -17 q 101 221 159 107 q 44 485 44 335 q 101 753 44 639 q 264 928 158 867 q 509 990 369 990 q 753 928 649 990 q 916 753 858 867 q 974 485 974 640 q 916 220 974 334 q 752 44 858 106 q 508 -17 647 -17 m 509 84 q 686 132 611 84 q 800 270 760 180 q 840 485 840 360 q 800 700 840 609 q 686 840 760 791 q 508 888 611 888 q 331 840 406 888 q 217 701 256 792 q 178 485 178 610 q 218 271 178 361 q 332 132 258 181 q 509 84 407 84 m 285 1099 q 284 1106 284 1102 q 291 1118 284 1114 l 474 1229 q 490 1233 481 1233 l 528 1233 q 545 1229 538 1233 l 728 1118 q 735 1106 735 1114 q 733 1099 735 1102 l 716 1060 q 706 1051 713 1051 q 699 1053 701 1051 l 508 1140 l 319 1053 q 313 1051 317 1051 q 302 1060 306 1051 l 285 1099 z "},"Ố":{"ha":1017,"x_min":44,"x_max":974,"o":"m 508 -17 q 264 45 369 -17 q 101 221 159 107 q 44 485 44 335 q 101 753 44 639 q 264 928 158 867 q 509 990 369 990 q 753 928 649 990 q 916 753 858 867 q 974 485 974 640 q 916 220 974 334 q 752 44 858 106 q 508 -17 647 -17 m 509 84 q 686 132 611 84 q 800 270 760 180 q 840 485 840 360 q 800 700 840 609 q 686 840 760 791 q 508 888 611 888 q 331 840 406 888 q 217 701 256 792 q 178 485 178 610 q 218 271 178 361 q 332 132 258 181 q 509 84 407 84 m 688 1186 q 678 1181 683 1181 q 668 1185 674 1181 l 637 1213 q 631 1224 631 1219 q 635 1233 631 1228 l 785 1422 q 794 1428 789 1428 q 804 1423 799 1428 l 853 1378 q 858 1368 858 1374 q 853 1359 858 1363 l 688 1186 m 285 1073 q 284 1080 284 1076 q 291 1091 284 1087 l 474 1202 q 490 1207 481 1207 l 528 1207 q 545 1202 538 1207 l 728 1091 q 735 1080 735 1087 q 733 1073 735 1076 l 716 1033 q 706 1024 713 1024 q 699 1026 701 1024 l 508 1113 l 319 1026 q 313 1024 317 1024 q 302 1033 306 1024 l 285 1073 z "},"Ộ":{"ha":1017,"x_min":44,"x_max":974,"o":"m 508 -17 q 264 45 369 -17 q 101 221 159 107 q 44 485 44 335 q 101 753 44 639 q 264 928 158 867 q 509 990 369 990 q 753 928 649 990 q 916 753 858 867 q 974 485 974 640 q 916 220 974 334 q 752 44 858 106 q 508 -17 647 -17 m 509 84 q 686 132 611 84 q 800 270 760 180 q 840 485 840 360 q 800 700 840 609 q 686 840 760 791 q 508 888 611 888 q 331 840 406 888 q 217 701 256 792 q 178 485 178 610 q 218 271 178 361 q 332 132 258 181 q 509 84 407 84 m 285 1099 q 284 1106 284 1102 q 291 1118 284 1114 l 474 1229 q 490 1233 481 1233 l 528 1233 q 545 1229 538 1233 l 728 1118 q 735 1106 735 1114 q 733 1099 735 1102 l 716 1060 q 706 1051 713 1051 q 699 1053 701 1051 l 508 1140 l 319 1053 q 313 1051 317 1051 q 302 1060 306 1051 l 285 1099 z "},"Ồ":{"ha":1017,"x_min":44,"x_max":974,"o":"m 508 -17 q 264 45 369 -17 q 101 221 159 107 q 44 485 44 335 q 101 753 44 639 q 264 928 158 867 q 509 990 369 990 q 753 928 649 990 q 916 753 858 867 q 974 485 974 640 q 916 220 974 334 q 752 44 858 106 q 508 -17 647 -17 m 509 84 q 686 132 611 84 q 800 270 760 180 q 840 485 840 360 q 800 700 840 609 q 686 840 760 791 q 508 888 611 888 q 331 840 406 888 q 217 701 256 792 q 178 485 178 610 q 218 271 178 361 q 332 132 258 181 q 509 84 407 84 m 697 1185 q 688 1181 693 1181 q 678 1185 684 1181 l 512 1358 q 508 1368 508 1363 q 513 1378 508 1373 l 561 1422 q 571 1427 567 1427 q 581 1421 576 1427 l 731 1232 q 734 1223 734 1228 q 729 1213 734 1217 l 697 1185 m 285 1073 q 284 1080 284 1076 q 291 1091 284 1087 l 474 1202 q 490 1207 481 1207 l 528 1207 q 545 1202 538 1207 l 728 1091 q 735 1080 735 1087 q 733 1073 735 1076 l 716 1033 q 706 1024 713 1024 q 699 1026 701 1024 l 508 1113 l 319 1026 q 313 1024 316 1024 q 302 1033 306 1024 l 285 1073 z "},"Ổ":{"ha":1017,"x_min":44,"x_max":974,"o":"m 508 -17 q 264 45 369 -17 q 101 221 159 107 q 44 485 44 335 q 101 753 44 639 q 264 928 158 867 q 509 990 369 990 q 753 928 649 990 q 916 753 858 867 q 974 485 974 640 q 916 220 974 334 q 752 44 858 106 q 508 -17 647 -17 m 509 84 q 686 132 611 84 q 800 270 760 180 q 840 485 840 360 q 800 700 840 609 q 686 840 760 791 q 508 888 611 888 q 331 840 406 888 q 217 701 256 792 q 178 485 178 610 q 218 271 178 361 q 332 132 258 181 q 509 84 407 84 z "},"Ỗ":{"ha":1017,"x_min":44,"x_max":974,"o":"m 508 -17 q 264 45 369 -17 q 101 221 159 107 q 44 485 44 335 q 101 753 44 639 q 264 928 158 867 q 509 990 369 990 q 753 928 649 990 q 916 753 858 867 q 974 485 974 640 q 916 220 974 334 q 752 44 858 106 q 508 -17 647 -17 m 509 84 q 686 132 611 84 q 800 270 760 180 q 840 485 840 360 q 800 700 840 609 q 686 840 760 791 q 508 888 611 888 q 331 840 406 888 q 217 701 256 792 q 178 485 178 610 q 218 271 178 361 q 332 132 258 181 q 509 84 407 84 z "},"Ö":{"ha":1017,"x_min":44,"x_max":974,"o":"m 508 -17 q 264 45 369 -17 q 101 221 159 107 q 44 485 44 335 q 101 753 44 639 q 264 928 158 867 q 509 990 369 990 q 753 928 649 990 q 916 753 858 867 q 974 485 974 640 q 916 220 974 334 q 752 44 858 106 q 508 -17 647 -17 m 509 84 q 686 132 611 84 q 800 270 760 180 q 840 485 840 360 q 800 700 840 609 q 686 840 760 791 q 508 888 611 888 q 331 840 406 888 q 217 701 256 792 q 178 485 178 610 q 218 271 178 361 q 332 132 258 181 q 509 84 407 84 m 356 1059 q 346 1063 350 1059 q 342 1072 342 1066 l 342 1179 q 346 1189 342 1185 q 356 1192 350 1192 l 442 1192 q 456 1179 456 1192 l 456 1072 q 452 1063 456 1066 q 442 1059 449 1059 l 356 1059 m 576 1059 q 563 1072 563 1059 l 563 1179 q 576 1192 563 1192 l 663 1192 q 673 1189 669 1192 q 677 1179 677 1185 l 677 1072 q 673 1063 677 1066 q 663 1059 669 1059 l 576 1059 z "},"Ọ":{"ha":1017,"x_min":44,"x_max":974,"o":"m 508 -17 q 264 45 369 -17 q 101 221 159 107 q 44 485 44 335 q 101 753 44 639 q 264 928 158 867 q 509 990 369 990 q 753 928 649 990 q 916 753 858 867 q 974 485 974 640 q 916 220 974 334 q 752 44 858 106 q 508 -17 647 -17 m 509 84 q 686 132 611 84 q 800 270 760 180 q 840 485 840 360 q 800 700 840 609 q 686 840 760 791 q 508 888 611 888 q 331 840 406 888 q 217 701 256 792 q 178 485 178 610 q 218 271 178 361 q 332 132 258 181 q 509 84 407 84 z "},"Ò":{"ha":1017,"x_min":44,"x_max":974,"o":"m 508 -17 q 264 45 369 -17 q 101 221 159 107 q 44 485 44 335 q 101 753 44 639 q 264 928 158 867 q 509 990 369 990 q 753 928 649 990 q 916 753 858 867 q 974 485 974 640 q 916 220 974 334 q 752 44 858 106 q 508 -17 647 -17 m 509 84 q 686 132 611 84 q 800 270 760 180 q 840 485 840 360 q 800 700 840 609 q 686 840 760 791 q 508 888 611 888 q 331 840 406 888 q 217 701 256 792 q 178 485 178 610 q 218 271 178 361 q 332 132 258 181 q 509 84 407 84 m 633 1058 q 622 1049 631 1049 q 616 1049 618 1049 l 308 1158 q 300 1164 303 1160 q 300 1175 298 1169 l 325 1247 q 335 1256 328 1256 q 342 1253 338 1256 l 640 1115 q 649 1103 649 1110 q 648 1097 649 1101 l 633 1058 z "},"Ỏ":{"ha":1017,"x_min":44,"x_max":974,"o":"m 508 -17 q 264 45 369 -17 q 101 221 159 107 q 44 485 44 335 q 101 753 44 639 q 264 928 158 867 q 509 990 369 990 q 753 928 649 990 q 916 753 858 867 q 974 485 974 640 q 916 220 974 334 q 752 44 858 106 q 508 -17 647 -17 m 509 84 q 686 132 611 84 q 800 270 760 180 q 840 485 840 360 q 800 700 840 609 q 686 840 760 791 q 508 888 611 888 q 331 840 406 888 q 217 701 256 792 q 178 485 178 610 q 218 271 178 361 q 332 132 258 181 q 509 84 407 84 m 477 1057 q 467 1061 471 1057 q 465 1072 463 1065 q 484 1115 468 1099 q 530 1149 501 1131 q 564 1172 553 1162 q 575 1199 575 1183 q 559 1229 575 1217 q 515 1241 544 1241 q 471 1230 488 1241 q 449 1198 454 1218 q 435 1185 446 1185 l 374 1185 q 365 1189 368 1185 q 362 1199 361 1192 q 409 1280 369 1251 q 517 1308 449 1308 q 625 1279 585 1308 q 666 1201 666 1250 q 649 1150 666 1169 q 602 1113 633 1132 q 571 1090 582 1099 q 557 1069 560 1081 q 543 1057 553 1057 l 477 1057 z "},"Ơ":{"ha":1017,"x_min":44,"x_max":974,"o":"m 788 906 q 925 733 877 841 q 974 485 974 626 q 916 220 974 334 q 752 44 858 106 q 508 -17 647 -17 q 264 45 369 -17 q 101 221 159 107 q 44 485 44 335 q 101 753 44 639 q 264 928 158 867 q 509 990 369 990 q 715 949 623 990 l 842 1155 q 852 1163 846 1163 q 860 1160 856 1163 l 926 1122 q 933 1113 933 1118 q 930 1103 933 1108 l 788 906 m 509 84 q 686 132 611 84 q 800 270 760 180 q 840 485 840 360 q 800 700 840 609 q 686 840 760 791 q 508 888 611 888 q 331 840 406 888 q 217 701 256 792 q 178 485 178 610 q 218 271 178 361 q 332 132 258 181 q 509 84 407 84 z "},"Ớ":{"ha":1017,"x_min":44,"x_max":974,"o":"m 788 906 q 925 733 877 841 q 974 485 974 626 q 916 220 974 334 q 752 44 858 106 q 508 -17 647 -17 q 264 45 369 -17 q 101 221 159 107 q 44 485 44 335 q 101 753 44 639 q 264 928 158 867 q 509 990 369 990 q 715 949 623 990 l 842 1155 q 852 1163 846 1163 q 860 1160 856 1163 l 926 1122 q 933 1113 933 1118 q 930 1103 933 1108 l 788 906 m 509 84 q 686 132 611 84 q 800 270 760 180 q 840 485 840 360 q 800 700 840 609 q 686 840 760 791 q 508 888 611 888 q 331 840 406 888 q 217 701 256 792 q 178 485 178 610 q 218 271 178 361 q 332 132 258 181 q 509 84 407 84 m 383 1049 q 378 1049 381 1049 q 365 1058 369 1049 l 351 1096 q 350 1102 350 1100 q 358 1114 350 1110 l 657 1253 q 664 1255 661 1255 q 674 1246 671 1255 l 699 1175 q 700 1169 700 1171 q 690 1158 700 1161 l 383 1049 z "},"Ợ":{"ha":1017,"x_min":44,"x_max":974,"o":"m 788 906 q 925 733 877 841 q 974 485 974 626 q 916 220 974 334 q 752 44 858 106 q 508 -17 647 -17 q 264 45 369 -17 q 101 221 159 107 q 44 485 44 335 q 101 753 44 639 q 264 928 158 867 q 509 990 369 990 q 715 949 623 990 l 842 1155 q 852 1163 846 1163 q 860 1160 856 1163 l 926 1122 q 933 1113 933 1118 q 930 1103 933 1108 l 788 906 m 509 84 q 686 132 611 84 q 800 270 760 180 q 840 485 840 360 q 800 700 840 609 q 686 840 760 791 q 508 888 611 888 q 331 840 406 888 q 217 701 256 792 q 178 485 178 610 q 218 271 178 361 q 332 132 258 181 q 509 84 407 84 z "},"Ờ":{"ha":1017,"x_min":44,"x_max":974,"o":"m 788 906 q 925 733 877 841 q 974 485 974 626 q 916 220 974 334 q 752 44 858 106 q 508 -17 647 -17 q 264 45 369 -17 q 101 221 159 107 q 44 485 44 335 q 101 753 44 639 q 264 928 158 867 q 509 990 369 990 q 715 949 623 990 l 842 1155 q 852 1163 846 1163 q 860 1160 856 1163 l 926 1122 q 933 1113 933 1118 q 930 1103 933 1108 l 788 906 m 509 84 q 686 132 611 84 q 800 270 760 180 q 840 485 840 360 q 800 700 840 609 q 686 840 760 791 q 508 888 611 888 q 331 840 406 888 q 217 701 256 792 q 178 485 178 610 q 218 271 178 361 q 332 132 258 181 q 509 84 407 84 m 633 1058 q 622 1049 631 1049 q 616 1049 618 1049 l 308 1158 q 300 1164 303 1160 q 300 1175 298 1169 l 325 1247 q 335 1256 328 1256 q 342 1253 338 1256 l 640 1115 q 649 1103 649 1110 q 648 1097 649 1101 l 633 1058 z "},"Ở":{"ha":1017,"x_min":44,"x_max":974,"o":"m 788 906 q 925 733 877 841 q 974 485 974 626 q 916 220 974 334 q 752 44 858 106 q 508 -17 647 -17 q 264 45 369 -17 q 101 221 159 107 q 44 485 44 335 q 101 753 44 639 q 264 928 158 867 q 509 990 369 990 q 715 949 623 990 l 842 1155 q 852 1163 846 1163 q 860 1160 856 1163 l 926 1122 q 933 1113 933 1118 q 930 1103 933 1108 l 788 906 m 509 84 q 686 132 611 84 q 800 270 760 180 q 840 485 840 360 q 800 700 840 609 q 686 840 760 791 q 508 888 611 888 q 331 840 406 888 q 217 701 256 792 q 178 485 178 610 q 218 271 178 361 q 332 132 258 181 q 509 84 407 84 m 477 1057 q 467 1061 471 1057 q 465 1072 463 1065 q 484 1115 468 1099 q 530 1149 501 1131 q 564 1172 553 1162 q 575 1199 575 1183 q 559 1229 575 1217 q 515 1241 544 1241 q 471 1230 488 1241 q 449 1198 454 1218 q 435 1185 446 1185 l 374 1185 q 365 1189 368 1185 q 362 1199 361 1192 q 409 1280 369 1251 q 517 1308 449 1308 q 625 1279 585 1308 q 666 1201 666 1250 q 649 1150 666 1169 q 602 1113 633 1132 q 571 1090 582 1099 q 557 1069 560 1081 q 543 1057 553 1057 l 477 1057 z "},"Ỡ":{"ha":1017,"x_min":44,"x_max":974,"o":"m 788 906 q 925 733 877 841 q 974 485 974 626 q 916 220 974 334 q 752 44 858 106 q 508 -17 647 -17 q 264 45 369 -17 q 101 221 159 107 q 44 485 44 335 q 101 753 44 639 q 264 928 158 867 q 509 990 369 990 q 715 949 623 990 l 842 1155 q 852 1163 846 1163 q 860 1160 856 1163 l 926 1122 q 933 1113 933 1118 q 930 1103 933 1108 l 788 906 m 509 84 q 686 132 611 84 q 800 270 760 180 q 840 485 840 360 q 800 700 840 609 q 686 840 760 791 q 508 888 611 888 q 331 840 406 888 q 217 701 256 792 q 178 485 178 610 q 218 271 178 361 q 332 132 258 181 q 509 84 407 84 m 584 1065 q 532 1079 553 1065 q 486 1120 511 1093 q 457 1149 469 1140 q 431 1158 445 1158 q 383 1084 387 1158 q 369 1071 382 1071 l 326 1071 q 312 1085 312 1071 q 344 1193 315 1152 q 429 1234 374 1234 q 482 1219 461 1234 q 528 1177 503 1205 q 555 1150 543 1159 q 579 1141 566 1141 q 630 1215 626 1141 q 644 1228 630 1228 l 688 1228 q 701 1211 701 1228 q 668 1104 697 1143 q 584 1065 639 1065 z "},"Ő":{"ha":1017,"x_min":44,"x_max":974,"o":"m 508 -17 q 264 45 369 -17 q 101 221 159 107 q 44 485 44 335 q 101 753 44 639 q 264 928 158 867 q 509 990 369 990 q 753 928 649 990 q 916 753 858 867 q 974 485 974 640 q 916 220 974 334 q 752 44 858 106 q 508 -17 647 -17 m 509 84 q 686 132 611 84 q 800 270 760 180 q 840 485 840 360 q 800 700 840 609 q 686 840 760 791 q 508 888 611 888 q 331 840 406 888 q 217 701 256 792 q 178 485 178 610 q 218 271 178 361 q 332 132 258 181 q 509 84 407 84 m 407 1073 q 397 1068 403 1068 q 388 1072 392 1068 l 363 1094 q 357 1104 357 1100 q 360 1113 357 1108 l 517 1322 q 526 1328 522 1328 q 536 1324 530 1328 l 583 1277 q 588 1268 588 1272 q 583 1258 588 1265 l 407 1073 m 602 1069 q 592 1065 598 1065 q 583 1069 588 1065 l 557 1090 q 552 1100 552 1094 q 556 1109 552 1103 l 712 1318 q 722 1324 716 1324 q 731 1319 726 1324 l 778 1274 q 783 1264 783 1269 q 778 1255 783 1259 l 602 1069 z "},"Ō":{"ha":1017,"x_min":44,"x_max":974,"o":"m 508 -17 q 264 45 369 -17 q 101 221 159 107 q 44 485 44 335 q 101 753 44 639 q 264 928 158 867 q 509 990 369 990 q 753 928 649 990 q 916 753 858 867 q 974 485 974 640 q 916 220 974 334 q 752 44 858 106 q 508 -17 647 -17 m 509 84 q 686 132 611 84 q 800 270 760 180 q 840 485 840 360 q 800 700 840 609 q 686 840 760 791 q 508 888 611 888 q 331 840 406 888 q 217 701 256 792 q 178 485 178 610 q 218 271 178 361 q 332 132 258 181 q 509 84 407 84 m 319 1083 q 306 1097 306 1083 l 306 1160 q 309 1169 306 1166 q 319 1173 313 1173 l 698 1173 q 708 1169 704 1173 q 712 1160 712 1166 l 712 1097 q 708 1087 712 1090 q 698 1083 704 1083 l 319 1083 z "},"Ø":{"ha":1017,"x_min":44,"x_max":974,"o":"m 870 827 q 947 675 920 762 q 974 485 974 589 q 916 220 974 334 q 752 44 858 106 q 508 -17 647 -17 q 355 6 426 -17 q 228 74 284 29 l 130 -42 q 120 -47 124 -47 q 110 -42 115 -47 l 49 15 q 44 24 44 19 q 48 34 44 28 l 147 149 q 70 299 97 214 q 44 485 44 385 q 101 753 44 639 q 264 928 158 867 q 509 990 369 990 q 661 967 591 990 q 788 901 732 944 l 888 1018 q 897 1024 892 1024 q 906 1019 901 1024 l 968 962 q 973 952 973 957 q 969 942 973 948 l 870 827 m 508 888 q 331 840 406 888 q 217 701 256 792 q 178 485 178 610 q 237 240 178 338 l 722 810 q 627 868 681 848 q 508 888 573 888 m 509 84 q 686 132 611 84 q 800 270 760 180 q 840 485 840 360 q 780 735 840 634 l 293 164 q 389 105 334 125 q 509 84 443 84 z "},"Õ":{"ha":1017,"x_min":44,"x_max":974,"o":"m 508 -17 q 264 45 369 -17 q 101 221 159 107 q 44 485 44 335 q 101 753 44 639 q 264 928 158 867 q 509 990 369 990 q 753 928 649 990 q 916 753 858 867 q 974 485 974 640 q 916 220 974 334 q 752 44 858 106 q 508 -17 647 -17 m 509 84 q 686 132 611 84 q 800 270 760 180 q 840 485 840 360 q 800 700 840 609 q 686 840 760 791 q 508 888 611 888 q 331 840 406 888 q 217 701 256 792 q 178 485 178 610 q 218 271 178 361 q 332 132 258 181 q 509 84 407 84 m 587 1065 q 535 1079 556 1065 q 489 1120 514 1093 q 460 1149 472 1140 q 433 1158 448 1158 q 386 1084 390 1158 q 372 1071 385 1071 l 328 1071 q 315 1085 315 1071 q 347 1193 317 1152 q 432 1234 377 1234 q 485 1219 464 1234 q 531 1177 506 1205 q 557 1150 546 1159 q 582 1141 569 1141 q 633 1215 629 1141 q 647 1228 633 1228 l 690 1228 q 703 1211 704 1228 q 671 1104 700 1143 q 587 1065 642 1065 z "},"Œ":{"ha":1402,"x_min":57,"x_max":1360,"o":"m 1347 99 q 1357 95 1353 99 q 1360 85 1360 91 l 1360 14 q 1357 4 1360 8 q 1347 0 1353 0 l 546 0 q 300 54 411 0 q 123 218 189 108 q 57 487 57 328 q 121 750 57 640 q 296 916 185 859 q 549 972 408 972 l 1336 972 q 1346 968 1342 972 q 1349 958 1349 965 l 1349 888 q 1346 877 1349 881 q 1336 874 1342 874 l 869 874 l 867 568 l 1303 568 q 1316 555 1316 568 l 1316 483 q 1303 470 1316 470 l 867 470 l 869 99 l 1347 99 m 735 99 l 740 501 l 735 874 l 540 874 q 363 830 442 874 q 237 700 283 787 q 191 487 191 613 q 239 269 191 356 q 366 140 288 182 q 535 99 444 99 l 735 99 z "},"P":{"ha":782,"x_min":74,"x_max":751,"o":"m 405 972 q 660 897 568 972 q 751 678 751 822 q 709 511 751 578 q 589 409 667 443 q 407 375 512 375 l 204 375 l 208 14 q 195 0 208 0 l 88 0 q 74 14 74 0 l 80 499 l 74 958 q 88 972 74 972 l 405 972 m 415 472 q 569 520 514 472 q 624 676 624 569 q 569 825 624 776 q 409 875 513 875 l 207 875 l 203 502 l 203 472 l 415 472 z "},"Þ":{"ha":783,"x_min":74,"x_max":751,"o":"m 405 788 q 660 713 568 788 q 751 494 751 638 q 709 327 751 394 q 589 225 667 259 q 407 191 512 191 l 206 191 l 208 14 q 195 0 208 0 l 88 0 q 74 14 74 0 l 80 499 l 74 958 q 88 972 74 972 l 195 972 q 208 958 208 972 l 206 788 l 405 788 m 415 288 q 569 336 514 288 q 624 492 624 385 q 569 642 624 592 q 409 692 513 692 l 205 692 l 203 490 l 205 288 l 415 288 z "},"Q":{"ha":1019,"x_min":42,"x_max":983,"o":"m 970 103 q 980 99 976 103 q 983 89 983 95 l 983 14 q 980 4 983 8 q 970 0 976 0 l 642 0 q 506 -17 580 -17 q 262 45 367 -17 q 99 221 157 107 q 42 485 42 335 q 99 753 42 639 q 261 928 156 867 q 506 990 367 990 q 751 928 646 990 q 913 753 856 867 q 971 485 971 640 q 928 258 971 357 q 808 98 886 159 l 869 103 l 970 103 m 176 485 q 215 271 176 361 q 330 132 255 181 q 506 84 404 84 q 683 132 609 84 q 797 270 758 180 q 837 485 837 360 q 797 700 837 610 q 683 840 758 791 q 506 888 608 888 q 328 840 403 888 q 215 701 254 792 q 176 485 176 610 z "},"R":{"ha":838,"x_min":74,"x_max":802,"o":"m 799 17 q 802 8 802 13 q 799 2 802 5 q 790 0 796 0 l 669 0 q 653 9 658 0 l 559 163 l 409 401 l 204 401 l 208 14 q 195 0 208 0 l 88 0 q 74 14 74 0 l 80 501 l 74 958 q 88 972 74 972 l 427 972 q 691 900 597 972 q 785 688 785 827 q 722 505 785 574 q 546 413 659 435 l 799 17 m 207 875 l 203 515 l 203 497 l 441 497 q 600 543 542 497 q 658 686 658 590 q 600 827 658 778 q 439 875 543 875 l 207 875 z "},"Ŕ":{"ha":838,"x_min":74,"x_max":802,"o":"m 799 17 q 802 8 802 13 q 799 2 802 5 q 790 0 796 0 l 669 0 q 653 9 658 0 l 559 163 l 409 401 l 204 401 l 208 14 q 195 0 208 0 l 88 0 q 74 14 74 0 l 80 501 l 74 958 q 88 972 74 972 l 427 972 q 691 900 597 972 q 785 688 785 827 q 722 505 785 574 q 546 413 659 435 l 799 17 m 207 875 l 203 515 l 203 497 l 441 497 q 600 543 542 497 q 658 686 658 590 q 600 827 658 778 q 439 875 543 875 l 207 875 m 308 1049 q 303 1049 306 1049 q 291 1058 295 1049 l 277 1096 q 276 1102 276 1100 q 284 1114 276 1110 l 583 1253 q 590 1255 587 1255 q 600 1246 597 1255 l 624 1175 q 626 1169 626 1171 q 616 1158 626 1161 l 308 1049 z "},"Ř":{"ha":838,"x_min":74,"x_max":802,"o":"m 799 17 q 802 8 802 13 q 799 2 802 5 q 790 0 796 0 l 669 0 q 653 9 658 0 l 559 163 l 409 401 l 204 401 l 208 14 q 195 0 208 0 l 88 0 q 74 14 74 0 l 80 501 l 74 958 q 88 972 74 972 l 427 972 q 691 900 597 972 q 785 688 785 827 q 722 505 785 574 q 546 413 659 435 l 799 17 m 207 875 l 203 515 l 203 497 l 441 497 q 600 543 542 497 q 658 686 658 590 q 600 827 658 778 q 439 875 543 875 l 207 875 m 199 1167 q 192 1177 192 1171 q 194 1185 192 1181 l 210 1224 q 221 1233 213 1233 q 228 1231 224 1233 l 417 1145 l 606 1231 q 613 1233 609 1233 q 623 1225 620 1233 l 640 1185 q 642 1178 642 1182 q 635 1167 642 1171 l 452 1057 q 435 1052 446 1052 l 399 1052 q 382 1057 388 1052 l 199 1167 z "},"Ŗ":{"ha":838,"x_min":74,"x_max":802,"o":"m 799 17 q 802 8 802 13 q 799 2 802 5 q 790 0 796 0 l 669 0 q 653 9 658 0 l 559 163 l 409 401 l 204 401 l 208 14 q 195 0 208 0 l 88 0 q 74 14 74 0 l 80 501 l 74 958 q 88 972 74 972 l 427 972 q 691 900 597 972 q 785 688 785 827 q 722 505 785 574 q 546 413 659 435 l 799 17 m 207 875 l 203 515 l 203 497 l 441 497 q 600 543 542 497 q 658 686 658 590 q 600 827 658 778 q 439 875 543 875 l 207 875 m 361 -312 q 352 -308 355 -312 q 351 -297 349 -304 l 378 -192 l 378 -87 q 382 -77 378 -81 q 392 -74 385 -74 l 470 -74 q 484 -87 484 -74 l 484 -182 q 479 -199 484 -191 l 416 -303 q 400 -312 411 -312 l 361 -312 z "},"S":{"ha":857,"x_min":39,"x_max":819,"o":"m 441 -17 q 230 22 318 -17 q 93 137 142 61 q 39 321 44 213 l 39 322 q 52 335 39 335 l 160 335 q 174 322 172 335 q 246 144 183 204 q 444 83 309 83 q 625 128 559 83 q 691 269 691 174 q 654 362 691 328 q 561 413 617 397 q 410 448 506 430 q 226 492 295 469 q 107 567 156 515 q 58 712 58 619 q 102 861 58 799 q 226 956 146 924 q 414 989 306 989 q 682 916 583 989 q 796 698 780 844 l 796 697 q 783 683 796 683 l 675 683 q 660 697 663 683 q 590 840 652 792 q 411 888 528 888 q 246 847 307 888 q 185 723 185 806 q 220 638 185 669 q 308 592 256 607 q 454 560 361 576 q 644 515 572 538 q 768 436 717 491 q 819 283 819 381 q 771 119 819 186 q 638 17 724 51 q 441 -17 553 -17 z "},"Ś":{"ha":857,"x_min":39,"x_max":819,"o":"m 441 -17 q 230 22 318 -17 q 93 137 142 61 q 39 321 44 213 l 39 322 q 52 335 39 335 l 160 335 q 174 322 172 335 q 246 144 183 204 q 444 83 309 83 q 625 128 559 83 q 691 269 691 174 q 654 362 691 328 q 561 413 617 397 q 410 448 506 430 q 226 492 295 469 q 107 567 156 515 q 58 712 58 619 q 102 861 58 799 q 226 956 146 924 q 414 989 306 989 q 682 916 583 989 q 796 698 780 844 l 796 697 q 783 683 796 683 l 675 683 q 660 697 663 683 q 590 840 652 792 q 411 888 528 888 q 246 847 307 888 q 185 723 185 806 q 220 638 185 669 q 308 592 256 607 q 454 560 361 576 q 644 515 572 538 q 768 436 717 491 q 819 283 819 381 q 771 119 819 186 q 638 17 724 51 q 441 -17 553 -17 m 310 1049 q 306 1049 308 1049 q 293 1058 297 1049 l 279 1096 q 278 1102 278 1100 q 286 1114 278 1110 l 585 1253 q 592 1255 589 1255 q 602 1246 599 1255 l 626 1175 q 628 1169 628 1171 q 618 1158 628 1161 l 310 1049 z "},"Š":{"ha":857,"x_min":39,"x_max":819,"o":"m 441 -17 q 230 22 318 -17 q 93 137 142 61 q 39 321 44 213 l 39 322 q 52 335 39 335 l 160 335 q 174 322 172 335 q 246 144 183 204 q 444 83 309 83 q 625 128 559 83 q 691 269 691 174 q 654 362 691 328 q 561 413 617 397 q 410 448 506 430 q 226 492 295 469 q 107 567 156 515 q 58 712 58 619 q 102 861 58 799 q 226 956 146 924 q 414 989 306 989 q 682 916 583 989 q 796 698 780 844 l 796 697 q 783 683 796 683 l 675 683 q 660 697 663 683 q 590 840 652 792 q 411 888 528 888 q 246 847 307 888 q 185 723 185 806 q 220 638 185 669 q 308 592 256 607 q 454 560 361 576 q 644 515 572 538 q 768 436 717 491 q 819 283 819 381 q 771 119 819 186 q 638 17 724 51 q 441 -17 553 -17 m 209 1167 q 201 1177 201 1171 q 203 1185 201 1181 l 220 1224 q 231 1233 223 1233 q 238 1231 234 1233 l 426 1145 l 615 1231 q 622 1233 619 1233 q 633 1225 630 1233 l 650 1185 q 651 1178 651 1182 q 644 1167 651 1171 l 462 1057 q 444 1052 456 1052 l 408 1052 q 392 1057 398 1052 l 209 1167 z "},"Ş":{"ha":857,"x_min":39,"x_max":819,"o":"m 819 283 q 776 126 819 192 q 656 25 733 61 q 477 -16 579 -10 l 424 -226 q 419 -234 424 -232 q 408 -235 415 -237 l 317 -217 q 307 -206 307 -215 q 308 -200 307 -204 l 381 -14 q 134 86 223 0 q 39 321 46 172 l 39 322 q 52 335 39 335 l 160 335 q 174 322 172 335 q 246 144 183 204 q 444 83 309 83 q 625 128 559 83 q 691 269 691 174 q 654 362 691 328 q 561 413 617 397 q 410 448 506 430 q 226 492 295 469 q 107 567 156 515 q 58 712 58 619 q 102 861 58 799 q 226 956 146 924 q 414 989 306 989 q 682 916 583 989 q 796 698 780 844 l 796 697 q 783 683 796 683 l 675 683 q 660 697 663 683 q 590 840 652 792 q 411 888 528 888 q 246 847 307 888 q 185 723 185 806 q 220 638 185 669 q 308 592 256 607 q 454 560 361 576 q 644 515 572 538 q 768 436 717 491 q 819 283 819 381 z "},"Ŝ":{"ha":857,"x_min":39,"x_max":819,"o":"m 441 -17 q 230 22 318 -17 q 93 137 142 61 q 39 321 44 213 l 39 322 q 52 335 39 335 l 160 335 q 174 322 172 335 q 246 144 183 204 q 444 83 309 83 q 625 128 559 83 q 691 269 691 174 q 654 362 691 328 q 561 413 617 397 q 410 448 506 430 q 226 492 295 469 q 107 567 156 515 q 58 712 58 619 q 102 861 58 799 q 226 956 146 924 q 414 989 306 989 q 682 916 583 989 q 796 698 780 844 l 796 697 q 783 683 796 683 l 675 683 q 660 697 663 683 q 590 840 652 792 q 411 888 528 888 q 246 847 307 888 q 185 723 185 806 q 220 638 185 669 q 308 592 256 607 q 454 560 361 576 q 644 515 572 538 q 768 436 717 491 q 819 283 819 381 q 771 119 819 186 q 638 17 724 51 q 441 -17 553 -17 m 203 1099 q 201 1106 201 1102 q 208 1118 201 1114 l 391 1229 q 408 1233 398 1233 l 445 1233 q 463 1229 456 1233 l 645 1118 q 652 1106 652 1114 q 651 1099 652 1102 l 633 1060 q 623 1051 631 1051 q 616 1053 618 1051 l 426 1140 l 237 1053 q 230 1051 234 1051 q 219 1060 223 1051 l 203 1099 z "},"Ș":{"ha":857,"x_min":39,"x_max":819,"o":"m 441 -17 q 230 22 318 -17 q 93 137 142 61 q 39 321 44 213 l 39 322 q 52 335 39 335 l 160 335 q 174 322 172 335 q 246 144 183 204 q 444 83 309 83 q 625 128 559 83 q 691 269 691 174 q 654 362 691 328 q 561 413 617 397 q 410 448 506 430 q 226 492 295 469 q 107 567 156 515 q 58 712 58 619 q 102 861 58 799 q 226 956 146 924 q 414 989 306 989 q 682 916 583 989 q 796 698 780 844 l 796 697 q 783 683 796 683 l 675 683 q 660 697 663 683 q 590 840 652 792 q 411 888 528 888 q 246 847 307 888 q 185 723 185 806 q 220 638 185 669 q 308 592 256 607 q 454 560 361 576 q 644 515 572 538 q 768 436 717 491 q 819 283 819 381 q 771 119 819 186 q 638 17 724 51 q 441 -17 553 -17 m 365 -312 q 356 -308 358 -312 q 354 -297 353 -304 l 381 -192 l 381 -87 q 385 -77 381 -81 q 395 -74 389 -74 l 474 -74 q 488 -87 488 -74 l 488 -182 q 483 -199 488 -191 l 419 -303 q 403 -312 415 -312 l 365 -312 z "},"T":{"ha":731,"x_min":17,"x_max":714,"o":"m 310 0 q 297 14 297 0 l 304 481 l 298 873 l 31 873 q 20 876 24 873 q 17 886 17 880 l 17 958 q 20 968 17 965 q 31 972 24 972 l 701 972 q 710 968 707 972 q 714 958 714 965 l 714 886 q 701 873 714 873 l 433 873 l 426 481 l 434 14 q 421 0 434 0 l 310 0 z "},"Ŧ":{"ha":731,"x_min":17,"x_max":714,"o":"m 701 972 q 710 968 707 972 q 714 958 714 965 l 714 886 q 701 873 714 873 l 433 873 l 427 505 l 589 505 q 599 501 595 505 q 603 492 603 498 l 603 420 q 599 410 603 414 q 589 407 595 407 l 428 407 l 434 14 q 421 0 434 0 l 310 0 q 297 14 297 0 l 303 407 l 143 407 q 129 420 129 407 l 129 492 q 133 501 129 498 q 143 505 137 505 l 303 505 l 298 873 l 31 873 q 20 876 24 873 q 17 886 17 880 l 17 958 q 20 968 17 965 q 31 972 24 972 l 701 972 z "},"Ť":{"ha":731,"x_min":17,"x_max":714,"o":"m 310 0 q 297 14 297 0 l 304 481 l 298 873 l 31 873 q 20 876 24 873 q 17 886 17 880 l 17 958 q 20 968 17 965 q 31 972 24 972 l 701 972 q 710 968 707 972 q 714 958 714 965 l 714 886 q 701 873 714 873 l 433 873 l 426 481 l 434 14 q 421 0 434 0 l 310 0 m 148 1167 q 140 1177 140 1171 q 142 1185 140 1181 l 159 1224 q 169 1233 162 1233 q 176 1231 173 1233 l 365 1145 l 554 1231 q 561 1233 558 1233 q 572 1225 569 1233 l 589 1185 q 590 1178 590 1182 q 583 1167 590 1171 l 401 1057 q 383 1052 394 1052 l 347 1052 q 331 1057 337 1052 l 148 1167 z "},"Ţ":{"ha":731,"x_min":17,"x_max":714,"o":"m 701 972 q 710 968 707 972 q 714 958 714 965 l 714 886 q 701 873 714 873 l 433 873 l 426 481 l 434 14 q 421 0 434 0 l 411 0 l 357 -226 q 351 -234 356 -232 q 340 -235 347 -237 l 249 -217 q 239 -206 239 -215 q 240 -200 239 -204 l 316 0 l 310 0 q 297 14 297 0 l 304 481 l 298 873 l 31 873 q 20 876 24 873 q 17 886 17 880 l 17 958 q 20 968 17 965 q 31 972 24 972 l 701 972 z "},"Ț":{"ha":731,"x_min":17,"x_max":714,"o":"m 310 0 q 297 14 297 0 l 304 481 l 298 873 l 31 873 q 20 876 24 873 q 17 886 17 880 l 17 958 q 20 968 17 965 q 31 972 24 972 l 701 972 q 710 968 707 972 q 714 958 714 965 l 714 886 q 701 873 714 873 l 433 873 l 426 481 l 434 14 q 421 0 434 0 l 310 0 m 297 -312 q 288 -308 290 -312 q 286 -297 285 -304 l 313 -192 l 313 -87 q 317 -77 313 -81 q 327 -74 321 -74 l 406 -74 q 419 -87 419 -74 l 419 -182 q 415 -199 419 -191 l 351 -303 q 335 -312 347 -312 l 297 -312 z "},"U":{"ha":863,"x_min":69,"x_max":794,"o":"m 433 -17 q 163 83 255 -17 q 72 368 72 183 l 74 675 l 69 958 q 82 972 69 972 l 192 972 q 206 958 206 972 l 201 678 l 202 369 q 258 161 203 235 q 433 87 314 87 q 613 161 556 87 q 671 369 671 236 l 671 676 l 667 958 q 681 972 667 972 l 781 972 q 794 958 794 972 l 790 675 l 790 368 q 700 82 790 182 q 433 -17 610 -17 z "},"Ú":{"ha":863,"x_min":69,"x_max":794,"o":"m 433 -17 q 163 83 255 -17 q 72 368 72 183 l 74 675 l 69 958 q 82 972 69 972 l 192 972 q 206 958 206 972 l 201 678 l 202 369 q 258 161 203 235 q 433 87 314 87 q 613 161 556 87 q 671 369 671 236 l 671 676 l 667 958 q 681 972 667 972 l 781 972 q 794 958 794 972 l 790 675 l 790 368 q 700 82 790 182 q 433 -17 610 -17 m 320 1049 q 315 1049 318 1049 q 303 1058 307 1049 l 289 1096 q 288 1102 288 1100 q 296 1114 288 1110 l 594 1253 q 601 1255 599 1255 q 612 1246 608 1255 l 636 1175 q 638 1169 638 1171 q 628 1158 638 1161 l 320 1049 z "},"Ŭ":{"ha":863,"x_min":69,"x_max":794,"o":"m 433 -17 q 163 83 255 -17 q 72 368 72 183 l 74 675 l 69 958 q 82 972 69 972 l 192 972 q 206 958 206 972 l 201 678 l 202 369 q 258 161 203 235 q 433 87 314 87 q 613 161 556 87 q 671 369 671 236 l 671 676 l 667 958 q 681 972 667 972 l 781 972 q 794 958 794 972 l 790 675 l 790 368 q 700 82 790 182 q 433 -17 610 -17 m 438 1056 q 338 1078 381 1056 q 270 1141 294 1101 q 242 1231 245 1181 l 242 1233 q 245 1242 242 1238 q 255 1245 249 1245 l 315 1245 q 329 1231 327 1245 q 361 1166 333 1190 q 438 1142 390 1142 q 512 1166 483 1142 q 545 1231 541 1191 q 560 1245 547 1245 l 620 1245 q 630 1242 626 1245 q 633 1233 633 1238 q 605 1142 630 1182 q 537 1078 581 1101 q 438 1056 494 1056 z "},"Û":{"ha":863,"x_min":69,"x_max":794,"o":"m 433 -17 q 163 83 255 -17 q 72 368 72 183 l 74 675 l 69 958 q 82 972 69 972 l 192 972 q 206 958 206 972 l 201 678 l 202 369 q 258 161 203 235 q 433 87 314 87 q 613 161 556 87 q 671 369 671 236 l 671 676 l 667 958 q 681 972 667 972 l 781 972 q 794 958 794 972 l 790 675 l 790 368 q 700 82 790 182 q 433 -17 610 -17 m 213 1099 q 211 1106 211 1102 q 218 1118 211 1114 l 401 1229 q 417 1233 408 1233 l 455 1233 q 472 1229 465 1233 l 655 1118 q 662 1106 662 1114 q 660 1099 662 1102 l 643 1060 q 633 1051 640 1051 q 626 1053 628 1051 l 435 1140 l 247 1053 q 240 1051 244 1051 q 229 1060 233 1051 l 213 1099 z "},"Ü":{"ha":863,"x_min":69,"x_max":794,"o":"m 433 -17 q 163 83 255 -17 q 72 368 72 183 l 74 675 l 69 958 q 82 972 69 972 l 192 972 q 206 958 206 972 l 201 678 l 202 369 q 258 161 203 235 q 433 87 314 87 q 613 161 556 87 q 671 369 671 236 l 671 676 l 667 958 q 681 972 667 972 l 781 972 q 794 958 794 972 l 790 675 l 790 368 q 700 82 790 182 q 433 -17 610 -17 m 283 1059 q 273 1063 277 1059 q 269 1072 269 1066 l 269 1179 q 273 1189 269 1185 q 283 1192 277 1192 l 369 1192 q 383 1179 383 1192 l 383 1072 q 380 1063 383 1066 q 369 1059 376 1059 l 283 1059 m 503 1059 q 490 1072 490 1059 l 490 1179 q 503 1192 490 1192 l 590 1192 q 600 1189 597 1192 q 604 1179 604 1185 l 604 1072 q 600 1063 604 1066 q 590 1059 597 1059 l 503 1059 z "},"Ụ":{"ha":863,"x_min":69,"x_max":794,"o":"m 433 -17 q 163 83 255 -17 q 72 368 72 183 l 74 675 l 69 958 q 82 972 69 972 l 192 972 q 206 958 206 972 l 201 678 l 202 369 q 258 161 203 235 q 433 87 314 87 q 613 161 556 87 q 671 369 671 236 l 671 676 l 667 958 q 681 972 667 972 l 781 972 q 794 958 794 972 l 790 675 l 790 368 q 700 82 790 182 q 433 -17 610 -17 z "},"Ù":{"ha":863,"x_min":69,"x_max":794,"o":"m 433 -17 q 163 83 255 -17 q 72 368 72 183 l 74 675 l 69 958 q 82 972 69 972 l 192 972 q 206 958 206 972 l 201 678 l 202 369 q 258 161 203 235 q 433 87 314 87 q 613 161 556 87 q 671 369 671 236 l 671 676 l 667 958 q 681 972 667 972 l 781 972 q 794 958 794 972 l 790 675 l 790 368 q 700 82 790 182 q 433 -17 610 -17 m 560 1058 q 549 1049 558 1049 q 543 1049 545 1049 l 235 1158 q 227 1164 230 1160 q 227 1175 225 1169 l 252 1247 q 263 1256 256 1256 q 269 1253 265 1256 l 567 1115 q 576 1103 576 1110 q 575 1097 576 1101 l 560 1058 z "},"Ủ":{"ha":863,"x_min":69,"x_max":794,"o":"m 433 -17 q 163 83 255 -17 q 72 368 72 183 l 74 675 l 69 958 q 82 972 69 972 l 192 972 q 206 958 206 972 l 201 678 l 202 369 q 258 161 203 235 q 433 87 314 87 q 613 161 556 87 q 671 369 671 236 l 671 676 l 667 958 q 681 972 667 972 l 781 972 q 794 958 794 972 l 790 675 l 790 368 q 700 82 790 182 q 433 -17 610 -17 m 404 1057 q 394 1061 398 1057 q 392 1072 390 1065 q 411 1115 395 1099 q 457 1149 428 1131 q 491 1172 481 1162 q 502 1199 502 1183 q 486 1229 502 1217 q 442 1241 471 1241 q 398 1230 415 1241 q 376 1198 381 1218 q 362 1185 373 1185 l 301 1185 q 292 1189 295 1185 q 289 1199 288 1192 q 336 1280 296 1251 q 444 1308 376 1308 q 552 1279 512 1308 q 593 1201 593 1250 q 576 1150 593 1169 q 529 1113 560 1132 q 498 1090 509 1099 q 484 1069 488 1081 q 470 1057 481 1057 l 404 1057 z "},"Ư":{"ha":863,"x_min":69,"x_max":910,"o":"m 902 1122 q 910 1111 910 1118 q 907 1103 910 1107 l 794 933 l 790 675 l 790 368 q 700 82 790 182 q 433 -17 610 -17 q 163 83 255 -17 q 72 368 72 183 l 74 675 l 69 958 q 82 972 69 972 l 192 972 q 206 958 206 972 l 201 678 l 202 369 q 258 161 203 235 q 433 87 314 87 q 613 161 556 87 q 671 369 671 236 l 671 676 l 667 958 q 681 972 667 972 l 717 972 l 817 1155 q 828 1163 822 1163 q 836 1160 831 1163 l 902 1122 z "},"Ứ":{"ha":863,"x_min":69,"x_max":910,"o":"m 902 1122 q 910 1111 910 1118 q 907 1103 910 1107 l 794 933 l 790 675 l 790 368 q 700 82 790 182 q 433 -17 610 -17 q 163 83 255 -17 q 72 368 72 183 l 74 675 l 69 958 q 82 972 69 972 l 192 972 q 206 958 206 972 l 201 678 l 202 369 q 258 161 203 235 q 433 87 314 87 q 613 161 556 87 q 671 369 671 236 l 671 676 l 667 958 q 681 972 667 972 l 717 972 l 817 1155 q 828 1163 822 1163 q 836 1160 831 1163 l 902 1122 m 320 1049 q 315 1049 318 1049 q 303 1058 307 1049 l 289 1096 q 288 1102 288 1100 q 296 1114 288 1110 l 594 1253 q 601 1255 599 1255 q 612 1246 608 1255 l 636 1175 q 638 1169 638 1171 q 628 1158 638 1161 l 320 1049 z "},"Ự":{"ha":863,"x_min":69,"x_max":910,"o":"m 902 1122 q 910 1111 910 1118 q 907 1103 910 1107 l 794 933 l 790 675 l 790 368 q 700 82 790 182 q 433 -17 610 -17 q 163 83 255 -17 q 72 368 72 183 l 74 675 l 69 958 q 82 972 69 972 l 192 972 q 206 958 206 972 l 201 678 l 202 369 q 258 161 203 235 q 433 87 314 87 q 613 161 556 87 q 671 369 671 236 l 671 676 l 667 958 q 681 972 667 972 l 717 972 l 817 1155 q 828 1163 822 1163 q 836 1160 831 1163 l 902 1122 z "},"Ừ":{"ha":863,"x_min":69,"x_max":910,"o":"m 902 1122 q 910 1111 910 1118 q 907 1103 910 1107 l 794 933 l 790 675 l 790 368 q 700 82 790 182 q 433 -17 610 -17 q 163 83 255 -17 q 72 368 72 183 l 74 675 l 69 958 q 82 972 69 972 l 192 972 q 206 958 206 972 l 201 678 l 202 369 q 258 161 203 235 q 433 87 314 87 q 613 161 556 87 q 671 369 671 236 l 671 676 l 667 958 q 681 972 667 972 l 717 972 l 817 1155 q 828 1163 822 1163 q 836 1160 831 1163 l 902 1122 m 560 1058 q 549 1049 558 1049 q 543 1049 545 1049 l 235 1158 q 227 1164 230 1160 q 227 1175 225 1169 l 252 1247 q 263 1256 256 1256 q 269 1253 265 1256 l 567 1115 q 576 1103 576 1110 q 575 1097 576 1101 l 560 1058 z "},"Ử":{"ha":863,"x_min":69,"x_max":910,"o":"m 902 1122 q 910 1111 910 1118 q 907 1103 910 1107 l 794 933 l 790 675 l 790 368 q 700 82 790 182 q 433 -17 610 -17 q 163 83 255 -17 q 72 368 72 183 l 74 675 l 69 958 q 82 972 69 972 l 192 972 q 206 958 206 972 l 201 678 l 202 369 q 258 161 203 235 q 433 87 314 87 q 613 161 556 87 q 671 369 671 236 l 671 676 l 667 958 q 681 972 667 972 l 717 972 l 817 1155 q 828 1163 822 1163 q 836 1160 831 1163 l 902 1122 m 404 1057 q 394 1061 398 1057 q 392 1072 390 1065 q 411 1115 395 1099 q 457 1149 428 1131 q 491 1172 481 1162 q 502 1199 502 1183 q 486 1229 502 1217 q 442 1241 471 1241 q 398 1230 415 1241 q 376 1198 381 1218 q 362 1185 373 1185 l 301 1185 q 292 1189 295 1185 q 289 1199 288 1192 q 336 1280 296 1251 q 444 1308 376 1308 q 552 1279 512 1308 q 593 1201 593 1250 q 576 1150 593 1169 q 529 1113 560 1132 q 498 1090 509 1099 q 484 1069 488 1081 q 470 1057 481 1057 l 404 1057 z "},"Ữ":{"ha":863,"x_min":69,"x_max":910,"o":"m 902 1122 q 910 1111 910 1118 q 907 1103 910 1107 l 794 933 l 790 675 l 790 368 q 700 82 790 182 q 433 -17 610 -17 q 163 83 255 -17 q 72 368 72 183 l 74 675 l 69 958 q 82 972 69 972 l 192 972 q 206 958 206 972 l 201 678 l 202 369 q 258 161 203 235 q 433 87 314 87 q 613 161 556 87 q 671 369 671 236 l 671 676 l 667 958 q 681 972 667 972 l 717 972 l 817 1155 q 828 1163 822 1163 q 836 1160 831 1163 l 902 1122 m 514 1065 q 462 1079 483 1065 q 416 1120 441 1093 q 387 1149 399 1140 q 360 1158 375 1158 q 313 1084 317 1158 q 299 1071 312 1071 l 256 1071 q 242 1085 242 1071 q 274 1193 244 1152 q 359 1234 304 1234 q 412 1219 391 1234 q 458 1177 433 1205 q 484 1150 473 1159 q 509 1141 496 1141 q 560 1215 556 1141 q 574 1228 560 1228 l 617 1228 q 631 1211 631 1228 q 598 1104 627 1143 q 514 1065 569 1065 z "},"Ű":{"ha":863,"x_min":69,"x_max":794,"o":"m 433 -17 q 163 83 255 -17 q 72 368 72 183 l 74 675 l 69 958 q 82 972 69 972 l 192 972 q 206 958 206 972 l 201 678 l 202 369 q 258 161 203 235 q 433 87 314 87 q 613 161 556 87 q 671 369 671 236 l 671 676 l 667 958 q 681 972 667 972 l 781 972 q 794 958 794 972 l 790 675 l 790 368 q 700 82 790 182 q 433 -17 610 -17 m 334 1073 q 324 1068 330 1068 q 315 1072 319 1068 l 290 1094 q 284 1104 284 1100 q 288 1113 284 1108 l 444 1322 q 453 1328 449 1328 q 463 1324 457 1328 l 510 1277 q 515 1268 515 1272 q 510 1258 515 1265 l 334 1073 m 529 1069 q 519 1065 525 1065 q 510 1069 515 1065 l 484 1090 q 479 1100 479 1094 q 483 1109 479 1103 l 639 1318 q 649 1324 643 1324 q 658 1319 653 1324 l 705 1274 q 710 1264 710 1269 q 706 1255 710 1259 l 529 1069 z "},"Ū":{"ha":863,"x_min":69,"x_max":794,"o":"m 433 -17 q 163 83 255 -17 q 72 368 72 183 l 74 675 l 69 958 q 82 972 69 972 l 192 972 q 206 958 206 972 l 201 678 l 202 369 q 258 161 203 235 q 433 87 314 87 q 613 161 556 87 q 671 369 671 236 l 671 676 l 667 958 q 681 972 667 972 l 781 972 q 794 958 794 972 l 790 675 l 790 368 q 700 82 790 182 q 433 -17 610 -17 m 247 1083 q 233 1097 233 1083 l 233 1160 q 236 1169 233 1166 q 247 1173 240 1173 l 625 1173 q 635 1169 631 1173 q 639 1160 639 1166 l 639 1097 q 635 1087 639 1090 q 625 1083 631 1083 l 247 1083 z "},"Ų":{"ha":863,"x_min":69,"x_max":794,"o":"m 781 972 q 794 958 794 972 l 790 675 l 790 368 q 708 90 790 190 q 460 -17 625 -9 q 428 -59 441 -35 q 415 -110 415 -83 q 438 -160 415 -143 q 497 -176 460 -176 l 554 -176 q 564 -180 560 -176 q 568 -190 568 -183 l 568 -251 q 564 -260 568 -257 q 554 -264 560 -264 l 487 -264 q 397 -248 436 -264 q 336 -202 358 -231 q 315 -133 315 -172 q 374 -15 315 -63 q 148 101 224 2 q 72 368 72 199 l 74 675 l 69 958 q 82 972 69 972 l 192 972 q 206 958 206 972 l 201 678 l 202 369 q 258 161 203 235 q 433 87 314 87 q 613 161 556 87 q 671 369 671 236 l 671 676 l 667 958 q 681 972 667 972 l 781 972 z "},"Ů":{"ha":863,"x_min":69,"x_max":794,"o":"m 433 -17 q 163 83 255 -17 q 72 368 72 183 l 74 675 l 69 958 q 82 972 69 972 l 192 972 q 206 958 206 972 l 201 678 l 202 369 q 258 161 203 235 q 433 87 314 87 q 613 161 556 87 q 671 369 671 236 l 671 676 l 667 958 q 681 972 667 972 l 781 972 q 794 958 794 972 l 790 675 l 790 368 q 700 82 790 182 q 433 -17 610 -17 m 435 1053 q 359 1072 393 1053 q 306 1123 325 1091 q 286 1196 286 1156 q 306 1269 286 1236 q 359 1320 325 1301 q 435 1339 393 1339 q 512 1320 478 1339 q 566 1269 547 1301 q 585 1196 585 1236 q 566 1123 585 1156 q 512 1072 547 1091 q 435 1053 478 1053 m 435 1106 q 492 1130 470 1106 q 514 1196 514 1155 q 492 1262 514 1238 q 435 1286 470 1286 q 379 1262 400 1286 q 358 1196 358 1238 q 379 1130 358 1154 q 435 1106 400 1106 z "},"Ũ":{"ha":863,"x_min":69,"x_max":794,"o":"m 433 -17 q 163 83 255 -17 q 72 368 72 183 l 74 675 l 69 958 q 82 972 69 972 l 192 972 q 206 958 206 972 l 201 678 l 202 369 q 258 161 203 235 q 433 87 314 87 q 613 161 556 87 q 671 369 671 236 l 671 676 l 667 958 q 681 972 667 972 l 781 972 q 794 958 794 972 l 790 675 l 790 368 q 700 82 790 182 q 433 -17 610 -17 m 514 1065 q 462 1079 483 1065 q 416 1120 441 1093 q 387 1149 399 1140 q 360 1158 375 1158 q 313 1084 317 1158 q 299 1071 312 1071 l 256 1071 q 242 1085 242 1071 q 274 1193 244 1152 q 359 1234 304 1234 q 412 1219 391 1234 q 458 1177 433 1205 q 484 1150 473 1159 q 509 1141 496 1141 q 560 1215 556 1141 q 574 1228 560 1228 l 617 1228 q 631 1211 631 1228 q 598 1104 627 1143 q 514 1065 569 1065 z "},"V":{"ha":851,"x_min":9,"x_max":842,"o":"m 10 956 q 9 963 9 960 q 22 972 9 972 l 137 972 q 152 961 149 972 l 435 102 l 715 961 q 730 972 717 972 l 830 972 q 842 963 842 972 q 841 956 842 960 l 514 11 q 499 0 511 0 l 356 0 q 341 11 344 0 l 10 956 z "},"W":{"ha":1222,"x_min":16,"x_max":1207,"o":"m 17 957 q 16 961 16 958 q 28 972 16 972 l 133 972 q 147 960 145 972 l 347 128 l 538 960 q 552 972 540 972 l 676 972 q 691 960 688 972 l 884 123 l 1084 960 q 1099 972 1086 972 l 1194 972 q 1204 968 1201 972 q 1206 957 1207 964 l 960 12 q 945 0 958 0 l 817 0 q 802 12 805 0 l 608 792 l 420 12 q 406 0 418 0 l 274 0 q 259 12 262 0 l 17 957 z "},"Ẃ":{"ha":1222,"x_min":16,"x_max":1207,"o":"m 17 957 q 16 961 16 958 q 28 972 16 972 l 133 972 q 147 960 145 972 l 347 128 l 538 960 q 552 972 540 972 l 676 972 q 691 960 688 972 l 884 123 l 1084 960 q 1099 972 1086 972 l 1194 972 q 1204 968 1201 972 q 1206 957 1207 964 l 960 12 q 945 0 958 0 l 817 0 q 802 12 805 0 l 608 792 l 420 12 q 406 0 418 0 l 274 0 q 259 12 262 0 l 17 957 m 494 1049 q 490 1049 492 1049 q 477 1058 481 1049 l 463 1096 q 462 1102 462 1100 q 470 1114 462 1110 l 769 1253 q 776 1255 773 1255 q 786 1246 783 1255 l 810 1175 q 812 1169 812 1171 q 802 1158 812 1161 l 494 1049 z "},"Ŵ":{"ha":1222,"x_min":16,"x_max":1207,"o":"m 17 957 q 16 961 16 958 q 28 972 16 972 l 133 972 q 147 960 145 972 l 347 128 l 538 960 q 552 972 540 972 l 676 972 q 691 960 688 972 l 884 123 l 1084 960 q 1099 972 1086 972 l 1194 972 q 1204 968 1201 972 q 1206 957 1207 964 l 960 12 q 945 0 958 0 l 817 0 q 802 12 805 0 l 608 792 l 420 12 q 406 0 418 0 l 274 0 q 259 12 262 0 l 17 957 m 387 1099 q 385 1106 385 1102 q 392 1118 385 1114 l 575 1229 q 592 1233 582 1233 l 629 1233 q 647 1229 640 1233 l 829 1118 q 836 1106 836 1114 q 835 1099 836 1102 l 817 1060 q 807 1051 815 1051 q 800 1053 802 1051 l 610 1140 l 421 1053 q 414 1051 418 1051 q 403 1060 407 1051 l 387 1099 z "},"Ẅ":{"ha":1222,"x_min":16,"x_max":1207,"o":"m 17 957 q 16 961 16 958 q 28 972 16 972 l 133 972 q 147 960 145 972 l 347 128 l 538 960 q 552 972 540 972 l 676 972 q 691 960 688 972 l 884 123 l 1084 960 q 1099 972 1086 972 l 1194 972 q 1204 968 1201 972 q 1206 957 1207 964 l 960 12 q 945 0 958 0 l 817 0 q 802 12 805 0 l 608 792 l 420 12 q 406 0 418 0 l 274 0 q 259 12 262 0 l 17 957 m 458 1059 q 448 1063 451 1059 q 444 1072 444 1066 l 444 1179 q 448 1189 444 1185 q 458 1192 451 1192 l 544 1192 q 558 1179 558 1192 l 558 1072 q 554 1063 558 1066 q 544 1059 550 1059 l 458 1059 m 678 1059 q 665 1072 665 1059 l 665 1179 q 678 1192 665 1192 l 765 1192 q 775 1189 771 1192 q 778 1179 778 1185 l 778 1072 q 775 1063 778 1066 q 765 1059 771 1059 l 678 1059 z "},"Ẁ":{"ha":1222,"x_min":16,"x_max":1207,"o":"m 17 957 q 16 961 16 958 q 28 972 16 972 l 133 972 q 147 960 145 972 l 347 128 l 538 960 q 552 972 540 972 l 676 972 q 691 960 688 972 l 884 123 l 1084 960 q 1099 972 1086 972 l 1194 972 q 1204 968 1201 972 q 1206 957 1207 964 l 960 12 q 945 0 958 0 l 817 0 q 802 12 805 0 l 608 792 l 420 12 q 406 0 418 0 l 274 0 q 259 12 262 0 l 17 957 m 735 1058 q 723 1049 732 1049 q 717 1049 719 1049 l 410 1158 q 402 1164 404 1160 q 401 1175 399 1169 l 426 1247 q 437 1256 430 1256 q 444 1253 440 1256 l 742 1115 q 751 1103 751 1110 q 749 1097 751 1101 l 735 1058 z "},"X":{"ha":829,"x_min":19,"x_max":810,"o":"m 31 0 q 23 2 26 0 q 19 8 19 5 q 22 17 19 13 l 338 513 l 51 956 q 49 964 49 959 q 52 970 49 967 q 60 972 55 972 l 186 972 q 202 963 197 972 l 417 613 l 631 963 q 647 972 636 972 l 762 972 q 770 970 767 972 q 774 964 774 967 q 771 956 774 959 l 489 508 l 807 17 q 810 9 810 11 q 807 2 810 5 q 798 0 803 0 l 672 0 q 656 9 660 0 l 411 414 l 163 9 q 147 0 158 0 l 31 0 z "},"Y":{"ha":788,"x_min":10,"x_max":777,"o":"m 13 956 q 10 964 10 960 q 14 970 10 967 q 22 972 17 972 l 140 972 q 156 962 152 972 l 399 458 l 642 962 q 658 972 646 972 l 765 972 q 777 963 777 972 q 775 956 777 960 l 455 340 l 459 14 q 446 0 459 0 l 338 0 q 325 14 325 0 l 330 342 l 13 956 z "},"Ý":{"ha":788,"x_min":10,"x_max":777,"o":"m 13 956 q 10 964 10 960 q 14 970 10 967 q 22 972 17 972 l 140 972 q 156 962 152 972 l 399 458 l 642 962 q 658 972 646 972 l 765 972 q 777 963 777 972 q 775 956 777 960 l 455 340 l 459 14 q 446 0 459 0 l 338 0 q 325 14 325 0 l 330 342 l 13 956 m 279 1049 q 274 1049 277 1049 q 262 1058 266 1049 l 248 1096 q 247 1102 247 1100 q 255 1114 247 1110 l 553 1253 q 560 1255 558 1255 q 571 1246 567 1255 l 595 1175 q 597 1169 597 1171 q 587 1158 597 1161 l 279 1049 z "},"Ŷ":{"ha":788,"x_min":10,"x_max":777,"o":"m 13 956 q 10 964 10 960 q 14 970 10 967 q 22 972 17 972 l 140 972 q 156 962 152 972 l 399 458 l 642 962 q 658 972 646 972 l 765 972 q 777 963 777 972 q 775 956 777 960 l 455 340 l 459 14 q 446 0 459 0 l 338 0 q 325 14 325 0 l 330 342 l 13 956 m 172 1099 q 170 1106 170 1102 q 177 1118 170 1114 l 360 1229 q 376 1233 367 1233 l 414 1233 q 431 1229 424 1233 l 614 1118 q 621 1106 621 1114 q 619 1099 621 1102 l 602 1060 q 592 1051 599 1051 q 585 1053 587 1051 l 394 1140 l 206 1053 q 199 1051 203 1051 q 188 1060 192 1051 l 172 1099 z "},"Ÿ":{"ha":788,"x_min":10,"x_max":777,"o":"m 13 956 q 10 964 10 960 q 14 970 10 967 q 22 972 17 972 l 140 972 q 156 962 152 972 l 399 458 l 642 962 q 658 972 646 972 l 765 972 q 777 963 777 972 q 775 956 777 960 l 455 340 l 459 14 q 446 0 459 0 l 338 0 q 325 14 325 0 l 330 342 l 13 956 m 242 1059 q 232 1063 236 1059 q 228 1072 228 1066 l 228 1179 q 232 1189 228 1185 q 242 1192 236 1192 l 328 1192 q 342 1179 342 1192 l 342 1072 q 339 1063 342 1066 q 328 1059 335 1059 l 242 1059 m 463 1059 q 449 1072 449 1059 l 449 1179 q 463 1192 449 1192 l 549 1192 q 559 1189 556 1192 q 563 1179 563 1185 l 563 1072 q 559 1063 563 1066 q 549 1059 556 1059 l 463 1059 z "},"Ỵ":{"ha":788,"x_min":10,"x_max":777,"o":"m 13 956 q 10 964 10 960 q 14 970 10 967 q 22 972 17 972 l 140 972 q 156 962 152 972 l 399 458 l 642 962 q 658 972 646 972 l 765 972 q 777 963 777 972 q 775 956 777 960 l 455 340 l 459 14 q 446 0 459 0 l 338 0 q 325 14 325 0 l 330 342 l 13 956 z "},"Ỳ":{"ha":788,"x_min":10,"x_max":777,"o":"m 13 956 q 10 964 10 960 q 14 970 10 967 q 22 972 17 972 l 140 972 q 156 962 152 972 l 399 458 l 642 962 q 658 972 646 972 l 765 972 q 777 963 777 972 q 775 956 777 960 l 455 340 l 459 14 q 446 0 459 0 l 338 0 q 325 14 325 0 l 330 342 l 13 956 m 519 1058 q 508 1049 517 1049 q 502 1049 504 1049 l 194 1158 q 186 1164 189 1160 q 186 1175 184 1169 l 211 1247 q 222 1256 215 1256 q 228 1253 224 1256 l 526 1115 q 535 1103 535 1110 q 534 1097 535 1101 l 519 1058 z "},"Ỷ":{"ha":788,"x_min":10,"x_max":777,"o":"m 13 956 q 10 964 10 960 q 14 970 10 967 q 22 972 17 972 l 140 972 q 156 962 152 972 l 399 458 l 642 962 q 658 972 646 972 l 765 972 q 777 963 777 972 q 775 956 777 960 l 455 340 l 459 14 q 446 0 459 0 l 338 0 q 325 14 325 0 l 330 342 l 13 956 m 363 1057 q 353 1061 357 1057 q 351 1072 349 1065 q 370 1115 354 1099 q 416 1149 387 1131 q 450 1172 440 1162 q 461 1199 461 1183 q 445 1229 461 1217 q 401 1241 430 1241 q 357 1230 374 1241 q 335 1198 340 1218 q 321 1185 332 1185 l 260 1185 q 251 1189 254 1185 q 248 1199 247 1192 q 295 1280 255 1251 q 403 1308 335 1308 q 511 1279 471 1308 q 552 1201 552 1250 q 535 1150 552 1169 q 488 1113 519 1132 q 457 1090 468 1099 q 443 1069 447 1081 q 429 1057 440 1057 l 363 1057 z "},"Ỹ":{"ha":788,"x_min":10,"x_max":777,"o":"m 13 956 q 10 964 10 960 q 14 970 10 967 q 22 972 17 972 l 140 972 q 156 962 152 972 l 399 458 l 642 962 q 658 972 646 972 l 765 972 q 777 963 777 972 q 775 956 777 960 l 455 340 l 459 14 q 446 0 459 0 l 338 0 q 325 14 325 0 l 330 342 l 13 956 m 473 1065 q 421 1079 442 1065 q 375 1120 400 1093 q 346 1149 358 1140 q 319 1158 334 1158 q 272 1084 276 1158 q 258 1071 271 1071 l 215 1071 q 201 1085 201 1071 q 233 1193 203 1152 q 318 1234 263 1234 q 371 1219 350 1234 q 417 1177 392 1205 q 443 1150 432 1159 q 468 1141 455 1141 q 519 1215 515 1141 q 533 1228 519 1228 l 576 1228 q 590 1211 590 1228 q 557 1104 586 1143 q 473 1065 528 1065 z "},"Z":{"ha":791,"x_min":38,"x_max":753,"o":"m 51 0 q 41 4 44 0 q 38 14 38 8 l 38 99 q 43 115 38 107 l 592 874 l 88 874 q 78 877 81 874 q 74 888 74 881 l 74 958 q 78 968 74 965 q 88 972 81 972 l 733 972 q 742 968 739 972 q 746 958 746 965 l 746 871 q 740 854 746 863 l 195 99 l 740 99 q 750 95 747 99 q 753 85 753 91 l 753 14 q 750 4 753 8 q 740 0 747 0 l 51 0 z "},"Ź":{"ha":791,"x_min":38,"x_max":753,"o":"m 51 0 q 41 4 44 0 q 38 14 38 8 l 38 99 q 43 115 38 107 l 592 874 l 88 874 q 78 877 81 874 q 74 888 74 881 l 74 958 q 78 968 74 965 q 88 972 81 972 l 733 972 q 742 968 739 972 q 746 958 746 965 l 746 871 q 740 854 746 863 l 195 99 l 740 99 q 750 95 747 99 q 753 85 753 91 l 753 14 q 750 4 753 8 q 740 0 747 0 l 51 0 m 289 1049 q 284 1049 287 1049 q 272 1058 276 1049 l 258 1096 q 256 1102 256 1100 q 265 1114 256 1110 l 563 1253 q 570 1255 567 1255 q 581 1246 577 1255 l 605 1175 q 606 1169 606 1171 q 597 1158 606 1161 l 289 1049 z "},"Ž":{"ha":791,"x_min":38,"x_max":753,"o":"m 51 0 q 41 4 44 0 q 38 14 38 8 l 38 99 q 43 115 38 107 l 592 874 l 88 874 q 78 877 81 874 q 74 888 74 881 l 74 958 q 78 968 74 965 q 88 972 81 972 l 733 972 q 742 968 739 972 q 746 958 746 965 l 746 871 q 740 854 746 863 l 195 99 l 740 99 q 750 95 747 99 q 753 85 753 91 l 753 14 q 750 4 753 8 q 740 0 747 0 l 51 0 m 195 1167 q 188 1177 188 1171 q 190 1185 188 1181 l 206 1224 q 217 1233 209 1233 q 224 1231 220 1233 l 413 1145 l 601 1231 q 608 1233 605 1233 q 619 1225 616 1233 l 636 1185 q 638 1178 638 1182 q 631 1167 638 1171 l 448 1057 q 431 1052 442 1052 l 394 1052 q 378 1057 384 1052 l 195 1167 z "},"Ż":{"ha":791,"x_min":38,"x_max":753,"o":"m 51 0 q 41 4 44 0 q 38 14 38 8 l 38 99 q 43 115 38 107 l 592 874 l 88 874 q 78 877 81 874 q 74 888 74 881 l 74 958 q 78 968 74 965 q 88 972 81 972 l 733 972 q 742 968 739 972 q 746 958 746 965 l 746 871 q 740 854 746 863 l 195 99 l 740 99 q 750 95 747 99 q 753 85 753 91 l 753 14 q 750 4 753 8 q 740 0 747 0 l 51 0 m 355 1059 q 341 1072 341 1059 l 341 1179 q 345 1189 341 1185 q 355 1192 349 1192 l 456 1192 q 466 1189 463 1192 q 470 1179 470 1185 l 470 1072 q 466 1063 470 1066 q 456 1059 463 1059 l 355 1059 z "},"a":{"ha":756,"x_min":41,"x_max":690,"o":"m 685 365 l 690 14 q 677 0 690 0 l 576 0 q 563 14 563 0 l 565 123 q 472 22 530 58 q 337 -13 414 -13 q 176 35 243 -13 q 75 167 110 83 q 41 356 41 251 q 76 545 41 460 q 180 680 112 631 q 339 729 247 729 q 473 696 415 729 q 565 599 530 663 l 562 701 q 576 715 562 715 l 677 715 q 690 701 690 715 l 685 365 m 367 75 q 516 146 463 75 q 569 356 569 217 q 516 567 569 493 q 369 641 464 641 q 220 566 270 641 q 169 365 169 492 q 220 153 169 232 q 367 75 270 75 z "},"á":{"ha":756,"x_min":41,"x_max":690,"o":"m 685 365 l 690 14 q 677 0 690 0 l 576 0 q 563 14 563 0 l 565 123 q 472 22 530 58 q 337 -13 414 -13 q 176 35 243 -13 q 75 167 110 83 q 41 356 41 251 q 76 545 41 460 q 180 680 112 631 q 339 729 247 729 q 473 696 415 729 q 565 599 530 663 l 562 701 q 576 715 562 715 l 677 715 q 690 701 690 715 l 685 365 m 367 75 q 516 146 463 75 q 569 356 569 217 q 516 567 569 493 q 369 641 464 641 q 220 566 270 641 q 169 365 169 492 q 220 153 169 232 q 367 75 270 75 m 251 792 q 246 792 249 792 q 233 801 238 792 l 219 839 q 218 845 218 843 q 226 857 218 853 l 525 996 q 532 998 529 998 q 542 989 539 998 l 567 918 q 568 912 568 914 q 558 901 568 904 l 251 792 z "},"ă":{"ha":756,"x_min":41,"x_max":690,"o":"m 685 365 l 690 14 q 677 0 690 0 l 576 0 q 563 14 563 0 l 565 123 q 472 22 530 58 q 337 -13 414 -13 q 176 35 243 -13 q 75 167 110 83 q 41 356 41 251 q 76 545 41 460 q 180 680 112 631 q 339 729 247 729 q 473 696 415 729 q 565 599 530 663 l 562 701 q 576 715 562 715 l 677 715 q 690 701 690 715 l 685 365 m 367 75 q 516 146 463 75 q 569 356 569 217 q 516 567 569 493 q 369 641 464 641 q 220 566 270 641 q 169 365 169 492 q 220 153 169 232 q 367 75 270 75 m 368 799 q 268 821 312 799 q 200 884 225 844 q 172 974 176 924 l 172 976 q 176 985 172 981 q 185 988 179 988 l 245 988 q 260 974 258 988 q 292 909 263 933 q 368 885 320 885 q 443 909 414 885 q 476 974 472 934 q 490 988 478 988 l 551 988 q 560 985 557 988 q 563 976 564 981 q 536 885 560 925 q 468 822 511 844 q 368 799 424 799 z "},"ắ":{"ha":756,"x_min":41,"x_max":690,"o":"m 685 365 l 690 14 q 677 0 690 0 l 576 0 q 563 14 563 0 l 565 123 q 472 22 530 58 q 337 -13 414 -13 q 176 35 243 -13 q 75 167 110 83 q 41 356 41 251 q 76 545 41 460 q 180 680 112 631 q 339 729 247 729 q 473 696 415 729 q 565 599 530 663 l 562 701 q 576 715 562 715 l 677 715 q 690 701 690 715 l 685 365 m 367 75 q 516 146 463 75 q 569 356 569 217 q 516 567 569 493 q 369 641 464 641 q 220 566 270 641 q 169 365 169 492 q 220 153 169 232 q 367 75 270 75 m 376 947 q 366 942 371 942 q 356 947 362 942 l 323 974 q 317 984 317 978 q 321 993 317 988 l 471 1185 q 481 1190 475 1190 q 490 1186 485 1190 l 540 1141 q 546 1131 546 1135 q 541 1122 546 1127 l 376 947 m 368 782 q 268 805 312 782 q 200 868 225 828 q 172 958 176 908 l 172 959 q 185 972 172 972 l 245 972 q 260 958 258 972 q 292 893 263 917 q 368 868 320 868 q 443 893 414 868 q 476 958 472 918 q 490 972 478 972 l 551 972 q 560 968 557 972 q 563 959 564 965 q 536 868 560 908 q 468 805 511 828 q 368 782 424 782 z "},"ặ":{"ha":756,"x_min":41,"x_max":690,"o":"m 685 365 l 690 14 q 677 0 690 0 l 576 0 q 563 14 563 0 l 565 123 q 472 22 530 58 q 337 -13 414 -13 q 176 35 243 -13 q 75 167 110 83 q 41 356 41 251 q 76 545 41 460 q 180 680 112 631 q 339 729 247 729 q 473 696 415 729 q 565 599 530 663 l 562 701 q 576 715 562 715 l 677 715 q 690 701 690 715 l 685 365 m 367 75 q 516 146 463 75 q 569 356 569 217 q 516 567 569 493 q 369 641 464 641 q 220 566 270 641 q 169 365 169 492 q 220 153 169 232 q 367 75 270 75 m 368 799 q 268 821 312 799 q 200 884 225 844 q 172 974 176 924 l 172 976 q 176 985 172 981 q 185 988 179 988 l 245 988 q 260 974 258 988 q 292 909 263 933 q 368 885 320 885 q 443 909 414 885 q 476 974 472 934 q 490 988 478 988 l 551 988 q 560 985 557 988 q 563 976 564 981 q 536 885 560 925 q 468 822 511 844 q 368 799 424 799 z "},"ằ":{"ha":756,"x_min":41,"x_max":690,"o":"m 685 365 l 690 14 q 677 0 690 0 l 576 0 q 563 14 563 0 l 565 123 q 472 22 530 58 q 337 -13 414 -13 q 176 35 243 -13 q 75 167 110 83 q 41 356 41 251 q 76 545 41 460 q 180 680 112 631 q 339 729 247 729 q 473 696 415 729 q 565 599 530 663 l 562 701 q 576 715 562 715 l 677 715 q 690 701 690 715 l 685 365 m 367 75 q 516 146 463 75 q 569 356 569 217 q 516 567 569 493 q 369 641 464 641 q 220 566 270 641 q 169 365 169 492 q 220 153 169 232 q 367 75 270 75 m 379 947 q 370 942 375 942 q 360 947 365 942 l 194 1122 q 190 1131 190 1126 q 195 1141 190 1136 l 246 1186 q 256 1190 251 1190 q 265 1185 260 1190 l 415 993 q 419 984 419 988 q 413 974 419 978 l 379 947 m 367 782 q 268 805 311 782 q 200 868 224 828 q 172 958 175 908 l 172 959 q 185 972 172 972 l 245 972 q 259 958 257 972 q 291 893 263 917 q 367 868 319 868 q 442 893 413 868 q 476 958 472 918 q 490 972 477 972 l 550 972 q 560 968 556 972 q 563 959 563 965 q 535 868 560 908 q 467 805 510 828 q 367 782 424 782 z "},"ẳ":{"ha":756,"x_min":41,"x_max":690,"o":"m 685 365 l 690 14 q 677 0 690 0 l 576 0 q 563 14 563 0 l 565 123 q 472 22 530 58 q 337 -13 414 -13 q 176 35 243 -13 q 75 167 110 83 q 41 356 41 251 q 76 545 41 460 q 180 680 112 631 q 339 729 247 729 q 473 696 415 729 q 565 599 530 663 l 562 701 q 576 715 562 715 l 677 715 q 690 701 690 715 l 685 365 m 367 75 q 516 146 463 75 q 569 356 569 217 q 516 567 569 493 q 369 641 464 641 q 220 566 270 641 q 169 365 169 492 q 220 153 169 232 q 367 75 270 75 z "},"ẵ":{"ha":756,"x_min":41,"x_max":690,"o":"m 685 365 l 690 14 q 677 0 690 0 l 576 0 q 563 14 563 0 l 565 123 q 472 22 530 58 q 337 -13 414 -13 q 176 35 243 -13 q 75 167 110 83 q 41 356 41 251 q 76 545 41 460 q 180 680 112 631 q 339 729 247 729 q 473 696 415 729 q 565 599 530 663 l 562 701 q 576 715 562 715 l 677 715 q 690 701 690 715 l 685 365 m 367 75 q 516 146 463 75 q 569 356 569 217 q 516 567 569 493 q 369 641 464 641 q 220 566 270 641 q 169 365 169 492 q 220 153 169 232 q 367 75 270 75 m 441 1001 q 391 1015 410 1001 q 349 1052 371 1028 q 322 1078 333 1069 q 297 1086 310 1086 q 253 1020 257 1086 q 240 1007 253 1007 l 196 1007 q 183 1021 181 1007 q 213 1124 185 1085 q 295 1163 242 1163 q 344 1149 324 1163 q 386 1112 364 1136 q 412 1086 401 1094 q 436 1078 423 1078 q 481 1143 478 1078 q 494 1156 482 1156 l 539 1156 q 549 1152 545 1156 q 551 1140 552 1147 q 520 1038 548 1075 q 441 1001 492 1001 m 368 782 q 268 805 312 782 q 200 868 225 828 q 172 958 176 908 l 172 959 q 185 972 172 972 l 245 972 q 260 958 258 972 q 292 893 263 917 q 368 868 320 868 q 443 893 414 868 q 476 958 472 918 q 490 972 478 972 l 551 972 q 560 968 557 972 q 563 959 564 965 q 536 868 560 908 q 468 805 511 828 q 368 782 424 782 z "},"â":{"ha":756,"x_min":41,"x_max":690,"o":"m 685 365 l 690 14 q 677 0 690 0 l 576 0 q 563 14 563 0 l 565 123 q 472 22 530 58 q 337 -13 414 -13 q 176 35 243 -13 q 75 167 110 83 q 41 356 41 251 q 76 545 41 460 q 180 680 112 631 q 339 729 247 729 q 473 696 415 729 q 565 599 530 663 l 562 701 q 576 715 562 715 l 677 715 q 690 701 690 715 l 685 365 m 367 75 q 516 146 463 75 q 569 356 569 217 q 516 567 569 493 q 369 641 464 641 q 220 566 270 641 q 169 365 169 492 q 220 153 169 232 q 367 75 270 75 m 143 842 q 142 849 142 845 q 149 861 142 857 l 331 972 q 348 976 338 976 l 385 976 q 403 972 396 976 l 585 861 q 592 849 592 857 q 591 842 592 845 l 574 803 q 563 794 571 794 q 556 796 558 794 l 366 883 l 177 797 q 170 794 174 794 q 160 803 163 794 l 143 842 z "},"ấ":{"ha":756,"x_min":41,"x_max":715,"o":"m 685 365 l 690 14 q 677 0 690 0 l 576 0 q 563 14 563 0 l 565 123 q 472 22 530 58 q 337 -13 414 -13 q 176 35 243 -13 q 75 167 110 83 q 41 356 41 251 q 76 545 41 460 q 180 680 112 631 q 339 729 247 729 q 473 696 415 729 q 565 599 530 663 l 562 701 q 576 715 562 715 l 677 715 q 690 701 690 715 l 685 365 m 367 75 q 516 146 463 75 q 569 356 569 217 q 516 567 569 493 q 369 641 464 641 q 220 566 270 641 q 169 365 169 492 q 220 153 169 232 q 367 75 270 75 m 545 929 q 535 924 540 924 q 526 928 531 924 l 494 956 q 489 967 489 962 q 492 976 489 971 l 642 1165 q 652 1171 647 1171 q 662 1166 657 1171 l 710 1122 q 715 1111 715 1117 q 711 1102 715 1106 l 545 929 m 143 816 q 142 823 142 819 q 149 834 142 830 l 331 945 q 348 950 339 950 l 385 950 q 403 945 395 950 l 585 834 q 592 823 592 830 q 591 816 592 819 l 574 776 q 563 767 570 767 q 556 769 558 767 l 366 856 l 177 769 q 171 767 174 767 q 160 776 164 767 l 143 816 z "},"ậ":{"ha":756,"x_min":41,"x_max":690,"o":"m 685 365 l 690 14 q 677 0 690 0 l 576 0 q 563 14 563 0 l 565 123 q 472 22 530 58 q 337 -13 414 -13 q 176 35 243 -13 q 75 167 110 83 q 41 356 41 251 q 76 545 41 460 q 180 680 112 631 q 339 729 247 729 q 473 696 415 729 q 565 599 530 663 l 562 701 q 576 715 562 715 l 677 715 q 690 701 690 715 l 685 365 m 367 75 q 516 146 463 75 q 569 356 569 217 q 516 567 569 493 q 369 641 464 641 q 220 566 270 641 q 169 365 169 492 q 220 153 169 232 q 367 75 270 75 m 143 842 q 142 849 142 845 q 149 861 142 857 l 331 972 q 348 976 338 976 l 385 976 q 403 972 396 976 l 585 861 q 592 849 592 857 q 591 842 592 845 l 574 803 q 563 794 571 794 q 556 796 558 794 l 366 883 l 177 797 q 170 794 174 794 q 160 803 163 794 l 143 842 z "},"ầ":{"ha":756,"x_min":41,"x_max":690,"o":"m 685 365 l 690 14 q 677 0 690 0 l 576 0 q 563 14 563 0 l 565 123 q 472 22 530 58 q 337 -13 414 -13 q 176 35 243 -13 q 75 167 110 83 q 41 356 41 251 q 76 545 41 460 q 180 680 112 631 q 339 729 247 729 q 473 696 415 729 q 565 599 530 663 l 562 701 q 576 715 562 715 l 677 715 q 690 701 690 715 l 685 365 m 367 75 q 516 146 463 75 q 569 356 569 217 q 516 567 569 493 q 369 641 464 641 q 220 566 270 641 q 169 365 169 492 q 220 153 169 232 q 367 75 270 75 m 555 928 q 546 924 551 924 q 535 928 542 924 l 369 1101 q 365 1111 365 1106 q 370 1121 365 1116 l 419 1165 q 428 1170 425 1170 q 438 1164 434 1170 l 588 975 q 592 966 592 971 q 587 956 592 960 l 555 928 m 143 816 q 142 823 142 819 q 149 834 142 830 l 331 945 q 348 950 339 950 l 385 950 q 403 945 395 950 l 585 834 q 592 823 592 830 q 591 816 592 819 l 574 776 q 563 767 571 767 q 556 769 558 767 l 366 856 l 177 769 q 171 767 174 767 q 160 776 164 767 l 143 816 z "},"ẩ":{"ha":756,"x_min":41,"x_max":693,"o":"m 685 365 l 690 14 q 677 0 690 0 l 576 0 q 563 14 563 0 l 565 123 q 472 22 530 58 q 337 -13 414 -13 q 176 35 243 -13 q 75 167 110 83 q 41 356 41 251 q 76 545 41 460 q 180 680 112 631 q 339 729 247 729 q 473 696 415 729 q 565 599 530 663 l 562 701 q 576 715 562 715 l 677 715 q 690 701 690 715 l 685 365 m 367 75 q 516 146 463 75 q 569 356 569 217 q 516 567 569 493 q 369 641 464 641 q 220 566 270 641 q 169 365 169 492 q 220 153 169 232 q 367 75 270 75 z "},"ẫ":{"ha":756,"x_min":41,"x_max":690,"o":"m 685 365 l 690 14 q 677 0 690 0 l 576 0 q 563 14 563 0 l 565 123 q 472 22 530 58 q 337 -13 414 -13 q 176 35 243 -13 q 75 167 110 83 q 41 356 41 251 q 76 545 41 460 q 180 680 112 631 q 339 729 247 729 q 473 696 415 729 q 565 599 530 663 l 562 701 q 576 715 562 715 l 677 715 q 690 701 690 715 l 685 365 m 367 75 q 516 146 463 75 q 569 356 569 217 q 516 567 569 493 q 369 641 464 641 q 220 566 270 641 q 169 365 169 492 q 220 153 169 232 q 367 75 270 75 z "},"ä":{"ha":756,"x_min":41,"x_max":690,"o":"m 685 365 l 690 14 q 677 0 690 0 l 576 0 q 563 14 563 0 l 565 123 q 472 22 530 58 q 337 -13 414 -13 q 176 35 243 -13 q 75 167 110 83 q 41 356 41 251 q 76 545 41 460 q 180 680 112 631 q 339 729 247 729 q 473 696 415 729 q 565 599 530 663 l 562 701 q 576 715 562 715 l 677 715 q 690 701 690 715 l 685 365 m 367 75 q 516 146 463 75 q 569 356 569 217 q 516 567 569 493 q 369 641 464 641 q 220 566 270 641 q 169 365 169 492 q 220 153 169 232 q 367 75 270 75 m 214 802 q 204 806 208 802 q 200 815 200 809 l 200 922 q 204 932 200 928 q 214 935 208 935 l 300 935 q 314 922 314 935 l 314 815 q 310 806 314 809 q 300 802 306 802 l 214 802 m 434 802 q 421 815 421 802 l 421 922 q 434 935 421 935 l 521 935 q 531 932 527 935 q 535 922 535 928 l 535 815 q 531 806 535 809 q 521 802 527 802 l 434 802 z "},"ạ":{"ha":756,"x_min":41,"x_max":690,"o":"m 685 365 l 690 14 q 677 0 690 0 l 576 0 q 563 14 563 0 l 565 123 q 472 22 530 58 q 337 -13 414 -13 q 176 35 243 -13 q 75 167 110 83 q 41 356 41 251 q 76 545 41 460 q 180 680 112 631 q 339 729 247 729 q 473 696 415 729 q 565 599 530 663 l 562 701 q 576 715 562 715 l 677 715 q 690 701 690 715 l 685 365 m 367 75 q 516 146 463 75 q 569 356 569 217 q 516 567 569 493 q 369 641 464 641 q 220 566 270 641 q 169 365 169 492 q 220 153 169 232 q 367 75 270 75 z "},"à":{"ha":756,"x_min":41,"x_max":690,"o":"m 685 365 l 690 14 q 677 0 690 0 l 576 0 q 563 14 563 0 l 565 123 q 472 22 530 58 q 337 -13 414 -13 q 176 35 243 -13 q 75 167 110 83 q 41 356 41 251 q 76 545 41 460 q 180 680 112 631 q 339 729 247 729 q 473 696 415 729 q 565 599 530 663 l 562 701 q 576 715 562 715 l 677 715 q 690 701 690 715 l 685 365 m 367 75 q 516 146 463 75 q 569 356 569 217 q 516 567 569 493 q 369 641 464 641 q 220 566 270 641 q 169 365 169 492 q 220 153 169 232 q 367 75 270 75 m 491 801 q 479 792 488 792 q 474 792 476 792 l 166 901 q 158 907 160 903 q 158 918 156 912 l 183 990 q 193 999 186 999 q 200 997 196 999 l 498 858 q 507 846 507 853 q 506 840 507 844 l 491 801 z "},"ả":{"ha":756,"x_min":41,"x_max":690,"o":"m 685 365 l 690 14 q 677 0 690 0 l 576 0 q 563 14 563 0 l 565 123 q 472 22 530 58 q 337 -13 414 -13 q 176 35 243 -13 q 75 167 110 83 q 41 356 41 251 q 76 545 41 460 q 180 680 112 631 q 339 729 247 729 q 473 696 415 729 q 565 599 530 663 l 562 701 q 576 715 562 715 l 677 715 q 690 701 690 715 l 685 365 m 367 75 q 516 146 463 75 q 569 356 569 217 q 516 567 569 493 q 369 641 464 641 q 220 566 270 641 q 169 365 169 492 q 220 153 169 232 q 367 75 270 75 m 335 800 q 325 804 328 800 q 322 815 321 808 q 342 858 326 842 q 388 892 358 874 q 422 915 411 905 q 433 942 433 926 q 417 972 433 960 q 373 984 401 984 q 328 973 345 984 q 307 941 312 961 q 292 928 303 928 l 232 928 q 222 932 226 928 q 219 942 219 935 q 267 1023 226 994 q 374 1051 307 1051 q 483 1022 442 1051 q 524 944 524 993 q 507 893 524 912 q 460 856 490 875 q 429 833 440 842 q 415 813 418 824 q 401 800 411 800 l 335 800 z "},"ā":{"ha":756,"x_min":41,"x_max":690,"o":"m 685 365 l 690 14 q 677 0 690 0 l 576 0 q 563 14 563 0 l 565 123 q 472 22 530 58 q 337 -13 414 -13 q 176 35 243 -13 q 75 167 110 83 q 41 356 41 251 q 76 545 41 460 q 180 680 112 631 q 339 729 247 729 q 473 696 415 729 q 565 599 530 663 l 562 701 q 576 715 562 715 l 677 715 q 690 701 690 715 l 685 365 m 367 75 q 516 146 463 75 q 569 356 569 217 q 516 567 569 493 q 369 641 464 641 q 220 566 270 641 q 169 365 169 492 q 220 153 169 232 q 367 75 270 75 m 177 826 q 163 840 163 826 l 163 903 q 167 913 163 909 q 177 916 171 916 l 556 916 q 566 913 562 916 q 569 903 569 909 l 569 840 q 566 830 569 833 q 556 826 562 826 l 177 826 z "},"ą":{"ha":756,"x_min":41,"x_max":730,"o":"m 716 -176 q 726 -180 722 -176 q 730 -190 730 -183 l 730 -251 q 726 -260 730 -257 q 716 -264 722 -264 l 649 -264 q 559 -248 598 -264 q 498 -202 519 -231 q 476 -133 476 -172 q 500 -53 476 -89 q 564 7 524 -18 q 563 14 563 10 l 565 123 q 472 22 530 58 q 337 -13 414 -13 q 176 35 243 -13 q 75 167 110 83 q 41 356 41 251 q 76 545 41 460 q 180 680 112 631 q 339 729 247 729 q 473 696 415 729 q 565 599 530 663 l 562 701 q 576 715 562 715 l 677 715 q 690 701 690 715 l 685 365 l 690 14 q 677 0 690 0 l 643 0 q 597 -46 617 -17 q 577 -110 577 -76 q 599 -160 577 -143 q 659 -176 622 -176 l 716 -176 m 367 75 q 516 146 463 75 q 569 356 569 217 q 516 567 569 493 q 369 641 464 641 q 220 566 270 641 q 169 365 169 492 q 220 153 169 232 q 367 75 270 75 z "},"å":{"ha":756,"x_min":41,"x_max":690,"o":"m 685 365 l 690 14 q 677 0 690 0 l 576 0 q 563 14 563 0 l 565 123 q 472 22 530 58 q 337 -13 414 -13 q 176 35 243 -13 q 75 167 110 83 q 41 356 41 251 q 76 545 41 460 q 180 680 112 631 q 339 729 247 729 q 473 696 415 729 q 565 599 530 663 l 562 701 q 576 715 562 715 l 677 715 q 690 701 690 715 l 685 365 m 367 75 q 516 146 463 75 q 569 356 569 217 q 516 567 569 493 q 369 641 464 641 q 220 566 270 641 q 169 365 169 492 q 220 153 169 232 q 367 75 270 75 m 366 797 q 290 815 324 797 q 236 866 256 834 q 217 939 217 899 q 236 1012 217 979 q 290 1063 256 1044 q 366 1082 324 1082 q 443 1063 408 1082 q 497 1012 477 1044 q 516 939 516 979 q 497 866 516 899 q 443 815 477 834 q 366 797 408 797 m 366 849 q 423 873 401 849 q 444 939 444 898 q 423 1005 444 981 q 366 1029 401 1029 q 309 1005 331 1029 q 288 939 288 981 q 309 873 288 897 q 366 849 331 849 z "},"ã":{"ha":756,"x_min":41,"x_max":690,"o":"m 685 365 l 690 14 q 677 0 690 0 l 576 0 q 563 14 563 0 l 565 123 q 472 22 530 58 q 337 -13 414 -13 q 176 35 243 -13 q 75 167 110 83 q 41 356 41 251 q 76 545 41 460 q 180 680 112 631 q 339 729 247 729 q 473 696 415 729 q 565 599 530 663 l 562 701 q 576 715 562 715 l 677 715 q 690 701 690 715 l 685 365 m 367 75 q 516 146 463 75 q 569 356 569 217 q 516 567 569 493 q 369 641 464 641 q 220 566 270 641 q 169 365 169 492 q 220 153 169 232 q 367 75 270 75 m 444 808 q 392 822 413 808 q 347 863 372 836 q 317 892 329 883 q 291 901 306 901 q 244 827 247 901 q 230 814 242 814 l 186 814 q 172 828 172 814 q 205 936 175 895 q 290 977 235 977 q 343 963 322 977 q 388 920 364 948 q 415 893 403 902 q 440 884 426 884 q 490 958 487 884 q 504 971 490 971 l 548 971 q 561 954 562 971 q 528 847 558 886 q 444 808 499 808 z "},"æ":{"ha":1281,"x_min":40,"x_max":1242,"o":"m 337 -13 q 176 35 242 -13 q 75 167 109 83 q 40 356 40 251 q 76 545 40 460 q 180 680 112 631 q 339 729 247 729 q 473 696 415 729 q 565 600 530 663 l 562 701 l 562 703 q 565 712 562 709 q 575 715 569 715 l 676 715 q 689 701 689 715 l 688 608 q 784 699 726 667 q 916 731 842 731 q 1089 686 1017 731 q 1201 558 1162 642 q 1242 356 1240 474 q 1228 342 1242 342 l 703 342 q 917 72 710 72 q 1043 114 996 72 q 1108 236 1091 156 q 1122 249 1110 249 l 1217 249 q 1227 245 1224 249 q 1230 236 1231 242 q 1180 105 1219 161 q 1076 16 1141 48 q 923 -16 1010 -16 q 785 15 844 -16 q 689 103 726 46 l 689 14 q 676 0 689 0 l 576 0 q 566 3 569 0 q 563 14 562 7 l 565 124 q 472 23 529 58 q 337 -13 414 -13 m 910 644 q 771 586 822 644 q 707 428 719 529 l 1105 428 q 1080 537 1103 488 q 1014 615 1057 586 q 910 644 971 644 m 367 75 q 515 146 463 75 q 568 357 568 217 q 516 567 568 493 q 369 641 464 641 q 219 566 270 641 q 169 365 169 492 q 219 153 169 232 q 367 75 269 75 z "},"b":{"ha":756,"x_min":66,"x_max":715,"o":"m 419 730 q 580 682 513 730 q 681 549 647 633 q 715 360 715 465 q 680 170 715 256 q 576 36 644 85 q 417 -14 509 -14 q 283 19 341 -14 q 191 117 226 53 l 194 15 q 181 1 194 1 l 79 1 q 66 15 66 1 l 71 538 l 66 958 q 79 972 66 972 l 182 972 q 192 969 188 972 q 196 958 196 965 l 193 599 q 286 696 229 662 q 419 730 344 730 m 388 76 q 536 151 485 76 q 586 352 586 226 q 536 563 586 485 q 389 640 486 640 q 241 569 295 640 q 188 361 188 498 q 240 150 188 224 q 388 76 292 76 z "},"c":{"ha":721,"x_min":41,"x_max":690,"o":"m 376 -16 q 195 30 270 -16 q 80 159 119 75 q 41 356 41 243 q 80 553 41 469 q 195 685 119 638 q 378 731 272 731 q 530 700 465 731 q 633 613 594 669 q 679 482 671 557 l 679 479 q 667 468 679 468 l 576 468 q 561 481 563 468 q 499 601 547 560 q 378 642 450 642 q 223 568 274 642 q 172 356 172 494 q 223 144 172 217 q 379 72 274 72 q 510 120 459 72 q 569 255 560 168 q 583 268 571 268 l 676 268 q 686 265 683 268 q 689 256 690 261 q 642 115 681 176 q 534 19 602 53 q 376 -16 466 -16 z "},"ć":{"ha":721,"x_min":41,"x_max":690,"o":"m 376 -16 q 195 30 270 -16 q 80 159 119 75 q 41 356 41 243 q 80 553 41 469 q 195 685 119 638 q 378 731 272 731 q 530 700 465 731 q 633 613 594 669 q 679 482 671 557 l 679 479 q 667 468 679 468 l 576 468 q 561 481 563 468 q 499 601 547 560 q 378 642 450 642 q 223 568 274 642 q 172 356 172 494 q 223 144 172 217 q 379 72 274 72 q 510 120 459 72 q 569 255 560 168 q 583 268 571 268 l 676 268 q 686 265 683 268 q 689 256 690 261 q 642 115 681 176 q 534 19 602 53 q 376 -16 466 -16 m 254 792 q 249 792 252 792 q 237 801 241 792 l 223 839 q 222 845 222 843 q 230 857 222 853 l 528 996 q 535 998 533 998 q 546 989 542 998 l 570 918 q 572 912 572 914 q 562 901 572 904 l 254 792 z "},"č":{"ha":721,"x_min":41,"x_max":690,"o":"m 376 -16 q 195 30 270 -16 q 80 159 119 75 q 41 356 41 243 q 80 553 41 469 q 195 685 119 638 q 378 731 272 731 q 530 700 465 731 q 633 613 594 669 q 679 482 671 557 l 679 479 q 667 468 679 468 l 576 468 q 561 481 563 468 q 499 601 547 560 q 378 642 450 642 q 223 568 274 642 q 172 356 172 494 q 223 144 172 217 q 379 72 274 72 q 510 120 459 72 q 569 255 560 168 q 583 268 571 268 l 676 268 q 686 265 683 268 q 689 256 690 261 q 642 115 681 176 q 534 19 602 53 q 376 -16 466 -16 m 153 910 q 146 920 146 914 q 148 928 146 924 l 165 967 q 175 976 167 976 q 182 974 178 976 l 371 888 l 560 974 q 567 976 563 976 q 577 968 574 976 l 594 928 q 596 921 596 925 q 589 910 596 914 l 406 800 q 389 795 400 795 l 353 795 q 336 800 342 795 l 153 910 z "},"ç":{"ha":721,"x_min":41,"x_max":690,"o":"m 676 268 q 686 265 683 268 q 689 256 690 261 q 648 124 682 182 q 554 30 613 66 q 416 -14 494 -6 l 363 -226 q 358 -234 363 -232 q 347 -235 353 -237 l 256 -217 q 246 -206 246 -215 q 247 -200 246 -204 l 321 -12 q 169 47 232 -1 q 74 174 106 95 q 41 356 41 253 q 80 553 41 469 q 195 685 119 638 q 378 731 272 731 q 530 700 465 731 q 633 613 594 669 q 679 482 671 557 l 679 479 q 667 468 679 468 l 576 468 q 561 481 563 468 q 499 601 547 560 q 378 642 450 642 q 223 568 274 642 q 172 356 172 494 q 223 144 172 217 q 379 72 274 72 q 510 120 459 72 q 569 255 560 168 q 583 268 571 268 l 676 268 z "},"ĉ":{"ha":721,"x_min":41,"x_max":690,"o":"m 376 -16 q 195 30 270 -16 q 80 159 119 75 q 41 356 41 243 q 80 553 41 469 q 195 685 119 638 q 378 731 272 731 q 530 700 465 731 q 633 613 594 669 q 679 482 671 557 l 679 479 q 667 468 679 468 l 576 468 q 561 481 563 468 q 499 601 547 560 q 378 642 450 642 q 223 568 274 642 q 172 356 172 494 q 223 144 172 217 q 379 72 274 72 q 510 120 459 72 q 569 255 560 168 q 583 268 571 268 l 676 268 q 686 265 683 268 q 689 256 690 261 q 642 115 681 176 q 534 19 602 53 q 376 -16 466 -16 m 147 842 q 146 849 146 845 q 153 861 146 857 l 335 972 q 352 976 342 976 l 390 976 q 407 972 400 976 l 590 861 q 597 849 597 857 q 595 842 597 845 l 578 803 q 567 794 575 794 q 560 796 563 794 l 370 883 l 181 797 q 174 794 178 794 q 164 803 167 794 l 147 842 z "},"ċ":{"ha":721,"x_min":41,"x_max":690,"o":"m 376 -16 q 195 30 270 -16 q 80 159 119 75 q 41 356 41 243 q 80 553 41 469 q 195 685 119 638 q 378 731 272 731 q 530 700 465 731 q 633 613 594 669 q 679 482 671 557 l 679 479 q 667 468 679 468 l 576 468 q 561 481 563 468 q 499 601 547 560 q 378 642 450 642 q 223 568 274 642 q 172 356 172 494 q 223 144 172 217 q 379 72 274 72 q 510 120 459 72 q 569 255 560 168 q 583 268 571 268 l 676 268 q 686 265 683 268 q 689 256 690 261 q 642 115 681 176 q 534 19 602 53 q 376 -16 466 -16 m 320 802 q 306 815 306 802 l 306 922 q 310 932 306 928 q 320 935 314 935 l 422 935 q 432 932 428 935 q 435 922 435 928 l 435 815 q 432 806 435 809 q 422 802 428 802 l 320 802 z "},"d":{"ha":756,"x_min":41,"x_max":690,"o":"m 686 544 l 690 14 q 677 0 690 0 l 576 0 q 562 14 562 0 l 565 122 q 472 22 530 57 q 337 -14 413 -14 q 176 34 243 -14 q 75 167 110 83 q 41 356 41 251 q 77 545 41 460 q 180 680 113 631 q 339 730 247 730 q 471 698 415 730 q 563 603 528 665 l 560 958 q 574 972 560 972 l 677 972 q 690 958 690 972 l 686 544 m 367 74 q 515 145 462 74 q 569 356 569 217 q 516 568 569 493 q 369 643 464 643 q 220 567 270 643 q 169 365 169 492 q 220 152 169 231 q 367 74 270 74 z "},"ð":{"ha":767,"x_min":46,"x_max":719,"o":"m 567 819 q 680 633 642 740 q 718 385 718 527 q 678 177 718 268 q 560 34 638 86 q 373 -17 482 -17 q 201 24 275 -17 q 86 140 127 66 q 46 309 46 215 q 84 481 46 407 q 192 595 123 555 q 351 635 261 635 q 502 593 442 635 q 589 489 563 551 q 554 642 585 571 q 467 771 522 713 l 293 684 q 286 683 291 683 q 275 690 278 683 l 250 740 q 248 747 248 744 q 256 758 248 754 l 397 829 q 238 917 326 883 q 228 928 228 919 q 231 935 228 931 l 264 991 q 276 999 268 999 q 282 998 278 999 q 499 878 412 946 l 674 965 q 681 967 677 967 q 692 959 689 967 l 717 908 q 719 901 719 904 q 711 890 719 894 l 567 819 m 380 79 q 490 110 445 79 q 557 194 535 141 q 579 313 579 247 q 554 433 579 381 q 483 513 529 485 q 374 542 436 542 q 231 478 280 542 q 181 302 181 415 q 234 139 181 198 q 380 79 286 79 z "},"ď":{"ha":756,"x_min":41,"x_max":902,"o":"m 686 544 l 690 14 q 677 0 690 0 l 576 0 q 562 14 562 0 l 565 122 q 472 22 530 57 q 337 -14 413 -14 q 176 34 243 -14 q 75 167 110 83 q 41 356 41 251 q 77 545 41 460 q 180 680 113 631 q 339 730 247 730 q 471 698 415 730 q 563 603 528 665 l 560 958 q 574 972 560 972 l 677 972 q 690 958 690 972 l 686 544 m 367 74 q 515 145 462 74 q 569 356 569 217 q 516 568 569 493 q 369 643 464 643 q 220 567 270 643 q 169 365 169 492 q 220 152 169 231 q 367 74 270 74 m 829 782 q 814 770 826 770 l 757 770 q 747 774 750 770 q 744 785 743 778 l 794 1044 q 808 1056 796 1056 l 889 1056 q 899 1051 896 1056 q 900 1040 902 1047 l 829 782 z "},"đ":{"ha":756,"x_min":41,"x_max":765,"o":"m 752 880 q 765 867 765 880 l 765 803 q 752 790 765 790 l 688 790 l 686 544 l 690 14 q 677 0 690 0 l 576 0 q 562 14 562 0 l 565 122 q 472 22 530 57 q 337 -14 413 -14 q 176 34 243 -14 q 75 167 110 83 q 41 356 41 251 q 77 545 41 460 q 180 680 113 631 q 339 730 247 730 q 471 698 415 730 q 563 603 528 665 l 562 790 l 352 790 q 339 803 339 790 l 339 867 q 352 880 339 880 l 560 880 l 560 958 q 574 972 560 972 l 677 972 q 690 958 690 972 l 690 880 l 752 880 m 367 74 q 515 145 461 74 q 569 356 569 217 q 516 568 569 493 q 369 643 464 643 q 220 567 270 643 q 169 365 169 492 q 220 152 169 231 q 367 74 270 74 z "},"e":{"ha":748,"x_min":41,"x_max":708,"o":"m 169 342 q 384 72 176 72 q 510 114 463 72 q 574 236 558 156 q 589 249 577 249 l 683 249 q 694 245 690 249 q 697 237 697 242 q 645 105 685 162 q 539 16 606 48 q 383 -16 472 -16 q 197 31 274 -16 q 80 161 119 77 q 41 356 41 245 q 81 552 41 467 q 197 684 121 637 q 376 731 272 731 q 552 686 478 731 q 666 558 626 642 q 708 356 706 474 q 695 342 708 342 l 169 342 m 376 644 q 237 588 288 644 q 174 428 186 531 l 572 428 q 547 537 569 488 q 481 615 524 586 q 376 644 438 644 z "},"é":{"ha":748,"x_min":41,"x_max":708,"o":"m 169 342 q 384 72 176 72 q 510 114 463 72 q 574 236 558 156 q 589 249 577 249 l 683 249 q 694 245 690 249 q 697 237 697 242 q 645 105 685 162 q 539 16 606 48 q 383 -16 472 -16 q 197 31 274 -16 q 80 161 119 77 q 41 356 41 245 q 81 552 41 467 q 197 684 121 637 q 376 731 272 731 q 552 686 478 731 q 666 558 626 642 q 708 356 706 474 q 695 342 708 342 l 169 342 m 376 644 q 237 588 288 644 q 174 428 186 531 l 572 428 q 547 537 569 488 q 481 615 524 586 q 376 644 438 644 m 259 792 q 254 792 257 792 q 242 801 246 792 l 228 839 q 226 845 226 843 q 235 857 226 853 l 533 996 q 540 998 538 998 q 551 989 547 998 l 575 918 q 576 912 576 914 q 567 901 576 904 l 259 792 z "},"ĕ":{"ha":748,"x_min":41,"x_max":708,"o":"m 169 342 q 384 72 176 72 q 510 114 463 72 q 574 236 558 156 q 589 249 577 249 l 683 249 q 694 245 690 249 q 697 237 697 242 q 645 105 685 162 q 539 16 606 48 q 383 -16 472 -16 q 197 31 274 -16 q 80 161 119 77 q 41 356 41 245 q 81 552 41 467 q 197 684 121 637 q 376 731 272 731 q 552 686 478 731 q 666 558 626 642 q 708 356 706 474 q 695 342 708 342 l 169 342 m 376 644 q 237 588 288 644 q 174 428 186 531 l 572 428 q 547 537 569 488 q 481 615 524 586 q 376 644 438 644 m 376 799 q 277 821 320 799 q 209 884 233 844 q 181 974 184 924 l 181 976 q 184 985 181 981 q 194 988 188 988 l 253 988 q 268 974 266 988 q 300 909 272 933 q 376 885 328 885 q 451 909 422 885 q 484 974 480 934 q 499 988 486 988 l 559 988 q 569 985 565 988 q 572 976 572 981 q 544 885 569 925 q 476 822 519 844 q 376 799 433 799 z "},"ě":{"ha":748,"x_min":41,"x_max":708,"o":"m 169 342 q 384 72 176 72 q 510 114 463 72 q 574 236 558 156 q 589 249 577 249 l 683 249 q 694 245 690 249 q 697 237 697 242 q 645 105 685 162 q 539 16 606 48 q 383 -16 472 -16 q 197 31 274 -16 q 80 161 119 77 q 41 356 41 245 q 81 552 41 467 q 197 684 121 637 q 376 731 272 731 q 552 686 478 731 q 666 558 626 642 q 708 356 706 474 q 695 342 708 342 l 169 342 m 376 644 q 237 588 288 644 q 174 428 186 531 l 572 428 q 547 537 569 488 q 481 615 524 586 q 376 644 438 644 m 158 910 q 151 920 151 914 q 153 928 151 924 l 169 967 q 180 976 172 976 q 187 974 183 976 l 376 888 l 565 974 q 572 976 568 976 q 582 968 579 976 l 599 928 q 601 921 601 925 q 594 910 601 914 l 411 800 q 394 795 405 795 l 358 795 q 341 800 347 795 l 158 910 z "},"ê":{"ha":748,"x_min":41,"x_max":708,"o":"m 169 342 q 384 72 176 72 q 510 114 463 72 q 574 236 558 156 q 589 249 577 249 l 683 249 q 694 245 690 249 q 697 237 697 242 q 645 105 685 162 q 539 16 606 48 q 383 -16 472 -16 q 197 31 274 -16 q 80 161 119 77 q 41 356 41 245 q 81 552 41 467 q 197 684 121 637 q 376 731 272 731 q 552 686 478 731 q 666 558 626 642 q 708 356 706 474 q 695 342 708 342 l 169 342 m 376 644 q 237 588 288 644 q 174 428 186 531 l 572 428 q 547 537 569 488 q 481 615 524 586 q 376 644 438 644 m 152 842 q 151 849 151 845 q 158 861 151 857 l 340 972 q 357 976 347 976 l 394 976 q 412 972 405 976 l 594 861 q 601 849 601 857 q 600 842 601 845 l 583 803 q 572 794 580 794 q 565 796 567 794 l 375 883 l 186 797 q 179 794 183 794 q 169 803 172 794 l 152 842 z "},"ế":{"ha":748,"x_min":41,"x_max":724,"o":"m 169 342 q 384 72 176 72 q 510 114 463 72 q 574 236 558 156 q 589 249 577 249 l 683 249 q 694 245 690 249 q 697 237 697 242 q 645 105 685 162 q 539 16 606 48 q 383 -16 472 -16 q 197 31 274 -16 q 80 161 119 77 q 41 356 41 245 q 81 552 41 467 q 197 684 121 637 q 376 731 272 731 q 552 686 478 731 q 666 558 626 642 q 708 356 706 474 q 695 342 708 342 l 169 342 m 376 644 q 237 588 288 644 q 174 428 186 531 l 572 428 q 547 537 569 488 q 481 615 524 586 q 376 644 438 644 m 554 929 q 544 924 549 924 q 535 928 540 924 l 503 956 q 498 967 498 962 q 501 976 498 971 l 651 1165 q 661 1171 656 1171 q 671 1166 666 1171 l 719 1122 q 724 1111 724 1117 q 720 1102 724 1106 l 554 929 m 152 816 q 151 823 151 819 q 158 834 151 830 l 340 945 q 357 950 348 950 l 394 950 q 412 945 404 950 l 594 834 q 601 823 601 830 q 600 816 601 819 l 583 776 q 572 767 579 767 q 565 769 567 767 l 375 856 l 186 769 q 180 767 183 767 q 169 776 173 767 l 152 816 z "},"ệ":{"ha":748,"x_min":41,"x_max":708,"o":"m 169 342 q 384 72 176 72 q 510 114 463 72 q 574 236 558 156 q 589 249 577 249 l 683 249 q 694 245 690 249 q 697 237 697 242 q 645 105 685 162 q 539 16 606 48 q 383 -16 472 -16 q 197 31 274 -16 q 80 161 119 77 q 41 356 41 245 q 81 552 41 467 q 197 684 121 637 q 376 731 272 731 q 552 686 478 731 q 666 558 626 642 q 708 356 706 474 q 695 342 708 342 l 169 342 m 376 644 q 237 588 288 644 q 174 428 186 531 l 572 428 q 547 537 569 488 q 481 615 524 586 q 376 644 438 644 m 152 842 q 151 849 151 845 q 158 861 151 857 l 340 972 q 357 976 347 976 l 394 976 q 412 972 405 976 l 594 861 q 601 849 601 857 q 600 842 601 845 l 583 803 q 572 794 580 794 q 565 796 567 794 l 375 883 l 186 797 q 179 794 183 794 q 169 803 172 794 l 152 842 z "},"ề":{"ha":748,"x_min":41,"x_max":708,"o":"m 169 342 q 384 72 176 72 q 510 114 463 72 q 574 236 558 156 q 589 249 577 249 l 683 249 q 694 245 690 249 q 697 237 697 242 q 645 105 685 162 q 539 16 606 48 q 383 -16 472 -16 q 197 31 274 -16 q 80 161 119 77 q 41 356 41 245 q 81 552 41 467 q 197 684 121 637 q 376 731 272 731 q 552 686 478 731 q 666 558 626 642 q 708 356 706 474 q 695 342 708 342 l 169 342 m 376 644 q 237 588 288 644 q 174 428 186 531 l 572 428 q 547 537 569 488 q 481 615 524 586 q 376 644 438 644 m 564 928 q 555 924 560 924 q 544 928 551 924 l 378 1101 q 374 1111 374 1106 q 379 1121 374 1116 l 428 1165 q 438 1170 434 1170 q 447 1164 443 1170 l 597 975 q 601 966 601 971 q 596 956 601 960 l 564 928 m 152 816 q 151 823 151 819 q 158 834 151 830 l 340 945 q 357 950 348 950 l 394 950 q 412 945 404 950 l 594 834 q 601 823 601 830 q 600 816 601 819 l 583 776 q 572 767 580 767 q 565 769 567 767 l 375 856 l 186 769 q 180 767 183 767 q 169 776 173 767 l 152 816 z "},"ể":{"ha":748,"x_min":41,"x_max":708,"o":"m 169 342 q 384 72 176 72 q 510 114 463 72 q 574 236 558 156 q 589 249 577 249 l 683 249 q 694 245 690 249 q 697 237 697 242 q 645 105 685 162 q 539 16 606 48 q 383 -16 472 -16 q 197 31 274 -16 q 80 161 119 77 q 41 356 41 245 q 81 552 41 467 q 197 684 121 637 q 376 731 272 731 q 552 686 478 731 q 666 558 626 642 q 708 356 706 474 q 695 342 708 342 l 169 342 m 376 644 q 237 588 288 644 q 174 428 186 531 l 572 428 q 547 537 569 488 q 481 615 524 586 q 376 644 438 644 z "},"ễ":{"ha":748,"x_min":41,"x_max":708,"o":"m 169 342 q 384 72 176 72 q 510 114 463 72 q 574 236 558 156 q 589 249 577 249 l 683 249 q 694 245 690 249 q 697 237 697 242 q 645 105 685 162 q 539 16 606 48 q 383 -16 472 -16 q 197 31 274 -16 q 80 161 119 77 q 41 356 41 245 q 81 552 41 467 q 197 684 121 637 q 376 731 272 731 q 552 686 478 731 q 666 558 626 642 q 708 356 706 474 q 695 342 708 342 l 169 342 m 376 644 q 237 588 288 644 q 174 428 186 531 l 572 428 q 547 537 569 488 q 481 615 524 586 q 376 644 438 644 z "},"ë":{"ha":748,"x_min":41,"x_max":708,"o":"m 169 342 q 384 72 176 72 q 510 114 463 72 q 574 236 558 156 q 589 249 577 249 l 683 249 q 694 245 690 249 q 697 237 697 242 q 645 105 685 162 q 539 16 606 48 q 383 -16 472 -16 q 197 31 274 -16 q 80 161 119 77 q 41 356 41 245 q 81 552 41 467 q 197 684 121 637 q 376 731 272 731 q 552 686 478 731 q 666 558 626 642 q 708 356 706 474 q 695 342 708 342 l 169 342 m 376 644 q 237 588 288 644 q 174 428 186 531 l 572 428 q 547 537 569 488 q 481 615 524 586 q 376 644 438 644 m 222 802 q 212 806 216 802 q 208 815 208 809 l 208 922 q 212 932 208 928 q 222 935 216 935 l 308 935 q 322 922 322 935 l 322 815 q 318 806 322 809 q 308 802 315 802 l 222 802 m 442 802 q 429 815 429 802 l 429 922 q 442 935 429 935 l 529 935 q 539 932 535 935 q 543 922 543 928 l 543 815 q 539 806 543 809 q 529 802 535 802 l 442 802 z "},"ė":{"ha":748,"x_min":41,"x_max":708,"o":"m 169 342 q 384 72 176 72 q 510 114 463 72 q 574 236 558 156 q 589 249 577 249 l 683 249 q 694 245 690 249 q 697 237 697 242 q 645 105 685 162 q 539 16 606 48 q 383 -16 472 -16 q 197 31 274 -16 q 80 161 119 77 q 41 356 41 245 q 81 552 41 467 q 197 684 121 637 q 376 731 272 731 q 552 686 478 731 q 666 558 626 642 q 708 356 706 474 q 695 342 708 342 l 169 342 m 376 644 q 237 588 288 644 q 174 428 186 531 l 572 428 q 547 537 569 488 q 481 615 524 586 q 376 644 438 644 m 325 802 q 311 815 311 802 l 311 922 q 315 932 311 928 q 325 935 319 935 l 426 935 q 436 932 433 935 q 440 922 440 928 l 440 815 q 436 806 440 809 q 426 802 433 802 l 325 802 z "},"ẹ":{"ha":748,"x_min":41,"x_max":708,"o":"m 169 342 q 384 72 176 72 q 510 114 463 72 q 574 236 558 156 q 589 249 577 249 l 683 249 q 694 245 690 249 q 697 237 697 242 q 645 105 685 162 q 539 16 606 48 q 383 -16 472 -16 q 197 31 274 -16 q 80 161 119 77 q 41 356 41 245 q 81 552 41 467 q 197 684 121 637 q 376 731 272 731 q 552 686 478 731 q 666 558 626 642 q 708 356 706 474 q 695 342 708 342 l 169 342 m 376 644 q 237 588 288 644 q 174 428 186 531 l 572 428 q 547 537 569 488 q 481 615 524 586 q 376 644 438 644 z "},"è":{"ha":748,"x_min":41,"x_max":708,"o":"m 169 342 q 384 72 176 72 q 510 114 463 72 q 574 236 558 156 q 589 249 577 249 l 683 249 q 694 245 690 249 q 697 237 697 242 q 645 105 685 162 q 539 16 606 48 q 383 -16 472 -16 q 197 31 274 -16 q 80 161 119 77 q 41 356 41 245 q 81 552 41 467 q 197 684 121 637 q 376 731 272 731 q 552 686 478 731 q 666 558 626 642 q 708 356 706 474 q 695 342 708 342 l 169 342 m 376 644 q 237 588 288 644 q 174 428 186 531 l 572 428 q 547 537 569 488 q 481 615 524 586 q 376 644 438 644 m 499 801 q 488 792 497 792 q 482 792 484 792 l 174 901 q 166 907 169 903 q 166 918 164 912 l 191 990 q 201 999 194 999 q 208 997 204 999 l 506 858 q 515 846 515 853 q 514 840 515 844 l 499 801 z "},"ẻ":{"ha":748,"x_min":41,"x_max":708,"o":"m 169 342 q 384 72 176 72 q 510 114 463 72 q 574 236 558 156 q 589 249 577 249 l 683 249 q 694 245 690 249 q 697 237 697 242 q 645 105 685 162 q 539 16 606 48 q 383 -16 472 -16 q 197 31 274 -16 q 80 161 119 77 q 41 356 41 245 q 81 552 41 467 q 197 684 121 637 q 376 731 272 731 q 552 686 478 731 q 666 558 626 642 q 708 356 706 474 q 695 342 708 342 l 169 342 m 376 644 q 237 588 288 644 q 174 428 186 531 l 572 428 q 547 537 569 488 q 481 615 524 586 q 376 644 438 644 m 343 800 q 333 804 337 800 q 331 815 329 808 q 350 858 334 842 q 396 892 367 874 q 430 915 419 905 q 441 942 441 926 q 425 972 441 960 q 381 984 410 984 q 337 973 353 984 q 315 941 320 961 q 301 928 312 928 l 240 928 q 231 932 234 928 q 228 942 227 935 q 275 1023 235 994 q 383 1051 315 1051 q 491 1022 451 1051 q 532 944 532 993 q 515 893 532 912 q 468 856 499 875 q 437 833 448 842 q 423 813 426 824 q 409 800 419 800 l 343 800 z "},"ē":{"ha":748,"x_min":41,"x_max":708,"o":"m 169 342 q 384 72 176 72 q 510 114 463 72 q 574 236 558 156 q 589 249 577 249 l 683 249 q 694 245 690 249 q 697 237 697 242 q 645 105 685 162 q 539 16 606 48 q 383 -16 472 -16 q 197 31 274 -16 q 80 161 119 77 q 41 356 41 245 q 81 552 41 467 q 197 684 121 637 q 376 731 272 731 q 552 686 478 731 q 666 558 626 642 q 708 356 706 474 q 695 342 708 342 l 169 342 m 376 644 q 237 588 288 644 q 174 428 186 531 l 572 428 q 547 537 569 488 q 481 615 524 586 q 376 644 438 644 m 186 826 q 172 840 172 826 l 172 903 q 176 913 172 909 q 186 916 180 916 l 565 916 q 575 913 571 916 q 578 903 578 909 l 578 840 q 575 830 578 833 q 565 826 571 826 l 186 826 z "},"ę":{"ha":748,"x_min":41,"x_max":708,"o":"m 708 356 q 695 342 708 342 l 169 342 q 384 72 176 72 q 510 114 463 72 q 574 236 558 156 q 589 249 577 249 l 683 249 q 694 245 690 249 q 697 237 697 242 q 624 78 682 143 q 470 -7 566 14 q 431 -52 447 -25 q 414 -110 414 -79 q 436 -160 414 -143 q 496 -176 458 -176 l 553 -176 q 563 -180 559 -176 q 567 -190 567 -183 l 567 -251 q 563 -260 567 -257 q 553 -264 559 -264 l 485 -264 q 395 -248 435 -264 q 335 -202 356 -231 q 313 -133 313 -172 q 370 -16 313 -65 q 191 34 265 -13 q 79 164 117 81 q 41 356 41 247 q 81 552 41 467 q 197 684 121 637 q 376 731 272 731 q 552 686 478 731 q 666 558 626 642 q 708 356 706 474 m 572 428 q 547 537 569 488 q 481 615 524 586 q 376 644 438 644 q 237 588 288 644 q 174 428 186 531 l 572 428 z "},"ẽ":{"ha":748,"x_min":41,"x_max":708,"o":"m 169 342 q 384 72 176 72 q 510 114 463 72 q 574 236 558 156 q 589 249 577 249 l 683 249 q 694 245 690 249 q 697 237 697 242 q 645 105 685 162 q 539 16 606 48 q 383 -16 472 -16 q 197 31 274 -16 q 80 161 119 77 q 41 356 41 245 q 81 552 41 467 q 197 684 121 637 q 376 731 272 731 q 552 686 478 731 q 666 558 626 642 q 708 356 706 474 q 695 342 708 342 l 169 342 m 376 644 q 237 588 288 644 q 174 428 186 531 l 572 428 q 547 537 569 488 q 481 615 524 586 q 376 644 438 644 m 453 808 q 401 822 422 808 q 356 863 381 836 q 326 892 338 883 q 300 901 315 901 q 253 827 256 901 q 239 814 251 814 l 195 814 q 181 828 181 814 q 214 936 184 895 q 299 977 244 977 q 352 963 331 977 q 397 920 373 948 q 424 893 413 902 q 449 884 435 884 q 499 958 496 884 q 513 971 499 971 l 557 971 q 570 954 571 971 q 538 847 567 886 q 453 808 508 808 z "},"ə":{"ha":748,"x_min":40,"x_max":707,"o":"m 578 373 q 364 643 572 643 q 238 601 285 643 q 174 479 190 559 q 159 467 172 467 l 65 467 q 54 470 58 467 q 51 478 51 473 q 102 610 63 553 q 209 699 142 667 q 365 731 276 731 q 551 685 474 731 q 668 554 628 638 q 707 360 707 470 q 667 163 707 248 q 551 31 627 78 q 372 -16 476 -16 q 195 29 269 -16 q 82 158 122 74 q 40 359 42 242 q 53 373 40 373 l 578 373 m 372 72 q 511 128 460 72 q 574 288 562 184 l 176 288 q 201 178 178 227 q 267 100 224 129 q 372 72 310 72 z "},"f":{"ha":466,"x_min":28,"x_max":435,"o":"m 150 0 q 137 14 137 0 l 141 323 l 141 623 l 42 623 q 32 627 36 623 q 28 637 28 631 l 28 701 q 32 712 28 708 q 42 715 36 715 l 141 715 l 141 780 q 168 901 141 853 q 237 969 194 948 q 330 991 280 990 q 423 981 375 991 q 435 966 435 978 l 435 903 q 431 893 435 897 q 420 892 427 890 q 357 898 395 898 q 265 770 265 898 l 265 715 l 421 715 q 431 711 427 715 q 434 701 434 708 l 434 637 q 421 623 434 623 l 265 623 l 265 323 l 269 14 q 256 0 269 0 l 150 0 z "},"g":{"ha":753,"x_min":41,"x_max":689,"o":"m 346 3 q 180 49 249 3 q 76 175 111 95 q 41 359 41 256 q 77 546 41 462 q 181 678 113 630 q 342 727 249 727 q 474 693 417 727 q 565 596 531 660 l 562 701 q 576 715 562 715 l 675 715 q 685 712 681 715 q 689 701 689 708 l 685 358 l 688 51 q 606 -189 688 -105 q 369 -272 524 -272 q 218 -249 285 -273 q 109 -176 151 -226 q 61 -53 67 -127 l 61 -51 q 74 -39 61 -39 l 173 -39 q 188 -51 185 -39 q 245 -151 197 -118 q 372 -184 294 -184 q 517 -126 465 -184 q 568 53 568 -68 l 568 134 q 477 37 534 71 q 346 3 421 3 m 371 90 q 516 157 463 90 q 568 358 568 224 q 516 567 568 493 q 368 641 463 641 q 220 566 272 641 q 169 363 169 492 q 220 160 169 231 q 371 90 272 90 z "},"ğ":{"ha":753,"x_min":41,"x_max":689,"o":"m 346 3 q 180 49 249 3 q 76 175 111 95 q 41 359 41 256 q 77 546 41 462 q 181 678 113 630 q 342 727 249 727 q 474 693 417 727 q 565 596 531 660 l 562 701 q 576 715 562 715 l 675 715 q 685 712 681 715 q 689 701 689 708 l 685 358 l 688 51 q 606 -189 688 -105 q 369 -272 524 -272 q 218 -249 285 -273 q 109 -176 151 -226 q 61 -53 67 -127 l 61 -51 q 74 -39 61 -39 l 173 -39 q 188 -51 185 -39 q 245 -151 197 -118 q 372 -184 294 -184 q 517 -126 465 -184 q 568 53 568 -68 l 568 134 q 477 37 534 71 q 346 3 421 3 m 371 90 q 516 157 463 90 q 568 358 568 224 q 516 567 568 493 q 368 641 463 641 q 220 566 272 641 q 169 363 169 492 q 220 160 169 231 q 371 90 272 90 m 368 799 q 268 821 312 799 q 200 884 225 844 q 172 974 176 924 l 172 976 q 176 985 172 981 q 185 988 179 988 l 245 988 q 260 974 258 988 q 292 909 263 933 q 368 885 320 885 q 443 909 414 885 q 476 974 472 934 q 490 988 478 988 l 551 988 q 560 985 557 988 q 563 976 564 981 q 536 885 560 925 q 468 822 511 844 q 368 799 424 799 z "},"ĝ":{"ha":753,"x_min":41,"x_max":689,"o":"m 346 3 q 180 49 249 3 q 76 175 111 95 q 41 359 41 256 q 77 546 41 462 q 181 678 113 630 q 342 727 249 727 q 474 693 417 727 q 565 596 531 660 l 562 701 q 576 715 562 715 l 675 715 q 685 712 681 715 q 689 701 689 708 l 685 358 l 688 51 q 606 -189 688 -105 q 369 -272 524 -272 q 218 -249 285 -273 q 109 -176 151 -226 q 61 -53 67 -127 l 61 -51 q 74 -39 61 -39 l 173 -39 q 188 -51 185 -39 q 245 -151 197 -118 q 372 -184 294 -184 q 517 -126 465 -184 q 568 53 568 -68 l 568 134 q 477 37 534 71 q 346 3 421 3 m 371 90 q 516 157 463 90 q 568 358 568 224 q 516 567 568 493 q 368 641 463 641 q 220 566 272 641 q 169 363 169 492 q 220 160 169 231 q 371 90 272 90 m 143 842 q 142 849 142 845 q 149 861 142 857 l 331 972 q 348 976 338 976 l 385 976 q 403 972 396 976 l 585 861 q 592 849 592 857 q 591 842 592 845 l 574 803 q 563 794 571 794 q 556 796 558 794 l 366 883 l 177 797 q 170 794 174 794 q 160 803 163 794 l 143 842 z "},"ģ":{"ha":753,"x_min":41,"x_max":689,"o":"m 346 3 q 180 49 249 3 q 76 175 111 95 q 41 359 41 256 q 77 546 41 462 q 181 678 113 630 q 342 727 249 727 q 474 693 417 727 q 565 596 531 660 l 562 701 q 576 715 562 715 l 675 715 q 685 712 681 715 q 689 701 689 708 l 685 358 l 688 51 q 606 -189 688 -105 q 369 -272 524 -272 q 218 -249 285 -273 q 109 -176 151 -226 q 61 -53 67 -127 l 61 -51 q 74 -39 61 -39 l 173 -39 q 188 -51 185 -39 q 245 -151 197 -118 q 372 -184 294 -184 q 517 -126 465 -184 q 568 53 568 -68 l 568 134 q 477 37 534 71 q 346 3 421 3 m 371 90 q 516 157 463 90 q 568 358 568 224 q 516 567 568 493 q 368 641 463 641 q 220 566 272 641 q 169 363 169 492 q 220 160 169 231 q 371 90 272 90 m 298 802 q 288 806 292 802 q 284 815 284 809 l 284 909 q 290 926 284 919 l 371 1031 q 387 1040 377 1040 l 434 1040 q 446 1024 449 1040 l 415 919 l 415 815 q 411 806 415 809 q 401 802 407 802 l 298 802 z "},"ġ":{"ha":753,"x_min":41,"x_max":689,"o":"m 346 3 q 180 49 249 3 q 76 175 111 95 q 41 359 41 256 q 77 546 41 462 q 181 678 113 630 q 342 727 249 727 q 474 693 417 727 q 565 596 531 660 l 562 701 q 576 715 562 715 l 675 715 q 685 712 681 715 q 689 701 689 708 l 685 358 l 688 51 q 606 -189 688 -105 q 369 -272 524 -272 q 218 -249 285 -273 q 109 -176 151 -226 q 61 -53 67 -127 l 61 -51 q 74 -39 61 -39 l 173 -39 q 188 -51 185 -39 q 245 -151 197 -118 q 372 -184 294 -184 q 517 -126 465 -184 q 568 53 568 -68 l 568 134 q 477 37 534 71 q 346 3 421 3 m 371 90 q 516 157 463 90 q 568 358 568 224 q 516 567 568 493 q 368 641 463 641 q 220 566 272 641 q 169 363 169 492 q 220 160 169 231 q 371 90 272 90 m 317 802 q 303 815 303 802 l 303 922 q 307 932 303 928 q 317 935 310 935 l 418 935 q 428 932 424 935 q 432 922 432 928 l 432 815 q 428 806 432 809 q 418 802 424 802 l 317 802 z "},"h":{"ha":729,"x_min":67,"x_max":669,"o":"m 423 732 q 603 658 540 732 q 666 433 667 584 l 665 290 l 669 14 q 656 0 669 0 l 551 0 q 538 14 537 0 l 542 289 l 541 442 q 500 589 540 542 q 392 637 460 637 q 272 588 325 637 q 190 451 218 539 l 194 14 q 181 0 194 0 l 80 0 q 67 14 67 0 l 72 494 l 67 959 q 80 973 67 973 l 181 973 q 194 959 194 973 l 190 595 q 285 694 226 656 q 423 732 344 732 z "},"ħ":{"ha":713,"x_min":-24,"x_max":653,"o":"m 406 732 q 587 658 524 732 q 650 433 651 584 l 649 290 l 653 14 q 640 0 653 0 l 535 0 q 522 14 522 0 l 526 289 l 525 442 q 484 589 524 542 q 376 637 444 637 q 256 588 309 637 q 174 451 202 539 l 178 14 q 165 0 178 0 l 64 0 q 50 14 50 0 l 56 494 l 52 790 l -10 790 q -20 793 -17 790 q -24 803 -24 797 l -24 867 q -20 876 -24 873 q -10 880 -17 880 l 51 880 l 50 959 q 64 973 50 973 l 165 973 q 178 959 178 973 l 178 880 l 389 880 q 402 867 402 880 l 402 803 q 389 790 402 790 l 176 790 l 174 595 q 269 694 210 656 q 406 732 328 732 z "},"ĥ":{"ha":729,"x_min":-94,"x_max":669,"o":"m 423 732 q 603 658 540 732 q 666 433 667 584 l 665 290 l 669 14 q 656 0 669 0 l 551 0 q 538 14 537 0 l 542 289 l 541 442 q 500 589 540 542 q 392 637 460 637 q 272 588 325 637 q 190 451 218 539 l 194 14 q 181 0 194 0 l 80 0 q 67 14 67 0 l 72 494 l 67 959 q 80 973 67 973 l 181 973 q 194 959 194 973 l 190 595 q 285 694 226 656 q 423 732 344 732 m -93 1100 q -94 1107 -94 1103 q -87 1119 -94 1115 l 95 1230 q 112 1234 102 1234 l 149 1234 q 167 1230 160 1234 l 349 1119 q 356 1107 356 1115 q 355 1100 356 1103 l 338 1060 q 327 1052 335 1052 q 320 1053 322 1052 l 130 1140 l -59 1054 q -66 1052 -62 1052 q -76 1061 -73 1052 l -93 1100 z "},"i":{"ha":276,"x_min":72,"x_max":203,"o":"m 86 0 q 72 14 72 0 l 76 369 l 72 701 q 86 715 72 715 l 190 715 q 203 701 203 715 l 199 369 l 203 14 q 190 0 203 0 l 86 0 m 88 802 q 74 815 74 802 l 74 922 q 78 932 74 928 q 88 935 82 935 l 190 935 q 200 932 196 935 q 203 922 203 928 l 203 815 q 200 806 203 809 q 190 802 196 802 l 88 802 z "},"ı":{"ha":276,"x_min":72,"x_max":203,"o":"m 86 0 q 72 14 72 0 l 76 369 l 72 701 q 86 715 72 715 l 190 715 q 203 701 203 715 l 199 369 l 203 14 q 190 0 203 0 l 86 0 z "},"í":{"ha":276,"x_min":6,"x_max":306,"o":"m 38 796 q 33 795 36 795 q 21 804 25 795 l 7 846 q 6 852 6 850 q 15 864 6 860 l 263 979 q 270 981 267 981 q 281 972 278 981 l 305 902 q 306 896 306 898 q 297 885 306 888 l 38 796 m 86 0 q 72 14 72 0 l 76 369 l 72 701 q 86 715 72 715 l 190 715 q 203 701 203 715 l 199 369 l 203 14 q 190 0 203 0 l 86 0 z "},"ĭ":{"ha":276,"x_min":-32,"x_max":310,"o":"m 139 799 q 17 845 63 799 q -32 974 -28 892 q -28 984 -32 981 q -19 988 -25 988 l 38 988 q 51 974 50 988 q 77 906 54 931 q 139 881 99 881 q 200 906 177 881 q 226 974 222 931 q 240 988 227 988 l 296 988 q 306 984 302 988 q 309 972 310 979 q 259 845 305 892 q 139 799 214 799 m 86 0 q 72 14 72 0 l 76 369 l 72 701 q 86 715 72 715 l 190 715 q 203 701 203 715 l 199 369 l 203 14 q 190 0 203 0 l 86 0 z "},"î":{"ha":276,"x_min":-53,"x_max":328,"o":"m -51 844 q -53 851 -53 848 q -46 863 -53 858 l 103 972 q 119 977 109 977 l 156 977 q 172 972 166 977 l 321 863 q 328 851 328 858 q 326 844 328 848 l 306 806 q 295 799 302 799 q 288 801 292 799 l 138 885 l -12 801 q -20 799 -17 799 q -31 807 -28 799 l -51 844 m 86 0 q 72 14 72 0 l 76 369 l 72 701 q 86 715 72 715 l 190 715 q 203 701 203 715 l 199 369 l 203 14 q 190 0 203 0 l 86 0 z "},"ï":{"ha":276,"x_min":-3,"x_max":279,"o":"m 11 802 q 1 806 5 802 q -3 815 -3 809 l -3 922 q 1 932 -3 928 q 11 935 5 935 l 91 935 q 104 922 104 935 l 104 815 q 91 802 104 802 l 11 802 m 187 802 q 174 815 174 802 l 174 922 q 187 935 174 935 l 266 935 q 279 922 279 935 l 279 815 q 266 802 279 802 l 187 802 m 86 0 q 72 14 72 0 l 76 369 l 72 701 q 86 715 72 715 l 190 715 q 203 701 203 715 l 199 369 l 203 14 q 190 0 203 0 l 86 0 z "},"ị":{"ha":276,"x_min":72,"x_max":203,"o":"m 86 0 q 72 14 72 0 l 76 369 l 72 701 q 86 715 72 715 l 190 715 q 203 701 203 715 l 199 369 l 203 14 q 190 0 203 0 l 86 0 m 88 802 q 74 815 74 802 l 74 922 q 78 932 74 928 q 88 935 82 935 l 190 935 q 200 932 196 935 q 203 922 203 928 l 203 815 q 200 806 203 809 q 190 802 196 802 l 88 802 z "},"ì":{"ha":276,"x_min":-29,"x_max":271,"o":"m 256 804 q 239 796 251 792 l -20 885 q -29 897 -29 888 q -28 902 -29 900 l -4 972 q 7 981 -1 981 q 14 979 10 981 l 263 864 q 271 852 271 860 q 269 846 271 850 l 256 804 m 86 0 q 72 14 72 0 l 76 369 l 72 701 q 86 715 72 715 l 190 715 q 203 701 203 715 l 199 369 l 203 14 q 190 0 203 0 l 86 0 z "},"ỉ":{"ha":276,"x_min":-3,"x_max":288,"o":"m 106 800 q 96 804 99 800 q 93 815 92 808 q 114 859 97 842 q 159 892 130 875 q 193 916 183 906 q 204 942 204 926 q 189 972 204 960 q 144 984 173 984 q 100 973 117 984 q 78 941 83 961 q 64 928 75 928 l 10 928 q 0 932 3 928 q -3 942 -3 935 q 42 1023 4 994 q 145 1051 81 1051 q 249 1022 210 1051 q 288 944 288 993 q 272 893 288 912 q 228 856 256 874 q 199 833 209 842 q 186 813 190 824 q 172 800 183 800 l 106 800 m 86 0 q 72 14 72 0 l 76 369 l 72 701 q 86 715 72 715 l 190 715 q 203 701 203 715 l 199 369 l 203 14 q 190 0 203 0 l 86 0 z "},"ĳ":{"ha":551,"x_min":72,"x_max":479,"o":"m 86 0 q 72 14 72 0 l 76 369 l 72 701 q 86 715 72 715 l 190 715 q 203 701 203 715 l 199 369 l 203 14 q 190 0 203 0 l 86 0 m 88 802 q 74 815 74 802 l 74 922 q 78 932 74 928 q 88 935 82 935 l 190 935 q 200 932 196 935 q 203 922 203 928 l 203 815 q 200 806 203 809 q 190 802 196 802 l 88 802 m 362 -236 q 348 -222 348 -236 l 352 229 l 348 701 q 362 715 348 715 l 466 715 q 479 701 479 715 l 475 229 l 479 -222 q 466 -236 479 -236 l 362 -236 m 364 802 q 350 815 350 802 l 350 922 q 354 932 350 928 q 364 935 358 935 l 465 935 q 475 932 472 935 q 479 922 479 928 l 479 815 q 475 806 479 809 q 465 802 472 802 l 364 802 z "},"ī":{"ha":276,"x_min":-29,"x_max":305,"o":"m -16 826 q -29 840 -29 826 l -29 903 q -16 916 -29 916 l 292 916 q 305 903 305 916 l 305 840 q 292 826 305 826 l -16 826 m 86 0 q 72 14 72 0 l 76 369 l 72 701 q 86 715 72 715 l 190 715 q 203 701 203 715 l 199 369 l 203 14 q 190 0 203 0 l 86 0 z "},"į":{"ha":276,"x_min":-15,"x_max":238,"o":"m 88 802 q 74 815 74 802 l 74 922 q 78 932 74 928 q 88 935 82 935 l 190 935 q 200 932 196 935 q 203 922 203 928 l 203 815 q 200 806 203 809 q 190 802 196 802 l 88 802 m 224 -176 q 234 -180 231 -176 q 238 -190 238 -183 l 238 -251 q 234 -260 238 -257 q 224 -264 231 -264 l 157 -264 q 67 -248 106 -264 q 6 -202 28 -231 q -15 -133 -15 -172 q 9 -53 -15 -88 q 74 8 33 -17 q 72 14 72 10 l 76 369 l 72 701 q 86 715 72 715 l 190 715 q 203 701 203 715 l 199 369 l 203 14 q 190 0 203 0 l 151 0 q 106 -46 126 -17 q 85 -110 85 -76 q 108 -160 85 -143 q 167 -176 130 -176 l 224 -176 z "},"ĩ":{"ha":276,"x_min":-21,"x_max":298,"o":"m 205 808 q 159 823 177 808 q 121 865 140 838 q 99 893 108 884 q 78 901 90 901 q 45 828 49 901 q 32 814 45 814 l -8 814 q -21 828 -21 814 q 5 938 -19 899 q 73 977 29 977 q 119 962 101 977 q 157 919 138 947 q 178 892 169 901 q 199 883 188 883 q 232 957 228 883 q 236 967 232 964 q 246 971 240 971 l 285 971 q 298 947 298 971 q 271 843 294 878 q 205 808 247 808 m 86 0 q 72 14 72 0 l 76 369 l 72 701 q 86 715 72 715 l 190 715 q 203 701 203 715 l 199 369 l 203 14 q 190 0 203 0 l 86 0 z "},"j":{"ha":276,"x_min":72,"x_max":203,"o":"m 86 -236 q 72 -222 72 -236 l 76 229 l 72 701 q 86 715 72 715 l 190 715 q 203 701 203 715 l 199 229 l 203 -222 q 190 -236 203 -236 l 86 -236 m 88 802 q 74 815 74 802 l 74 922 q 78 932 74 928 q 88 935 82 935 l 190 935 q 200 932 196 935 q 203 922 203 928 l 203 815 q 200 806 203 809 q 190 802 196 802 l 88 802 z "},"ȷ":{"ha":276,"x_min":72,"x_max":203,"o":"m 86 -236 q 72 -222 72 -236 l 76 229 l 72 701 q 86 715 72 715 l 190 715 q 203 701 203 715 l 199 229 l 203 -222 q 190 -236 203 -236 l 86 -236 z "},"ĵ":{"ha":276,"x_min":-53,"x_max":328,"o":"m -51 844 q -53 851 -53 848 q -46 863 -53 858 l 103 972 q 119 977 109 977 l 156 977 q 172 972 166 977 l 321 863 q 328 851 328 858 q 326 844 328 848 l 306 806 q 295 799 302 799 q 288 801 292 799 l 138 885 l -12 801 q -20 799 -17 799 q -31 807 -28 799 l -51 844 m 86 -236 q 72 -222 72 -236 l 76 229 l 72 701 q 86 715 72 715 l 190 715 q 203 701 203 715 l 199 229 l 203 -222 q 190 -236 203 -236 l 86 -236 z "},"k":{"ha":649,"x_min":66,"x_max":635,"o":"m 633 16 q 635 9 635 12 q 632 2 635 5 q 623 -1 628 -1 l 504 -1 q 488 9 494 -1 l 279 365 l 192 269 l 194 13 q 191 3 194 6 q 181 -1 187 -1 l 79 -1 q 66 13 66 -1 l 72 482 l 66 958 q 79 972 66 972 l 181 972 q 191 969 187 972 q 194 958 194 965 l 190 484 l 190 406 l 463 708 q 479 715 468 715 l 591 715 q 603 708 603 715 q 598 699 603 705 l 369 458 l 633 16 z "},"ķ":{"ha":649,"x_min":66,"x_max":635,"o":"m 633 16 q 635 9 635 12 q 632 2 635 5 q 623 -1 628 -1 l 504 -1 q 488 9 494 -1 l 279 365 l 192 269 l 194 13 q 191 3 194 6 q 181 -1 187 -1 l 79 -1 q 66 13 66 -1 l 72 482 l 66 958 q 79 972 66 972 l 181 972 q 191 969 187 972 q 194 958 194 965 l 190 484 l 190 406 l 463 708 q 479 715 468 715 l 591 715 q 603 708 603 715 q 598 699 603 705 l 369 458 l 633 16 m 264 -312 q 255 -308 258 -312 q 253 -297 252 -304 l 281 -192 l 281 -87 q 284 -77 281 -81 q 294 -74 288 -74 l 373 -74 q 387 -87 387 -74 l 387 -182 q 382 -199 387 -191 l 319 -303 q 303 -312 314 -312 l 264 -312 z "},"l":{"ha":274,"x_min":73,"x_max":201,"o":"m 86 0 q 73 14 73 0 l 78 492 l 73 958 q 86 972 73 972 l 188 972 q 201 958 201 972 l 196 494 l 201 14 q 188 0 201 0 l 86 0 z "},"ĺ":{"ha":274,"x_min":-12,"x_max":338,"o":"m 86 0 q 73 14 73 0 l 78 492 l 73 958 q 86 972 73 972 l 188 972 q 201 958 201 972 l 196 494 l 201 14 q 188 0 201 0 l 86 0 m 21 1049 q 16 1049 19 1049 q 3 1058 8 1049 l -10 1096 q -12 1102 -12 1100 q -3 1114 -12 1110 l 295 1253 q 302 1255 299 1255 q 313 1246 309 1255 l 337 1175 q 338 1169 338 1171 q 328 1158 338 1161 l 21 1049 z "},"ľ":{"ha":274,"x_min":73,"x_max":413,"o":"m 86 0 q 73 14 73 0 l 78 492 l 73 958 q 86 972 73 972 l 188 972 q 201 958 201 972 l 196 494 l 201 14 q 188 0 201 0 l 86 0 m 340 782 q 325 770 337 770 l 268 770 q 258 774 261 770 q 256 785 254 778 l 305 1044 q 319 1056 307 1056 l 400 1056 q 410 1051 407 1056 q 411 1040 413 1047 l 340 782 z "},"ļ":{"ha":274,"x_min":56,"x_max":201,"o":"m 86 0 q 73 14 73 0 l 78 492 l 73 958 q 86 972 73 972 l 188 972 q 201 958 201 972 l 196 494 l 201 14 q 188 0 201 0 l 86 0 m 68 -312 q 59 -308 62 -312 q 58 -297 56 -304 l 85 -192 l 85 -87 q 89 -77 85 -81 q 99 -74 92 -74 l 177 -74 q 191 -87 191 -74 l 191 -182 q 186 -199 191 -191 l 123 -303 q 107 -312 118 -312 l 68 -312 z "},"ŀ":{"ha":403,"x_min":73,"x_max":403,"o":"m 86 0 q 73 14 73 0 l 78 492 l 73 958 q 86 972 73 972 l 188 972 q 201 958 201 972 l 196 494 l 201 14 q 188 0 201 0 l 86 0 m 288 380 q 274 394 274 380 l 274 500 q 277 510 274 506 q 288 514 281 514 l 390 514 q 399 510 396 514 q 403 500 403 506 l 403 394 q 390 380 403 380 l 288 380 z "},"ł":{"ha":306,"x_min":17,"x_max":289,"o":"m 273 523 q 280 525 277 525 q 289 513 289 525 l 289 444 q 280 428 289 433 l 213 392 l 217 14 q 203 0 217 0 l 102 0 q 89 14 89 0 l 92 326 l 33 293 q 26 291 28 291 q 17 303 17 291 l 17 372 q 26 388 17 383 l 93 424 l 94 492 l 89 958 q 102 972 89 972 l 203 972 q 217 958 217 972 l 211 494 l 211 489 l 273 523 z "},"m":{"ha":1127,"x_min":66,"x_max":1067,"o":"m 1065 282 l 1067 14 q 1054 0 1067 0 l 950 0 q 937 14 935 0 l 940 282 l 940 442 q 904 589 940 542 q 803 635 868 635 q 698 584 744 635 q 631 440 652 533 q 632 405 632 418 l 632 282 l 636 14 q 623 0 636 0 l 519 0 q 509 3 513 0 q 506 14 505 7 l 509 282 l 509 442 q 372 635 509 635 q 262 578 309 635 q 194 420 215 522 l 194 282 l 198 14 l 198 13 q 194 3 198 6 q 185 0 191 0 l 79 0 q 66 14 66 0 l 71 282 l 67 701 q 81 715 67 715 l 178 715 q 192 701 192 715 l 189 590 q 280 693 226 655 q 410 732 335 732 q 540 694 488 732 q 615 580 592 657 q 841 732 695 732 q 1007 661 949 732 q 1065 447 1065 591 l 1065 282 z "},"n":{"ha":730,"x_min":67,"x_max":669,"o":"m 667 306 l 669 14 q 656 0 669 0 l 554 0 q 540 14 540 0 l 544 306 l 544 442 q 503 587 544 539 q 392 635 462 635 q 268 579 321 635 q 195 420 216 523 l 195 306 l 197 14 q 184 0 197 0 l 81 0 q 67 14 67 0 l 72 325 l 68 701 q 82 715 68 715 l 178 715 q 192 701 192 715 l 189 590 q 286 692 226 651 q 427 732 347 732 q 603 659 540 732 q 667 447 667 586 l 667 306 z "},"ń":{"ha":730,"x_min":67,"x_max":669,"o":"m 667 306 l 669 14 q 656 0 669 0 l 554 0 q 540 14 540 0 l 544 306 l 544 442 q 503 587 544 539 q 392 635 462 635 q 268 579 321 635 q 195 420 216 523 l 195 306 l 197 14 q 184 0 197 0 l 81 0 q 67 14 67 0 l 72 325 l 68 701 q 82 715 68 715 l 178 715 q 192 701 192 715 l 189 590 q 286 692 226 651 q 427 732 347 732 q 603 659 540 732 q 667 447 667 586 l 667 306 m 252 792 q 247 792 250 792 q 235 801 239 792 l 221 839 q 219 845 219 843 q 228 857 219 853 l 526 996 q 533 998 531 998 q 544 989 540 998 l 568 918 q 569 912 569 914 q 560 901 569 904 l 252 792 z "},"ň":{"ha":730,"x_min":67,"x_max":669,"o":"m 667 306 l 669 14 q 656 0 669 0 l 554 0 q 540 14 540 0 l 544 306 l 544 442 q 503 587 544 539 q 392 635 462 635 q 268 579 321 635 q 195 420 216 523 l 195 306 l 197 14 q 184 0 197 0 l 81 0 q 67 14 67 0 l 72 325 l 68 701 q 82 715 68 715 l 178 715 q 192 701 192 715 l 189 590 q 286 692 226 651 q 427 732 347 732 q 603 659 540 732 q 667 447 667 586 l 667 306 m 151 910 q 143 920 143 914 q 145 928 143 924 l 162 967 q 172 976 165 976 q 179 974 176 976 l 368 888 l 557 974 q 564 976 560 976 q 574 968 572 976 l 592 928 q 593 921 593 925 q 586 910 593 914 l 403 800 q 386 795 397 795 l 350 795 q 333 800 340 795 l 151 910 z "},"ņ":{"ha":730,"x_min":67,"x_max":669,"o":"m 667 306 l 669 14 q 656 0 669 0 l 554 0 q 540 14 540 0 l 544 306 l 544 442 q 503 587 544 539 q 392 635 462 635 q 268 579 321 635 q 195 420 216 523 l 195 306 l 197 14 q 184 0 197 0 l 81 0 q 67 14 67 0 l 72 325 l 68 701 q 82 715 68 715 l 178 715 q 192 701 192 715 l 189 590 q 286 692 226 651 q 427 732 347 732 q 603 659 540 732 q 667 447 667 586 l 667 306 m 300 -312 q 291 -308 294 -312 q 290 -297 288 -304 l 317 -192 l 317 -87 q 320 -77 317 -81 q 331 -74 324 -74 l 409 -74 q 423 -87 423 -74 l 423 -182 q 418 -199 423 -191 l 355 -303 q 339 -312 350 -312 l 300 -312 z "},"ŋ":{"ha":728,"x_min":67,"x_max":667,"o":"m 478 -250 q 385 -240 434 -250 q 373 -225 373 -236 l 373 -162 q 377 -152 373 -156 q 388 -151 381 -149 q 451 -157 413 -157 q 542 -29 542 -157 l 542 442 q 502 588 542 540 q 392 635 463 635 q 268 579 321 635 q 195 420 216 523 l 195 306 l 197 14 q 184 0 197 0 l 81 0 q 70 3 74 0 q 67 14 67 7 l 69 325 l 68 701 q 72 712 68 708 q 82 715 76 715 l 178 715 q 192 701 192 715 l 189 590 q 286 692 226 651 q 427 732 347 732 q 603 659 540 732 q 667 447 667 586 l 667 -39 q 640 -160 667 -112 q 570 -228 613 -207 q 478 -250 528 -249 z "},"ñ":{"ha":730,"x_min":67,"x_max":669,"o":"m 667 306 l 669 14 q 656 0 669 0 l 554 0 q 540 14 540 0 l 544 306 l 544 442 q 503 587 544 539 q 392 635 462 635 q 268 579 321 635 q 195 420 216 523 l 195 306 l 197 14 q 184 0 197 0 l 81 0 q 67 14 67 0 l 72 325 l 68 701 q 82 715 68 715 l 178 715 q 192 701 192 715 l 189 590 q 286 692 226 651 q 427 732 347 732 q 603 659 540 732 q 667 447 667 586 l 667 306 m 446 808 q 394 822 415 808 q 348 863 373 836 q 319 892 331 883 q 292 901 307 901 q 245 827 249 901 q 231 814 244 814 l 188 814 q 174 828 174 814 q 206 936 176 895 q 291 977 236 977 q 344 963 323 977 q 390 920 365 948 q 416 893 405 902 q 441 884 428 884 q 492 958 488 884 q 506 971 492 971 l 549 971 q 563 954 563 971 q 530 847 559 886 q 446 808 501 808 z "},"o":{"ha":760,"x_min":41,"x_max":719,"o":"m 381 -16 q 197 30 274 -16 q 81 160 121 76 q 41 356 41 244 q 81 553 41 469 q 197 685 121 638 q 381 731 274 731 q 564 685 488 731 q 680 555 640 640 q 719 358 719 471 q 680 161 719 245 q 564 30 640 76 q 381 -16 488 -16 m 381 72 q 536 145 485 72 q 588 356 588 218 q 536 568 588 494 q 380 643 483 643 q 224 568 276 642 q 171 356 171 494 q 224 145 171 218 q 381 72 277 72 z "},"ó":{"ha":760,"x_min":41,"x_max":719,"o":"m 381 -16 q 197 30 274 -16 q 81 160 121 76 q 41 356 41 244 q 81 553 41 469 q 197 685 121 638 q 381 731 274 731 q 564 685 488 731 q 680 555 640 640 q 719 358 719 471 q 680 161 719 245 q 564 30 640 76 q 381 -16 488 -16 m 381 72 q 536 145 485 72 q 588 356 588 218 q 536 568 588 494 q 380 643 483 643 q 224 568 276 642 q 171 356 171 494 q 224 145 171 218 q 381 72 277 72 m 264 792 q 259 792 262 792 q 247 801 251 792 l 233 839 q 231 845 231 843 q 240 857 231 853 l 538 996 q 545 998 542 998 q 556 989 552 998 l 580 918 q 581 912 581 914 q 572 901 581 904 l 264 792 z "},"ŏ":{"ha":760,"x_min":41,"x_max":719,"o":"m 381 -16 q 197 30 274 -16 q 81 160 121 76 q 41 356 41 244 q 81 553 41 469 q 197 685 121 638 q 381 731 274 731 q 564 685 488 731 q 680 555 640 640 q 719 358 719 471 q 680 161 719 245 q 564 30 640 76 q 381 -16 488 -16 m 381 72 q 536 145 485 72 q 588 356 588 218 q 536 568 588 494 q 380 643 483 643 q 224 568 276 642 q 171 356 171 494 q 224 145 171 218 q 381 72 277 72 m 381 799 q 282 821 325 799 q 214 884 238 844 q 185 974 189 924 l 185 976 q 189 985 185 981 q 199 988 192 988 l 258 988 q 273 974 271 988 q 305 909 276 933 q 381 885 333 885 q 456 909 427 885 q 489 974 485 934 q 503 988 491 988 l 564 988 q 574 985 570 988 q 576 976 577 981 q 549 885 574 925 q 481 822 524 844 q 381 799 438 799 z "},"ô":{"ha":760,"x_min":41,"x_max":719,"o":"m 381 -16 q 197 30 274 -16 q 81 160 121 76 q 41 356 41 244 q 81 553 41 469 q 197 685 121 638 q 381 731 274 731 q 564 685 488 731 q 680 555 640 640 q 719 358 719 471 q 680 161 719 245 q 564 30 640 76 q 381 -16 488 -16 m 381 72 q 536 145 485 72 q 588 356 588 218 q 536 568 588 494 q 380 643 483 643 q 224 568 276 642 q 171 356 171 494 q 224 145 171 218 q 381 72 277 72 m 156 842 q 155 849 155 845 q 162 861 155 857 l 344 972 q 361 976 351 976 l 399 976 q 416 972 409 976 l 599 861 q 606 849 606 857 q 604 842 606 845 l 587 803 q 576 794 584 794 q 569 796 572 794 l 379 883 l 190 797 q 183 794 188 794 q 173 803 176 794 l 156 842 z "},"ố":{"ha":760,"x_min":41,"x_max":728,"o":"m 381 -16 q 197 30 274 -16 q 81 160 121 76 q 41 356 41 244 q 81 553 41 469 q 197 685 121 638 q 381 731 274 731 q 564 685 488 731 q 680 555 640 640 q 719 358 719 471 q 680 161 719 245 q 564 30 640 76 q 381 -16 488 -16 m 381 72 q 536 145 485 72 q 588 356 588 218 q 536 568 588 494 q 380 643 483 643 q 224 568 276 642 q 171 356 171 494 q 224 145 171 218 q 381 72 277 72 m 558 929 q 549 924 553 924 q 539 928 544 924 l 508 956 q 502 967 502 962 q 506 976 502 971 l 656 1165 q 665 1171 660 1171 q 675 1166 670 1171 l 724 1122 q 728 1111 728 1117 q 724 1102 728 1106 l 558 929 m 156 816 q 155 823 155 819 q 162 834 155 830 l 344 945 q 361 950 352 950 l 399 950 q 416 945 408 950 l 599 834 q 606 823 606 830 q 604 816 606 819 l 587 776 q 576 767 583 767 q 569 769 572 767 l 379 856 l 190 769 q 184 767 188 767 q 173 776 177 767 l 156 816 z "},"ộ":{"ha":760,"x_min":41,"x_max":719,"o":"m 381 -16 q 197 30 274 -16 q 81 160 121 76 q 41 356 41 244 q 81 553 41 469 q 197 685 121 638 q 381 731 274 731 q 564 685 488 731 q 680 555 640 640 q 719 358 719 471 q 680 161 719 245 q 564 30 640 76 q 381 -16 488 -16 m 381 72 q 536 145 485 72 q 588 356 588 218 q 536 568 588 494 q 380 643 483 643 q 224 568 276 642 q 171 356 171 494 q 224 145 171 218 q 381 72 277 72 m 156 842 q 155 849 155 845 q 162 861 155 857 l 344 972 q 361 976 351 976 l 399 976 q 416 972 409 976 l 599 861 q 606 849 606 857 q 604 842 606 845 l 587 803 q 576 794 584 794 q 569 796 572 794 l 379 883 l 190 797 q 183 794 188 794 q 173 803 176 794 l 156 842 z "},"ồ":{"ha":760,"x_min":41,"x_max":719,"o":"m 381 -16 q 197 30 274 -16 q 81 160 121 76 q 41 356 41 244 q 81 553 41 469 q 197 685 121 638 q 381 731 274 731 q 564 685 488 731 q 680 555 640 640 q 719 358 719 471 q 680 161 719 245 q 564 30 640 76 q 381 -16 488 -16 m 381 72 q 536 145 485 72 q 588 356 588 218 q 536 568 588 494 q 380 643 483 643 q 224 568 276 642 q 171 356 171 494 q 224 145 171 218 q 381 72 277 72 m 568 928 q 559 924 564 924 q 549 928 555 924 l 383 1101 q 378 1111 378 1106 q 383 1121 378 1116 l 432 1165 q 442 1170 438 1170 q 451 1164 447 1170 l 601 975 q 605 966 605 971 q 600 956 605 960 l 568 928 m 156 816 q 155 823 155 819 q 162 834 155 830 l 344 945 q 361 950 352 950 l 399 950 q 416 945 408 950 l 599 834 q 606 823 606 830 q 604 816 606 819 l 587 776 q 576 767 584 767 q 569 769 572 767 l 379 856 l 190 769 q 184 767 187 767 q 173 776 177 767 l 156 816 z "},"ổ":{"ha":760,"x_min":41,"x_max":719,"o":"m 381 -16 q 197 30 274 -16 q 81 160 121 76 q 41 356 41 244 q 81 553 41 469 q 197 685 121 638 q 381 731 274 731 q 564 685 488 731 q 680 555 640 640 q 719 358 719 471 q 680 161 719 245 q 564 30 640 76 q 381 -16 488 -16 m 381 72 q 536 145 485 72 q 588 356 588 218 q 536 568 588 494 q 380 643 483 643 q 224 568 276 642 q 171 356 171 494 q 224 145 171 218 q 381 72 277 72 z "},"ỗ":{"ha":760,"x_min":41,"x_max":719,"o":"m 381 -16 q 197 30 274 -16 q 81 160 121 76 q 41 356 41 244 q 81 553 41 469 q 197 685 121 638 q 381 731 274 731 q 564 685 488 731 q 680 555 640 640 q 719 358 719 471 q 680 161 719 245 q 564 30 640 76 q 381 -16 488 -16 m 381 72 q 536 145 485 72 q 588 356 588 218 q 536 568 588 494 q 380 643 483 643 q 224 568 276 642 q 171 356 171 494 q 224 145 171 218 q 381 72 277 72 z "},"ö":{"ha":760,"x_min":41,"x_max":719,"o":"m 381 -16 q 197 30 274 -16 q 81 160 121 76 q 41 356 41 244 q 81 553 41 469 q 197 685 121 638 q 381 731 274 731 q 564 685 488 731 q 680 555 640 640 q 719 358 719 471 q 680 161 719 245 q 564 30 640 76 q 381 -16 488 -16 m 381 72 q 536 145 485 72 q 588 356 588 218 q 536 568 588 494 q 380 643 483 643 q 224 568 276 642 q 171 356 171 494 q 224 145 171 218 q 381 72 277 72 m 227 802 q 217 806 221 802 q 213 815 213 809 l 213 922 q 217 932 213 928 q 227 935 221 935 l 313 935 q 327 922 327 935 l 327 815 q 323 806 327 809 q 313 802 319 802 l 227 802 m 447 802 q 434 815 434 802 l 434 922 q 447 935 434 935 l 534 935 q 544 932 540 935 q 548 922 548 928 l 548 815 q 544 806 548 809 q 534 802 540 802 l 447 802 z "},"ọ":{"ha":760,"x_min":41,"x_max":719,"o":"m 381 -16 q 197 30 274 -16 q 81 160 121 76 q 41 356 41 244 q 81 553 41 469 q 197 685 121 638 q 381 731 274 731 q 564 685 488 731 q 680 555 640 640 q 719 358 719 471 q 680 161 719 245 q 564 30 640 76 q 381 -16 488 -16 m 381 72 q 536 145 485 72 q 588 356 588 218 q 536 568 588 494 q 380 643 483 643 q 224 568 276 642 q 171 356 171 494 q 224 145 171 218 q 381 72 277 72 z "},"ò":{"ha":760,"x_min":41,"x_max":719,"o":"m 381 -16 q 197 30 274 -16 q 81 160 121 76 q 41 356 41 244 q 81 553 41 469 q 197 685 121 638 q 381 731 274 731 q 564 685 488 731 q 680 555 640 640 q 719 358 719 471 q 680 161 719 245 q 564 30 640 76 q 381 -16 488 -16 m 381 72 q 536 145 485 72 q 588 356 588 218 q 536 568 588 494 q 380 643 483 643 q 224 568 276 642 q 171 356 171 494 q 224 145 171 218 q 381 72 277 72 m 504 801 q 492 792 501 792 q 487 792 489 792 l 179 901 q 171 907 174 903 q 171 918 169 912 l 196 990 q 206 999 199 999 q 213 997 209 999 l 511 858 q 520 846 520 853 q 519 840 520 844 l 504 801 z "},"ỏ":{"ha":760,"x_min":41,"x_max":719,"o":"m 381 -16 q 197 30 274 -16 q 81 160 121 76 q 41 356 41 244 q 81 553 41 469 q 197 685 121 638 q 381 731 274 731 q 564 685 488 731 q 680 555 640 640 q 719 358 719 471 q 680 161 719 245 q 564 30 640 76 q 381 -16 488 -16 m 381 72 q 536 145 485 72 q 588 356 588 218 q 536 568 588 494 q 380 643 483 643 q 224 568 276 642 q 171 356 171 494 q 224 145 171 218 q 381 72 277 72 m 348 800 q 338 804 342 800 q 335 815 334 808 q 355 858 339 842 q 401 892 372 874 q 435 915 424 905 q 446 942 446 926 q 430 972 446 960 q 386 984 415 984 q 342 973 358 984 q 320 941 325 961 q 306 928 317 928 l 245 928 q 235 932 239 928 q 233 942 232 935 q 280 1023 240 994 q 388 1051 320 1051 q 496 1022 456 1051 q 537 944 537 993 q 520 893 537 912 q 473 856 503 875 q 442 833 453 842 q 428 813 431 824 q 414 800 424 800 l 348 800 z "},"ơ":{"ha":760,"x_min":41,"x_max":731,"o":"m 724 865 q 731 855 731 861 q 728 847 731 850 l 601 658 q 689 533 659 610 q 719 358 719 456 q 680 161 719 245 q 564 30 640 76 q 381 -16 488 -16 q 197 30 274 -16 q 81 160 121 76 q 41 356 41 244 q 81 553 41 469 q 197 685 121 638 q 381 731 274 731 q 529 703 464 731 l 640 898 q 650 905 644 905 q 658 903 654 905 l 724 865 m 381 72 q 536 145 485 72 q 588 356 588 218 q 536 568 588 494 q 380 643 483 643 q 224 568 276 642 q 171 356 171 494 q 224 145 171 218 q 381 72 277 72 z "},"ớ":{"ha":760,"x_min":41,"x_max":731,"o":"m 724 865 q 731 855 731 861 q 728 847 731 850 l 601 658 q 689 533 659 610 q 719 358 719 456 q 680 161 719 245 q 564 30 640 76 q 381 -16 488 -16 q 197 30 274 -16 q 81 160 121 76 q 41 356 41 244 q 81 553 41 469 q 197 685 121 638 q 381 731 274 731 q 529 703 464 731 l 640 898 q 650 905 644 905 q 658 903 654 905 l 724 865 m 381 72 q 536 145 485 72 q 588 356 588 218 q 536 568 588 494 q 380 643 483 643 q 224 568 276 642 q 171 356 171 494 q 224 145 171 218 q 381 72 277 72 m 236 792 q 231 792 234 792 q 219 801 223 792 l 205 839 q 203 845 203 843 q 212 857 203 853 l 510 996 q 517 998 515 998 q 528 989 524 998 l 552 918 q 553 912 553 914 q 544 901 553 904 l 236 792 z "},"ợ":{"ha":760,"x_min":41,"x_max":731,"o":"m 724 865 q 731 855 731 861 q 728 847 731 850 l 601 658 q 689 533 659 610 q 719 358 719 456 q 680 161 719 245 q 564 30 640 76 q 381 -16 488 -16 q 197 30 274 -16 q 81 160 121 76 q 41 356 41 244 q 81 553 41 469 q 197 685 121 638 q 381 731 274 731 q 529 703 464 731 l 640 898 q 650 905 644 905 q 658 903 654 905 l 724 865 m 381 72 q 536 145 485 72 q 588 356 588 218 q 536 568 588 494 q 380 643 483 643 q 224 568 276 642 q 171 356 171 494 q 224 145 171 218 q 381 72 277 72 z "},"ờ":{"ha":760,"x_min":41,"x_max":731,"o":"m 724 865 q 731 855 731 861 q 728 847 731 850 l 601 658 q 689 533 659 610 q 719 358 719 456 q 680 161 719 245 q 564 30 640 76 q 381 -16 488 -16 q 197 30 274 -16 q 81 160 121 76 q 41 356 41 244 q 81 553 41 469 q 197 685 121 638 q 381 731 274 731 q 529 703 464 731 l 640 898 q 650 905 644 905 q 658 903 654 905 l 724 865 m 381 72 q 536 145 485 72 q 588 356 588 218 q 536 568 588 494 q 380 643 483 643 q 224 568 276 642 q 171 356 171 494 q 224 145 171 218 q 381 72 277 72 m 490 801 q 478 792 487 792 q 472 793 474 792 l 165 901 q 157 908 159 903 q 156 919 154 913 l 181 990 q 192 999 185 999 q 199 997 194 999 l 497 858 q 506 847 506 854 q 504 840 506 844 l 490 801 z "},"ở":{"ha":760,"x_min":41,"x_max":731,"o":"m 724 865 q 731 855 731 861 q 728 847 731 850 l 601 658 q 689 533 659 610 q 719 358 719 456 q 680 161 719 245 q 564 30 640 76 q 381 -16 488 -16 q 197 30 274 -16 q 81 160 121 76 q 41 356 41 244 q 81 553 41 469 q 197 685 121 638 q 381 731 274 731 q 529 703 464 731 l 640 898 q 650 905 644 905 q 658 903 654 905 l 724 865 m 381 72 q 536 145 485 72 q 588 356 588 218 q 536 568 588 494 q 380 643 483 643 q 224 568 276 642 q 171 356 171 494 q 224 145 171 218 q 381 72 277 72 m 334 800 q 324 804 328 800 q 322 815 320 808 q 341 858 325 842 q 387 892 358 874 q 421 915 410 905 q 432 942 432 926 q 416 972 432 960 q 372 984 401 984 q 328 973 344 984 q 306 941 311 961 q 292 928 303 928 l 231 928 q 222 932 225 928 q 219 942 218 935 q 266 1023 226 994 q 374 1051 306 1051 q 482 1022 442 1051 q 523 944 523 993 q 506 893 523 912 q 459 856 490 875 q 428 833 439 842 q 414 813 417 824 q 400 800 410 800 l 334 800 z "},"ỡ":{"ha":760,"x_min":41,"x_max":731,"o":"m 724 865 q 731 855 731 861 q 728 847 731 850 l 601 658 q 689 533 659 610 q 719 358 719 456 q 680 161 719 245 q 564 30 640 76 q 381 -16 488 -16 q 197 30 274 -16 q 81 160 121 76 q 41 356 41 244 q 81 553 41 469 q 197 685 121 638 q 381 731 274 731 q 529 703 464 731 l 640 898 q 650 905 644 905 q 658 903 654 905 l 724 865 m 381 72 q 536 145 485 72 q 588 356 588 218 q 536 568 588 494 q 380 643 483 643 q 224 568 276 642 q 171 356 171 494 q 224 145 171 218 q 381 72 277 72 m 430 808 q 378 822 399 808 q 332 863 357 836 q 303 892 315 883 q 276 901 291 901 q 229 827 233 901 q 215 814 228 814 l 172 814 q 158 828 158 814 q 190 936 160 895 q 275 977 220 977 q 328 963 307 977 q 374 920 349 948 q 400 893 389 902 q 425 884 412 884 q 476 958 472 884 q 490 971 476 971 l 533 971 q 547 954 547 971 q 514 847 543 886 q 430 808 485 808 z "},"ő":{"ha":760,"x_min":41,"x_max":719,"o":"m 381 -16 q 197 30 274 -16 q 81 160 121 76 q 41 356 41 244 q 81 553 41 469 q 197 685 121 638 q 381 731 274 731 q 564 685 488 731 q 680 555 640 640 q 719 358 719 471 q 680 161 719 245 q 564 30 640 76 q 381 -16 488 -16 m 381 72 q 536 145 485 72 q 588 356 588 218 q 536 568 588 494 q 380 643 483 643 q 224 568 276 642 q 171 356 171 494 q 224 145 171 218 q 381 72 277 72 m 278 816 q 268 811 274 811 q 259 815 263 811 l 233 838 q 228 847 228 843 q 231 856 228 851 l 388 1065 q 397 1072 392 1072 q 407 1067 401 1072 l 454 1020 q 459 1011 459 1015 q 454 1001 459 1008 l 278 816 m 473 813 q 463 808 469 808 q 454 812 458 808 l 428 833 q 423 843 423 838 q 426 852 423 847 l 583 1061 q 592 1067 587 1067 q 602 1063 597 1067 l 649 1017 q 653 1007 653 1013 q 649 998 653 1002 l 473 813 z "},"ō":{"ha":760,"x_min":41,"x_max":719,"o":"m 381 -16 q 197 30 274 -16 q 81 160 121 76 q 41 356 41 244 q 81 553 41 469 q 197 685 121 638 q 381 731 274 731 q 564 685 488 731 q 680 555 640 640 q 719 358 719 471 q 680 161 719 245 q 564 30 640 76 q 381 -16 488 -16 m 381 72 q 536 145 485 72 q 588 356 588 218 q 536 568 588 494 q 380 643 483 643 q 224 568 276 642 q 171 356 171 494 q 224 145 171 218 q 381 72 277 72 m 190 826 q 176 840 176 826 l 176 903 q 180 913 176 909 q 190 916 184 916 l 569 916 q 579 913 575 916 q 583 903 583 909 l 583 840 q 579 830 583 833 q 569 826 575 826 l 190 826 z "},"ø":{"ha":760,"x_min":39,"x_max":720,"o":"m 646 612 q 701 500 682 564 q 719 358 719 435 q 680 161 719 245 q 564 30 640 76 q 381 -16 488 -16 q 178 47 260 -16 l 106 -40 q 97 -45 102 -45 q 87 -41 92 -45 l 44 0 q 39 10 39 5 q 42 19 39 14 l 113 106 q 59 216 77 153 q 41 356 41 280 q 81 553 41 469 q 197 685 121 638 q 381 731 274 731 q 581 669 501 731 l 651 756 q 662 761 656 761 q 671 758 667 761 l 715 716 q 720 706 720 711 q 717 697 720 702 l 646 612 m 380 643 q 224 568 276 642 q 171 356 171 494 q 201 200 171 264 l 522 586 q 380 643 470 643 m 381 72 q 536 145 485 72 q 588 356 588 218 q 558 517 588 452 l 237 130 q 381 72 289 72 z "},"õ":{"ha":760,"x_min":41,"x_max":719,"o":"m 381 -16 q 197 30 274 -16 q 81 160 121 76 q 41 356 41 244 q 81 553 41 469 q 197 685 121 638 q 381 731 274 731 q 564 685 488 731 q 680 555 640 640 q 719 358 719 471 q 680 161 719 245 q 564 30 640 76 q 381 -16 488 -16 m 381 72 q 536 145 485 72 q 588 356 588 218 q 536 568 588 494 q 380 643 483 643 q 224 568 276 642 q 171 356 171 494 q 224 145 171 218 q 381 72 277 72 m 458 808 q 406 822 426 808 q 360 863 385 836 q 331 892 342 883 q 304 901 319 901 q 257 827 260 901 q 243 814 256 814 l 199 814 q 185 828 185 814 q 218 936 188 895 q 303 977 248 977 q 356 963 335 977 q 401 920 377 948 q 428 893 417 902 q 453 884 440 884 q 503 958 500 884 q 517 971 503 971 l 561 971 q 574 954 575 971 q 542 847 571 886 q 458 808 513 808 z "},"œ":{"ha":1297,"x_min":40,"x_max":1258,"o":"m 373 -16 q 193 30 268 -16 q 79 160 118 76 q 40 356 40 244 q 79 554 40 469 q 193 685 118 638 q 373 731 268 731 q 550 680 476 731 q 656 533 623 628 q 761 679 690 626 q 932 731 833 731 q 1105 686 1033 731 q 1217 558 1178 642 q 1258 356 1256 474 q 1244 342 1258 342 l 719 342 q 933 72 726 72 q 1059 114 1012 72 q 1124 236 1107 156 q 1138 249 1127 249 l 1233 249 q 1243 245 1240 249 q 1246 236 1247 242 q 1196 105 1235 161 q 1092 16 1157 48 q 939 -16 1026 -16 q 760 35 832 -16 q 654 180 688 87 q 549 35 621 87 q 373 -16 477 -16 m 926 644 q 787 588 839 644 q 723 428 735 531 l 1122 428 q 1097 537 1119 488 q 1030 615 1074 586 q 926 644 987 644 m 380 72 q 535 145 483 72 q 588 356 588 218 q 535 568 588 494 q 379 643 483 643 q 223 568 276 642 q 171 356 171 494 q 224 145 171 218 q 380 72 276 72 z "},"p":{"ha":756,"x_min":66,"x_max":715,"o":"m 419 730 q 580 682 513 730 q 681 549 647 633 q 715 360 715 465 q 680 170 715 256 q 576 36 644 85 q 417 -14 509 -14 q 285 18 342 -14 q 194 113 229 51 l 197 -222 q 193 -233 197 -229 q 183 -236 190 -236 l 79 -236 q 66 -222 66 -236 l 71 314 l 66 701 q 79 715 66 715 l 181 715 q 194 701 194 715 l 191 594 q 285 694 226 659 q 419 730 343 730 m 385 75 q 536 150 485 75 q 587 351 587 224 q 536 562 587 484 q 388 640 486 640 q 241 568 294 640 q 188 360 188 497 q 239 149 188 224 q 385 75 291 75 z "},"þ":{"ha":756,"x_min":66,"x_max":715,"o":"m 419 730 q 580 682 513 730 q 681 549 647 633 q 715 360 715 465 q 680 170 715 256 q 576 36 644 85 q 417 -14 509 -14 q 285 18 342 -14 q 194 113 229 51 l 197 -222 q 193 -233 197 -229 q 183 -236 190 -236 l 79 -236 q 66 -222 66 -236 l 71 356 l 66 958 q 79 972 66 972 l 181 972 q 191 969 187 972 q 194 958 194 965 l 190 592 q 284 693 225 657 q 419 730 343 730 m 385 75 q 536 150 485 75 q 587 351 587 224 q 536 562 587 484 q 388 640 486 640 q 240 569 293 640 q 188 360 188 497 q 239 149 188 224 q 385 75 291 75 z "},"q":{"ha":756,"x_min":41,"x_max":690,"o":"m 339 728 q 473 695 416 728 q 565 598 530 662 l 562 701 q 576 715 562 715 l 677 715 q 690 701 690 715 l 685 284 l 690 -222 q 677 -236 690 -236 l 574 -236 q 560 -222 560 -236 l 563 117 q 470 22 527 56 q 337 -12 413 -12 q 176 36 243 -12 q 75 167 110 84 q 41 356 41 251 q 76 545 41 460 q 180 678 112 629 q 339 728 247 728 m 369 76 q 516 148 463 76 q 569 355 569 219 q 545 509 569 444 q 478 607 522 573 q 372 640 433 640 q 221 566 273 640 q 169 364 169 492 q 220 154 169 231 q 369 76 270 76 z "},"r":{"ha":502,"x_min":66,"x_max":485,"o":"m 79 0 q 66 14 66 0 l 70 365 l 66 701 q 79 715 66 715 l 180 715 q 194 701 194 715 l 189 579 q 291 685 226 648 q 432 722 356 722 q 474 718 455 722 q 482 713 479 717 q 485 703 485 708 l 485 633 q 471 621 485 619 q 432 624 456 624 q 319 599 370 624 q 234 523 268 574 q 192 397 201 472 l 195 14 q 191 3 195 7 q 181 0 188 0 l 79 0 z "},"ŕ":{"ha":502,"x_min":66,"x_max":485,"o":"m 79 0 q 66 14 66 0 l 70 365 l 66 701 q 79 715 66 715 l 180 715 q 194 701 194 715 l 189 579 q 291 685 226 648 q 432 722 356 722 q 474 718 455 722 q 482 713 479 717 q 485 703 485 708 l 485 633 q 471 621 485 619 q 432 624 456 624 q 319 599 370 624 q 234 523 268 574 q 192 397 201 472 l 195 14 q 191 3 195 7 q 181 0 188 0 l 79 0 m 160 792 q 155 792 158 792 q 142 801 147 792 l 128 839 q 127 845 127 843 q 135 857 127 853 l 434 996 q 441 998 438 998 q 451 989 448 998 l 476 918 q 477 912 477 914 q 467 901 477 904 l 160 792 z "},"ř":{"ha":502,"x_min":51,"x_max":501,"o":"m 79 0 q 66 14 66 0 l 70 365 l 66 701 q 79 715 66 715 l 180 715 q 194 701 194 715 l 189 579 q 291 685 226 648 q 432 722 356 722 q 474 718 455 722 q 482 713 479 717 q 485 703 485 708 l 485 633 q 471 621 485 619 q 432 624 456 624 q 319 599 370 624 q 234 523 268 574 q 192 397 201 472 l 195 14 q 191 3 195 7 q 181 0 188 0 l 79 0 m 58 910 q 51 920 51 914 q 53 928 51 924 l 69 967 q 80 976 72 976 q 87 974 83 976 l 276 888 l 465 974 q 472 976 468 976 q 482 968 479 976 l 499 928 q 501 921 501 925 q 494 910 501 914 l 311 800 q 294 795 305 795 l 258 795 q 241 800 247 795 l 58 910 z "},"ŗ":{"ha":502,"x_min":50,"x_max":485,"o":"m 79 0 q 66 14 66 0 l 70 365 l 66 701 q 79 715 66 715 l 180 715 q 194 701 194 715 l 189 579 q 291 685 226 648 q 432 722 356 722 q 474 718 455 722 q 482 713 479 717 q 485 703 485 708 l 485 633 q 471 621 485 619 q 432 624 456 624 q 319 599 370 624 q 234 523 268 574 q 192 397 201 472 l 195 14 q 191 3 195 7 q 181 0 188 0 l 79 0 m 62 -312 q 53 -308 56 -312 q 51 -297 50 -304 l 78 -192 l 78 -87 q 82 -77 78 -81 q 92 -74 86 -74 l 171 -74 q 185 -87 185 -74 l 185 -182 q 180 -199 185 -191 l 117 -303 q 101 -312 112 -312 l 62 -312 z "},"s":{"ha":696,"x_min":38,"x_max":658,"o":"m 360 -15 q 129 49 215 -15 q 38 235 43 113 q 51 249 38 249 l 148 249 q 161 235 161 249 q 215 109 165 150 q 361 68 265 68 q 489 101 442 68 q 537 195 537 135 q 510 259 537 236 q 442 294 483 283 q 331 317 402 305 q 187 350 242 333 q 93 408 132 367 q 54 522 54 449 q 89 636 54 589 q 188 707 124 683 q 337 731 251 731 q 547 676 466 731 q 635 515 627 622 l 635 513 q 631 504 635 507 q 622 501 628 501 l 529 501 q 515 514 516 501 q 461 615 508 581 q 335 649 415 649 q 218 619 260 649 q 176 530 176 589 q 201 471 176 492 q 266 440 227 450 q 372 419 304 430 q 520 386 464 404 q 618 326 577 369 q 658 204 658 283 q 619 87 658 137 q 513 11 581 37 q 360 -15 444 -15 z "},"ś":{"ha":696,"x_min":38,"x_max":658,"o":"m 360 -15 q 129 49 215 -15 q 38 235 43 113 q 51 249 38 249 l 148 249 q 161 235 161 249 q 215 109 165 150 q 361 68 265 68 q 489 101 442 68 q 537 195 537 135 q 510 259 537 236 q 442 294 483 283 q 331 317 402 305 q 187 350 242 333 q 93 408 132 367 q 54 522 54 449 q 89 636 54 589 q 188 707 124 683 q 337 731 251 731 q 547 676 466 731 q 635 515 627 622 l 635 513 q 631 504 635 507 q 622 501 628 501 l 529 501 q 515 514 516 501 q 461 615 508 581 q 335 649 415 649 q 218 619 260 649 q 176 530 176 589 q 201 471 176 492 q 266 440 227 450 q 372 419 304 430 q 520 386 464 404 q 618 326 577 369 q 658 204 658 283 q 619 87 658 137 q 513 11 581 37 q 360 -15 444 -15 m 232 792 q 227 792 230 792 q 215 801 219 792 l 201 839 q 199 845 199 843 q 208 857 199 853 l 506 996 q 513 998 510 998 q 524 989 520 998 l 548 918 q 549 912 549 914 q 540 901 549 904 l 232 792 z "},"š":{"ha":696,"x_min":38,"x_max":658,"o":"m 360 -15 q 129 49 215 -15 q 38 235 43 113 q 51 249 38 249 l 148 249 q 161 235 161 249 q 215 109 165 150 q 361 68 265 68 q 489 101 442 68 q 537 195 537 135 q 510 259 537 236 q 442 294 483 283 q 331 317 402 305 q 187 350 242 333 q 93 408 132 367 q 54 522 54 449 q 89 636 54 589 q 188 707 124 683 q 337 731 251 731 q 547 676 466 731 q 635 515 627 622 l 635 513 q 631 504 635 507 q 622 501 628 501 l 529 501 q 515 514 516 501 q 461 615 508 581 q 335 649 415 649 q 218 619 260 649 q 176 530 176 589 q 201 471 176 492 q 266 440 227 450 q 372 419 304 430 q 520 386 464 404 q 618 326 577 369 q 658 204 658 283 q 619 87 658 137 q 513 11 581 37 q 360 -15 444 -15 m 131 910 q 123 920 123 914 q 125 928 123 924 l 142 967 q 152 976 144 976 q 159 974 156 976 l 348 888 l 537 974 q 544 976 540 976 q 554 968 551 976 l 572 928 q 573 921 573 925 q 566 910 573 914 l 383 800 q 366 795 377 795 l 330 795 q 313 800 319 795 l 131 910 z "},"ş":{"ha":696,"x_min":38,"x_max":658,"o":"m 658 204 q 624 93 658 141 q 530 18 590 46 q 394 -14 470 -9 l 341 -226 q 336 -234 340 -232 q 325 -235 331 -237 l 234 -217 q 224 -206 224 -215 q 225 -200 224 -204 l 299 -12 q 112 63 181 1 q 38 235 43 126 q 51 249 38 249 l 148 249 q 161 235 161 249 q 215 109 165 150 q 361 68 265 68 q 489 101 442 68 q 537 195 537 135 q 510 259 537 236 q 442 294 483 283 q 331 317 402 305 q 187 350 242 333 q 93 408 132 367 q 54 522 54 449 q 89 636 54 589 q 188 707 124 683 q 337 731 251 731 q 547 676 466 731 q 635 515 627 622 l 635 513 q 631 504 635 507 q 622 501 628 501 l 529 501 q 515 514 516 501 q 461 615 508 581 q 335 649 415 649 q 218 619 260 649 q 176 530 176 589 q 201 471 176 492 q 266 440 227 450 q 372 419 304 430 q 520 386 464 404 q 618 326 577 369 q 658 204 658 283 z "},"ŝ":{"ha":696,"x_min":38,"x_max":658,"o":"m 360 -15 q 129 49 215 -15 q 38 235 43 113 q 51 249 38 249 l 148 249 q 161 235 161 249 q 215 109 165 150 q 361 68 265 68 q 489 101 442 68 q 537 195 537 135 q 510 259 537 236 q 442 294 483 283 q 331 317 402 305 q 187 350 242 333 q 93 408 132 367 q 54 522 54 449 q 89 636 54 589 q 188 707 124 683 q 337 731 251 731 q 547 676 466 731 q 635 515 627 622 l 635 513 q 631 504 635 507 q 622 501 628 501 l 529 501 q 515 514 516 501 q 461 615 508 581 q 335 649 415 649 q 218 619 260 649 q 176 530 176 589 q 201 471 176 492 q 266 440 227 450 q 372 419 304 430 q 520 386 464 404 q 618 326 577 369 q 658 204 658 283 q 619 87 658 137 q 513 11 581 37 q 360 -15 444 -15 m 124 842 q 123 849 123 845 q 130 861 123 857 l 313 972 q 329 976 319 976 l 367 976 q 384 972 377 976 l 567 861 q 574 849 574 857 q 572 842 574 845 l 555 803 q 544 794 552 794 q 538 796 540 794 l 347 883 l 158 797 q 151 794 156 794 q 141 803 144 794 l 124 842 z "},"ș":{"ha":696,"x_min":38,"x_max":658,"o":"m 360 -15 q 129 49 215 -15 q 38 235 43 113 q 51 249 38 249 l 148 249 q 161 235 161 249 q 215 109 165 150 q 361 68 265 68 q 489 101 442 68 q 537 195 537 135 q 510 259 537 236 q 442 294 483 283 q 331 317 402 305 q 187 350 242 333 q 93 408 132 367 q 54 522 54 449 q 89 636 54 589 q 188 707 124 683 q 337 731 251 731 q 547 676 466 731 q 635 515 627 622 l 635 513 q 631 504 635 507 q 622 501 628 501 l 529 501 q 515 514 516 501 q 461 615 508 581 q 335 649 415 649 q 218 619 260 649 q 176 530 176 589 q 201 471 176 492 q 266 440 227 450 q 372 419 304 430 q 520 386 464 404 q 618 326 577 369 q 658 204 658 283 q 619 87 658 137 q 513 11 581 37 q 360 -15 444 -15 m 281 -312 q 272 -308 275 -312 q 271 -297 269 -304 l 298 -192 l 298 -87 q 302 -77 298 -81 q 312 -74 306 -74 l 390 -74 q 404 -87 404 -74 l 404 -182 q 399 -199 404 -191 l 336 -303 q 320 -312 331 -312 l 281 -312 z "},"ß":{"ha":775,"x_min":73,"x_max":730,"o":"m 86 -1 q 73 13 73 -1 l 77 322 l 77 695 q 117 864 77 798 q 226 959 158 929 q 381 990 294 989 q 535 960 470 990 q 636 873 600 931 q 672 734 672 816 q 627 602 672 655 q 509 530 583 549 q 673 449 617 513 q 730 288 730 385 q 686 134 730 200 q 566 34 643 69 q 390 -1 489 -1 l 349 -1 q 339 2 342 -1 q 335 13 335 6 l 335 81 q 339 91 335 87 q 349 94 342 94 l 390 94 q 545 144 492 94 q 598 289 598 194 q 541 425 598 378 q 383 473 484 473 l 349 473 q 335 486 335 473 l 335 548 q 349 561 335 561 l 383 561 q 504 604 465 561 q 543 724 543 647 q 499 853 543 810 q 376 897 454 897 q 249 847 297 897 q 201 692 201 797 l 201 322 l 205 13 q 192 -1 205 -1 l 86 -1 z "},"t":{"ha":452,"x_min":30,"x_max":424,"o":"m 315 -12 q 175 38 228 -12 q 122 196 122 87 l 122 539 l 122 622 l 44 622 q 34 626 38 622 q 30 635 30 629 l 30 701 q 34 712 30 708 q 44 715 38 715 l 122 715 l 120 881 q 133 894 120 894 l 236 894 q 250 881 250 894 l 248 715 l 411 715 q 421 711 417 715 q 424 701 424 708 l 424 635 q 411 622 424 622 l 247 622 l 247 541 l 248 199 q 269 109 248 135 q 338 83 290 83 q 408 91 379 83 q 413 92 410 92 q 424 79 424 92 l 424 19 q 414 4 424 7 q 315 -12 358 -12 z "},"ŧ":{"ha":456,"x_min":31,"x_max":426,"o":"m 249 622 l 249 431 l 411 431 q 424 417 424 431 l 424 351 q 411 338 424 338 l 249 338 l 249 199 q 270 109 249 135 q 339 83 292 83 q 410 91 379 83 q 415 92 411 92 q 425 79 425 92 l 425 19 q 415 4 425 8 q 315 -12 358 -12 q 176 38 229 -12 q 123 196 123 87 l 123 338 l 44 338 q 31 351 31 338 l 31 417 q 44 431 31 431 l 123 431 l 124 622 l 44 622 q 31 635 31 622 l 31 701 q 44 715 31 715 l 123 715 l 121 881 q 135 894 121 894 l 238 894 q 251 881 251 894 l 249 715 l 412 715 q 422 711 418 715 q 426 701 426 708 l 426 635 q 422 626 426 629 q 412 622 418 622 l 249 622 z "},"ť":{"ha":452,"x_min":30,"x_max":460,"o":"m 315 -12 q 175 38 228 -12 q 122 196 122 87 l 122 539 l 122 622 l 44 622 q 34 626 38 622 q 30 635 30 629 l 30 701 q 34 712 30 708 q 44 715 38 715 l 122 715 l 120 881 q 133 894 120 894 l 236 894 q 250 881 250 894 l 248 715 l 411 715 q 421 711 417 715 q 424 701 424 708 l 424 635 q 411 622 424 622 l 247 622 l 247 541 l 248 199 q 269 109 248 135 q 338 83 290 83 q 408 91 379 83 q 413 92 410 92 q 424 79 424 92 l 424 19 q 414 4 424 7 q 315 -12 358 -12 m 387 782 q 372 770 383 770 l 315 770 q 304 774 308 770 q 302 785 301 778 l 351 1044 q 366 1056 353 1056 l 447 1056 q 457 1051 453 1056 q 458 1040 460 1047 l 387 782 z "},"ţ":{"ha":452,"x_min":30,"x_max":424,"o":"m 247 622 l 247 541 l 248 199 q 269 109 248 135 q 338 83 290 83 q 408 91 379 83 q 413 92 410 92 q 424 79 424 92 l 424 19 q 414 4 424 7 q 318 -12 363 -11 l 265 -226 q 259 -234 264 -232 q 249 -235 255 -237 l 158 -217 q 147 -206 147 -215 q 149 -200 147 -204 l 228 3 q 150 70 178 23 q 122 196 122 117 l 122 539 l 122 622 l 44 622 q 34 626 38 622 q 30 635 30 629 l 30 701 q 34 712 30 708 q 44 715 38 715 l 122 715 l 120 881 q 133 894 120 894 l 236 894 q 250 881 250 894 l 248 715 l 411 715 q 421 711 417 715 q 424 701 424 708 l 424 635 q 411 622 424 622 l 247 622 z "},"ț":{"ha":452,"x_min":30,"x_max":424,"o":"m 315 -12 q 175 38 228 -12 q 122 196 122 87 l 122 539 l 122 622 l 44 622 q 34 626 38 622 q 30 635 30 629 l 30 701 q 34 712 30 708 q 44 715 38 715 l 122 715 l 120 881 q 133 894 120 894 l 236 894 q 250 881 250 894 l 248 715 l 411 715 q 421 711 417 715 q 424 701 424 708 l 424 635 q 411 622 424 622 l 247 622 l 247 541 l 248 199 q 269 109 248 135 q 338 83 290 83 q 408 91 379 83 q 413 92 410 92 q 424 79 424 92 l 424 19 q 414 4 424 7 q 315 -12 358 -12 m 205 -312 q 196 -308 199 -312 q 194 -297 193 -304 l 222 -192 l 222 -87 q 225 -77 222 -81 q 235 -74 229 -74 l 314 -74 q 328 -87 328 -74 l 328 -182 q 323 -199 328 -191 l 260 -303 q 244 -312 255 -312 l 205 -312 z "},"u":{"ha":730,"x_min":60,"x_max":663,"o":"m 303 -17 q 127 56 190 -17 q 63 268 63 129 l 63 410 l 60 701 q 74 715 60 715 l 176 715 q 190 701 190 715 l 186 410 l 186 273 q 227 128 186 176 q 338 80 268 80 q 461 136 409 80 q 535 295 514 192 l 535 410 l 533 701 q 546 715 533 715 l 649 715 q 663 701 663 715 l 658 390 l 662 14 q 648 0 662 0 l 551 0 q 538 14 538 0 l 541 125 q 443 24 504 64 q 303 -17 383 -17 z "},"ú":{"ha":730,"x_min":60,"x_max":663,"o":"m 303 -17 q 127 56 190 -17 q 63 268 63 129 l 63 410 l 60 701 q 74 715 60 715 l 176 715 q 190 701 190 715 l 186 410 l 186 273 q 227 128 186 176 q 338 80 268 80 q 461 136 409 80 q 535 295 514 192 l 535 410 l 533 701 q 546 715 533 715 l 649 715 q 663 701 663 715 l 658 390 l 662 14 q 648 0 662 0 l 551 0 q 538 14 538 0 l 541 125 q 443 24 504 64 q 303 -17 383 -17 m 245 792 q 240 792 243 792 q 228 801 232 792 l 214 839 q 213 845 213 843 q 221 857 213 853 l 519 996 q 526 998 524 998 q 537 989 533 998 l 561 918 q 563 912 563 914 q 553 901 563 904 l 245 792 z "}}}
